<svg width="70" height="62" viewBox="0 0 70 62" fill="none" xmlns="http://www.w3.org/2000/svg">
<path d="M66.7188 0H3.28125C1.47219 0 0 1.47219 0 3.28125V60.1606C0 60.7655 0.488906 61.2544 1.09375 61.2544H68.9062C69.5111 61.2544 70 60.7655 70 60.1606V3.28125C70 1.47219 68.5278 0 66.7188 0ZM2.1875 6.5625H67.8125V59.0669H2.1875V6.5625ZM3.28125 2.1875H4.39687C3.79312 2.1875 3.30969 2.6775 3.30969 3.28125C3.30969 3.885 3.80406 4.375 4.40891 4.375C5.01266 4.375 5.50266 3.885 5.50266 3.28125C5.50266 2.6775 5.01266 2.1875 4.40891 2.1875H7.67703C7.07328 2.1875 6.58984 2.6775 6.58984 3.28125C6.58984 3.885 7.08422 4.375 7.68906 4.375C8.29281 4.375 8.78281 3.885 8.78281 3.28125C8.78281 2.6775 8.29281 2.1875 7.68906 2.1875H10.9616C10.3578 2.1875 9.87437 2.6775 9.87437 3.28125C9.87437 3.885 10.3687 4.375 10.9736 4.375C11.5773 4.375 12.0673 3.885 12.0673 3.28125C12.0673 2.6775 11.5773 2.1875 10.9736 2.1875H66.7188C67.3225 2.1875 67.8125 2.67859 67.8125 3.28125V4.375H10.9725H7.68797H4.40891H2.1875V3.28125C2.1875 2.67859 2.6775 2.1875 3.28125 2.1875Z" fill="#1A5832"/>
<path d="M21.8739 8.75H5.46875C4.86391 8.75 4.375 9.24 4.375 9.84375V30.6228C4.375 31.2266 4.86391 31.7166 5.46875 31.7166H21.8739C22.4788 31.7166 22.9677 31.2266 22.9677 30.6228V9.84375C22.9677 9.24 22.4788 8.75 21.8739 8.75ZM20.7802 29.5291H6.5625V10.9375H20.7802V29.5291Z" fill="#1A5832"/>
<path d="M9.84265 22.9688H17.5C18.1048 22.9688 18.5937 22.4788 18.5937 21.875V16.4084C18.5937 15.8047 18.1048 15.3147 17.5 15.3147H16.9531C16.9531 13.5056 15.4809 12.0334 13.6719 12.0334C11.8628 12.0334 10.3906 13.5056 10.3906 15.3147H9.84265C9.23781 15.3147 8.7489 15.8047 8.7489 16.4084V21.875C8.7489 22.4788 9.23781 22.9688 9.84265 22.9688ZM16.4062 20.7813H10.9364V17.5022H16.4062V20.7813ZM13.6719 14.2209C14.2756 14.2209 14.7656 14.712 14.7656 15.3147H12.5781C12.5781 14.712 13.0681 14.2209 13.6719 14.2209Z" fill="#1A5832"/>
<path d="M9.84045 27.3438H13.1206C13.7255 27.3438 14.2144 26.8537 14.2144 26.25C14.2144 25.6463 13.7255 25.1562 13.1206 25.1562H9.84045C9.23561 25.1562 8.7467 25.6463 8.7467 26.25C8.7467 26.8537 9.23561 27.3438 9.84045 27.3438Z" fill="#1A5832"/>
<path d="M18.5905 25.1562C18.5905 24.5525 18.1016 24.0625 17.4967 24.0625H16.403C16.3909 24.0625 16.3811 24.0691 16.3702 24.0691C16.298 24.0713 16.228 24.0953 16.1558 24.1128C16.0847 24.1303 16.0125 24.1391 15.948 24.1686C15.937 24.173 15.925 24.1719 15.9152 24.1773C15.8659 24.2014 15.8342 24.2441 15.7905 24.2747C15.7259 24.3195 15.6603 24.36 15.6067 24.418C15.5586 24.4705 15.5269 24.5317 15.4897 24.5919C15.4536 24.6509 15.4142 24.7056 15.3891 24.7713C15.3606 24.8456 15.353 24.9233 15.342 25.0031C15.3344 25.0545 15.3114 25.1016 15.3114 25.1552C15.3114 25.1672 15.318 25.177 15.318 25.188C15.3202 25.2602 15.3442 25.3302 15.3617 25.4034C15.3792 25.4745 15.3869 25.5467 15.4186 25.6113C15.423 25.6222 15.4219 25.6342 15.4273 25.6441L15.8244 26.4392C15.5236 26.6339 15.3114 26.9566 15.3114 27.3427C15.3114 27.9464 15.8003 28.4364 16.4052 28.4364H17.4989H17.5C17.6291 28.4364 17.757 28.4069 17.8839 28.3588C17.9058 28.3511 17.9255 28.3456 17.9462 28.3369C17.9605 28.3303 17.9747 28.3281 17.9889 28.3216C18.0381 28.2975 18.0698 28.2548 18.1136 28.2242C18.1781 28.1783 18.2437 28.1378 18.2973 28.0809C18.3455 28.0284 18.3772 27.9672 18.4133 27.907C18.4505 27.848 18.4898 27.7933 18.515 27.7266C18.5434 27.6522 18.5511 27.5745 18.562 27.4958C18.5697 27.4433 18.5927 27.3973 18.5927 27.3427C18.5927 27.3306 18.5861 27.3208 18.5861 27.3098C18.5839 27.2377 18.5598 27.1677 18.5423 27.0955C18.5248 27.0244 18.5172 26.9522 18.4855 26.8877C18.4811 26.8767 18.4822 26.8647 18.4767 26.8548L18.0797 26.0597C18.3794 25.865 18.5905 25.5423 18.5905 25.1562Z" fill="#1A5832"/>
<path d="M42.6552 8.75H26.25C25.6452 8.75 25.1562 9.24 25.1562 9.84375V30.6228C25.1562 31.2266 25.6452 31.7166 26.25 31.7166H42.6552C43.26 31.7166 43.7489 31.2266 43.7489 30.6228V9.84375C43.7489 9.24 43.26 8.75 42.6552 8.75ZM41.5614 29.5291H27.3438V10.9375H41.5614V29.5291Z" fill="#1A5832"/>
<path d="M30.6239 22.9688H38.2812C38.8861 22.9688 39.375 22.4788 39.375 21.875V16.4084C39.375 15.8047 38.8861 15.3147 38.2812 15.3147H37.7344C37.7344 13.5056 36.2622 12.0334 34.4531 12.0334C32.6441 12.0334 31.1719 13.5056 31.1719 15.3147H30.6239C30.0191 15.3147 29.5302 15.8047 29.5302 16.4084V21.875C29.5302 22.4788 30.0191 22.9688 30.6239 22.9688ZM37.1875 20.7813H31.7177V17.5022H37.1875V20.7813ZM34.4531 14.2209C35.0569 14.2209 35.5469 14.712 35.5469 15.3147H33.3594C33.3594 14.712 33.8494 14.2209 34.4531 14.2209Z" fill="#1A5832"/>
<path d="M30.6217 27.3438H33.9019C34.5067 27.3438 34.9956 26.8537 34.9956 26.25C34.9956 25.6463 34.5067 25.1562 33.9019 25.1562H30.6217C30.0169 25.1562 29.528 25.6463 29.528 26.25C29.528 26.8537 30.0169 27.3438 30.6217 27.3438Z" fill="#1A5832"/>
<path d="M39.3717 25.1562C39.3717 24.5525 38.8828 24.0625 38.278 24.0625H37.1842C37.1722 24.0625 37.1623 24.0691 37.1514 24.0691C37.0792 24.0713 37.0081 24.0953 36.9359 24.1128C36.8659 24.1303 36.7927 24.1391 36.7292 24.1686C36.7183 24.173 36.7062 24.1719 36.6964 24.1773C36.6472 24.2014 36.6155 24.2441 36.5717 24.2747C36.5072 24.3195 36.4416 24.36 36.388 24.418C36.3398 24.4705 36.3081 24.5317 36.2709 24.5919C36.2348 24.6509 36.1955 24.7056 36.1703 24.7713C36.1419 24.8456 36.1342 24.9233 36.1233 25.0031C36.1156 25.0545 36.0927 25.1016 36.0927 25.1552C36.0927 25.1672 36.0992 25.177 36.0992 25.188C36.1014 25.2602 36.1255 25.3302 36.143 25.4034C36.1605 25.4745 36.1681 25.5467 36.1998 25.6113C36.2042 25.6222 36.2031 25.6342 36.2086 25.6441L36.6056 26.4392C36.3048 26.6339 36.0927 26.9566 36.0927 27.3427C36.0927 27.9464 36.5816 28.4364 37.1864 28.4364H38.2802C38.4092 28.4364 38.5383 28.4069 38.6652 28.3588C38.687 28.3511 38.7067 28.3456 38.7275 28.3369C38.7417 28.3303 38.7559 28.3281 38.7701 28.3216C38.8194 28.2975 38.8511 28.2548 38.8948 28.2242C38.9594 28.1783 39.025 28.1378 39.0786 28.0809C39.1267 28.0284 39.1584 27.9672 39.1945 27.907C39.2317 27.848 39.2711 27.7933 39.2962 27.7266C39.3247 27.6522 39.3323 27.5745 39.3433 27.4958C39.3509 27.4433 39.3739 27.3973 39.3739 27.3427C39.3739 27.3306 39.3673 27.3208 39.3673 27.3098C39.3652 27.2377 39.3411 27.1677 39.3236 27.0955C39.3061 27.0244 39.2984 26.9522 39.2667 26.8877C39.2623 26.8767 39.2634 26.8647 39.258 26.8548L38.8609 26.0597C39.1606 25.865 39.3717 25.5423 39.3717 25.1562Z" fill="#1A5832"/>
<path d="M21.8739 33.9062H5.46875C4.86391 33.9062 4.375 34.3952 4.375 35V55.7791C4.375 56.3839 4.86391 56.8728 5.46875 56.8728H21.8739C22.4788 56.8728 22.9677 56.3839 22.9677 55.7791V35C22.9677 34.3952 22.4788 33.9062 21.8739 33.9062ZM20.7802 54.6853H6.5625V36.0938H20.7802V54.6853Z" fill="#1A5832"/>
<path d="M9.84265 48.125H17.5C18.1048 48.125 18.5937 47.6361 18.5937 47.0313V41.5636C18.5937 40.9588 18.1048 40.4699 17.5 40.4699H16.9531C16.952 38.6608 15.4809 37.1897 13.6719 37.1897C11.8628 37.1897 10.3917 38.6608 10.3906 40.4699H9.84265C9.23781 40.4699 8.7489 40.9588 8.7489 41.5636V47.0313C8.7489 47.6361 9.23781 48.125 9.84265 48.125ZM16.4062 45.9375H10.9364V42.6574H16.4062V45.9375ZM13.6719 39.3772C14.2756 39.3772 14.7645 39.8661 14.7656 40.4699H12.5781C12.5792 39.8661 13.0681 39.3772 13.6719 39.3772Z" fill="#1A5832"/>
<path d="M9.84045 52.5H13.1206C13.7255 52.5 14.2144 52.0111 14.2144 51.4062C14.2144 50.8014 13.7255 50.3125 13.1206 50.3125H9.84045C9.23561 50.3125 8.7467 50.8014 8.7467 51.4062C8.7467 52.0111 9.23561 52.5 9.84045 52.5Z" fill="#1A5832"/>
<path d="M18.5905 50.3125C18.5905 49.7077 18.1016 49.2188 17.4967 49.2188H16.403C16.3898 49.2188 16.38 49.2253 16.368 49.2264C16.2991 49.2286 16.2323 49.2516 16.1634 49.2669C16.0891 49.2844 16.0136 49.2931 15.9458 49.3259C15.9359 49.3303 15.9239 49.3292 15.9141 49.3347C15.8648 49.3587 15.8342 49.4014 15.7916 49.4309C15.7248 49.4769 15.6592 49.5173 15.6056 49.5764C15.5575 49.6278 15.5269 49.6891 15.4897 49.7481C15.4536 49.8083 15.4131 49.8619 15.388 49.9286C15.3595 50.003 15.353 50.0817 15.3409 50.1605C15.3333 50.213 15.3103 50.2589 15.3103 50.3136C15.3103 50.3256 15.3169 50.3355 15.3169 50.3464C15.3191 50.4186 15.3431 50.4886 15.3606 50.5608C15.3781 50.6319 15.3858 50.7041 15.4175 50.7686C15.4219 50.7795 15.4208 50.7916 15.4262 50.8014L15.8233 51.5966C15.5225 51.7912 15.3103 52.115 15.3103 52.5C15.3103 53.1048 15.7992 53.5938 16.4041 53.5938H17.4978C17.5 53.5938 17.5033 53.5927 17.5055 53.5927C17.6673 53.5916 17.8183 53.55 17.9572 53.4855C17.967 53.48 17.978 53.4822 17.9867 53.4778C18.0359 53.4537 18.0666 53.4111 18.1103 53.3816C18.1759 53.3356 18.2416 53.2952 18.2951 53.2361C18.3433 53.1847 18.3739 53.1234 18.4111 53.0644C18.4472 53.0042 18.4876 52.9506 18.5139 52.8828C18.5412 52.8095 18.5489 52.7308 18.5598 52.652C18.5675 52.5995 18.5905 52.5536 18.5905 52.4989C18.5905 52.4869 18.5839 52.477 18.5839 52.4661C18.5817 52.3939 18.5576 52.3239 18.5401 52.2528C18.5226 52.1817 18.515 52.1084 18.4833 52.0428C18.4789 52.033 18.48 52.0209 18.4745 52.0111L18.0775 51.2159C18.3794 51.0213 18.5905 50.6986 18.5905 50.3125Z" fill="#1A5832"/>
<path d="M42.6552 33.9062H26.25C25.6452 33.9062 25.1562 34.3952 25.1562 35V55.7791C25.1562 56.3839 25.6452 56.8728 26.25 56.8728H42.6552C43.26 56.8728 43.7489 56.3839 43.7489 55.7791V35C43.7489 34.3952 43.26 33.9062 42.6552 33.9062ZM41.5614 54.6853H27.3438V36.0938H41.5614V54.6853Z" fill="#1A5832"/>
<path d="M30.6239 48.125H38.2812C38.8861 48.125 39.375 47.6361 39.375 47.0313V41.5636C39.375 40.9588 38.8861 40.4699 38.2812 40.4699H37.7344C37.7333 38.6608 36.2622 37.1897 34.4531 37.1897C32.6441 37.1897 31.173 38.6608 31.1719 40.4699H30.6239C30.0191 40.4699 29.5302 40.9588 29.5302 41.5636V47.0313C29.5302 47.6361 30.0191 48.125 30.6239 48.125ZM37.1875 45.9375H31.7177V42.6574H37.1875V45.9375ZM34.4531 39.3772C35.0569 39.3772 35.5458 39.8661 35.5469 40.4699H33.3594C33.3605 39.8661 33.8494 39.3772 34.4531 39.3772Z" fill="#1A5832"/>
<path d="M30.6217 52.5H33.9019C34.5067 52.5 34.9956 52.0111 34.9956 51.4062C34.9956 50.8014 34.5067 50.3125 33.9019 50.3125H30.6217C30.0169 50.3125 29.528 50.8014 29.528 51.4062C29.528 52.0111 30.0169 52.5 30.6217 52.5Z" fill="#1A5832"/>
<path d="M39.3717 50.3125C39.3717 49.7077 38.8828 49.2188 38.278 49.2188H37.1842C37.1711 49.2188 37.1612 49.2253 37.1492 49.2264C37.0803 49.2286 37.0136 49.2516 36.9436 49.2669C36.8703 49.2844 36.7948 49.2931 36.727 49.3259C36.7172 49.3303 36.7051 49.3292 36.6953 49.3347C36.6461 49.3587 36.6155 49.4014 36.5728 49.4309C36.5061 49.4769 36.4405 49.5173 36.3869 49.5764C36.3387 49.6278 36.3081 49.6891 36.2709 49.7481C36.2348 49.8083 36.1944 49.8619 36.1692 49.9286C36.1408 50.003 36.1342 50.0817 36.1222 50.1605C36.1145 50.213 36.0916 50.2589 36.0916 50.3136C36.0916 50.3256 36.0981 50.3355 36.0981 50.3464C36.1003 50.4186 36.1244 50.4886 36.1419 50.5608C36.1594 50.6319 36.167 50.7041 36.1987 50.7686C36.2031 50.7795 36.202 50.7916 36.2075 50.8014L36.6045 51.5966C36.3037 51.7912 36.0916 52.115 36.0916 52.5C36.0916 53.1048 36.5805 53.5938 37.1853 53.5938H38.2791C38.2812 53.5938 38.2845 53.5927 38.2867 53.5927C38.4486 53.5916 38.5995 53.55 38.7384 53.4855C38.7483 53.48 38.7592 53.4822 38.768 53.4778C38.8172 53.4537 38.8478 53.4111 38.8916 53.3816C38.9572 53.3356 39.0228 53.2952 39.0764 53.2361C39.1245 53.1847 39.1551 53.1234 39.1923 53.0644C39.2284 53.0042 39.2689 52.9506 39.2951 52.8828C39.3225 52.8095 39.3301 52.7308 39.3411 52.652C39.3487 52.5995 39.3717 52.5536 39.3717 52.4989C39.3717 52.4869 39.3651 52.477 39.3651 52.4661C39.363 52.3939 39.3389 52.3239 39.3214 52.2528C39.3039 52.1817 39.2962 52.1084 39.2645 52.0428C39.2601 52.033 39.2612 52.0209 39.2558 52.0111L38.8587 51.2159C39.1606 51.0213 39.3717 50.6986 39.3717 50.3125Z" fill="#1A5832"/>
<path d="M64.5302 8.75H47.0312C46.4264 8.75 45.9375 9.24 45.9375 9.84375V55.7802C45.9375 56.385 46.4264 56.8739 47.0312 56.8739H64.5302C65.135 56.8739 65.6239 56.385 65.6239 55.7802V9.84375C65.6239 9.24 65.135 8.75 64.5302 8.75ZM63.4364 54.6864H48.125V10.9375H63.4364V54.6864Z" fill="#1A5832"/>
<path d="M51.4435 26.2566H51.4314C50.8277 26.2566 50.3442 26.7466 50.3442 27.3503C50.3442 27.9541 50.8386 28.4441 51.4435 28.4441C52.0472 28.4441 52.5372 27.9541 52.5372 27.3503C52.5372 26.7466 52.0472 26.2566 51.4435 26.2566Z" fill="#1A5832"/>
<path d="M60.1541 26.2566H54.6919C54.0871 26.2566 53.5981 26.7466 53.5981 27.3503C53.5981 27.9541 54.0871 28.4441 54.6919 28.4441H60.1541C60.7589 28.4441 61.2478 27.9541 61.2478 27.3503C61.2478 26.7466 60.7589 26.2566 60.1541 26.2566Z" fill="#1A5832"/>
<path d="M51.4435 22.9742H51.4314C50.8277 22.9742 50.3442 23.4642 50.3442 24.068C50.3442 24.6717 50.8386 25.1617 51.4435 25.1617C52.0472 25.1617 52.5372 24.6717 52.5372 24.068C52.5372 23.4642 52.0472 22.9742 51.4435 22.9742Z" fill="#1A5832"/>
<path d="M60.1541 22.9742H54.6919C54.0871 22.9742 53.5981 23.4642 53.5981 24.068C53.5981 24.6717 54.0871 25.1617 54.6919 25.1617H60.1541C60.7589 25.1617 61.2478 24.6717 61.2478 24.068C61.2478 23.4642 60.7589 22.9742 60.1541 22.9742Z" fill="#1A5832"/>
<path d="M51.4062 15.3147H60.1541C60.7589 15.3147 61.2478 14.8247 61.2478 14.2209C61.2478 13.6172 60.7589 13.1272 60.1541 13.1272H51.4062C50.8014 13.1272 50.3125 13.6172 50.3125 14.2209C50.3125 14.8247 50.8014 15.3147 51.4062 15.3147Z" fill="#1A5832"/>
<path d="M53.5927 18.5981H57.9677C58.5725 18.5981 59.0614 18.1081 59.0614 17.5044C59.0614 16.9006 58.5725 16.4106 57.9677 16.4106H53.5927C52.9878 16.4106 52.4989 16.9006 52.4989 17.5044C52.4989 18.1081 52.9878 18.5981 53.5927 18.5981Z" fill="#1A5832"/>
<path d="M51.4435 32.8201H51.4314C50.8277 32.8201 50.3442 33.309 50.3442 33.9139C50.3442 34.5187 50.8386 35.0076 51.4435 35.0076C52.0472 35.0076 52.5372 34.5187 52.5372 33.9139C52.5372 33.309 52.0472 32.8201 51.4435 32.8201Z" fill="#1A5832"/>
<path d="M60.1541 32.8201H54.6919C54.0871 32.8201 53.5981 33.309 53.5981 33.9139C53.5981 34.5187 54.0871 35.0076 54.6919 35.0076H60.1541C60.7589 35.0076 61.2478 34.5187 61.2478 33.9139C61.2478 33.309 60.7589 32.8201 60.1541 32.8201Z" fill="#1A5832"/>
<path d="M51.4435 29.5356H51.4314C50.8277 29.5356 50.3442 30.0256 50.3442 30.6294C50.3442 31.2331 50.8386 31.7231 51.4435 31.7231C52.0472 31.7231 52.5372 31.2331 52.5372 30.6294C52.5372 30.0256 52.0472 29.5356 51.4435 29.5356Z" fill="#1A5832"/>
<path d="M60.1541 29.5356H54.6919C54.0871 29.5356 53.5981 30.0256 53.5981 30.6294C53.5981 31.2331 54.0871 31.7231 54.6919 31.7231H60.1541C60.7589 31.7231 61.2478 31.2331 61.2478 30.6294C61.2478 30.0256 60.7589 29.5356 60.1541 29.5356Z" fill="#1A5832"/>
<path d="M51.4435 39.3848H51.4314C50.8277 39.3848 50.3442 39.8737 50.3442 40.4786C50.3442 41.0834 50.8386 41.5723 51.4435 41.5723C52.0472 41.5723 52.5372 41.0834 52.5372 40.4786C52.5372 39.8737 52.0472 39.3848 51.4435 39.3848Z" fill="#1A5832"/>
<path d="M60.1541 39.3848H54.6919C54.0871 39.3848 53.5981 39.8737 53.5981 40.4786C53.5981 41.0834 54.0871 41.5723 54.6919 41.5723H60.1541C60.7589 41.5723 61.2478 41.0834 61.2478 40.4786C61.2478 39.8737 60.7589 39.3848 60.1541 39.3848Z" fill="#1A5832"/>
<path d="M51.4435 36.1014H51.4314C50.8277 36.1014 50.3442 36.5903 50.3442 37.1951C50.3442 37.8 50.8386 38.2889 51.4435 38.2889C52.0472 38.2889 52.5372 37.8 52.5372 37.1951C52.5372 36.5903 52.0472 36.1014 51.4435 36.1014Z" fill="#1A5832"/>
<path d="M60.1541 36.1014H54.6919C54.0871 36.1014 53.5981 36.5903 53.5981 37.1951C53.5981 37.8 54.0871 38.2889 54.6919 38.2889H60.1541C60.7589 38.2889 61.2478 37.8 61.2478 37.1951C61.2478 36.5903 60.7589 36.1014 60.1541 36.1014Z" fill="#1A5832"/>
<path d="M53.0458 52.4989H58.5167C60.025 52.4989 61.2511 51.2728 61.2511 49.7645C61.2511 48.2562 60.025 47.0302 58.5167 47.0302H53.0458C51.5375 47.0302 50.3114 48.2562 50.3114 49.7645C50.3114 51.2728 51.5375 52.4989 53.0458 52.4989ZM58.5167 49.2177C58.8175 49.2177 59.0636 49.4637 59.0636 49.7645C59.0636 50.0653 58.8175 50.3114 58.5167 50.3114H53.0458C52.745 50.3114 52.4989 50.0653 52.4989 49.7645C52.4989 49.4637 52.745 49.2177 53.0458 49.2177H58.5167Z" fill="#1A5832"/>
</svg>
