<svg width="70" height="80" viewBox="0 0 70 80" fill="none" xmlns="http://www.w3.org/2000/svg">
<path fill-rule="evenodd" clip-rule="evenodd" d="M8.71741 17.1834H50.1944V19.0476H8.71741V17.1834ZM8.71741 22.1601H50.1944V24.0162H8.71741V22.1601ZM8.71741 27.1287H50.1944V28.9848H8.71741V27.1287ZM8.71741 32.0973H50.1944V33.9615H8.71741V32.0973ZM8.71741 37.074H47.0496C46.6911 37.6494 46.463 38.2817 46.3571 38.9301H8.71741V37.074ZM8.71741 42.0426H45.4935C44.915 42.5451 44.4425 43.1773 44.1329 43.8987H8.71741V42.0426ZM8.71741 47.0111H35.8229V48.8673H8.71741V47.0111ZM8.71741 61.925H29.46V63.7812H8.71741V61.925ZM0 0H58.9118V32.2675C58.4881 32.154 58.0482 32.0973 57.5919 32.0973C56.9646 32.0973 56.3699 32.2026 55.8159 32.4134V3.08004H3.0959V76.92H55.8159V69.1064L57.4127 67.307L58.9118 68.9119V80H0V0ZM57.5919 33.54C59.588 33.54 61.2093 35.1368 61.2419 37.1145C62.6676 35.7366 64.9488 35.7528 66.3582 37.155C67.7758 38.5572 67.784 40.8267 66.399 42.2533C68.395 42.2857 70 43.8987 70 45.8845C70 47.8703 68.395 49.4833 66.399 49.5157C67.784 50.9341 67.7758 53.2037 66.3582 54.614C64.9488 56.0162 62.6676 56.0324 61.2419 54.6545C61.2093 56.6322 59.588 58.229 57.5919 58.229C55.5959 58.229 53.9665 56.6322 53.942 54.6545C52.5081 56.0324 50.227 56.0162 48.8175 54.614C47.4081 53.2037 47.3918 50.9341 48.7768 49.5157C46.7889 49.4833 45.1839 47.8703 45.1839 45.8845C45.1839 43.8987 46.7889 42.2857 48.7768 42.2533C47.3918 40.8267 47.4081 38.5572 48.8175 37.155C50.227 35.7528 52.5081 35.7366 53.942 37.1145C53.9665 35.1368 55.5959 33.54 57.5919 33.54ZM62.4965 57.1185V70.922L57.3964 65.4509L52.5244 70.922V57.151C52.6629 57.1266 52.8014 57.0861 52.9399 57.0456C53.828 58.6991 55.5796 59.8257 57.5919 59.8257C59.6043 59.8257 61.3559 58.6991 62.2358 57.0456C62.3254 57.0699 62.4069 57.0942 62.4965 57.1185ZM57.5919 37.8764C62.0321 37.8764 65.6413 41.459 65.6413 45.8845C65.6413 50.3019 62.0321 53.8926 57.5919 53.8926C53.1436 53.8926 49.5426 50.3019 49.5426 45.8845C49.5426 41.459 53.1436 37.8764 57.5919 37.8764ZM27.1788 6.31408H31.733C32.5966 6.31408 33.3054 7.01925 33.3054 7.87842V12.4093C33.3054 13.2685 32.5966 13.9737 31.733 13.9737H27.1788C26.3152 13.9737 25.6064 13.2685 25.6064 12.4093V7.87842C25.6064 7.01925 26.3152 6.31408 27.1788 6.31408Z" fill="#1A5832"/>
</svg>
