<svg width="70" height="81" viewBox="0 0 70 81" fill="none" xmlns="http://www.w3.org/2000/svg">
<path d="M54.8906 52.1279L45.6111 51.296V45.6119C47.9703 44.2255 49.8577 42.4232 51.2732 40.205H59.2944C62.7546 40.205 65.5856 37.7095 65.5856 34.6595V30.0844C65.5856 28.4208 64.7992 27.0344 63.541 26.0639C63.6983 21.6275 63.0691 14.0024 57.5644 8.041C52.5314 2.63412 45.1393 0 35.2306 0C25.322 0 17.9299 2.63412 12.8969 8.041C7.39214 14.0024 6.76303 21.6275 6.92031 26.0639C5.66207 27.0344 4.87567 28.5594 4.87567 30.0844V34.6595C4.87567 37.7095 7.70671 40.205 11.1669 40.205H11.6387V40.3436C11.6387 44.6414 15.5707 48.1074 20.4464 48.1074H24.6929V51.296L15.4134 52.2665C6.60575 53.0983 0 59.6143 0 67.5167V79.0236C0 79.8555 0.629119 80.41 1.5728 80.41H68.4167C69.3603 80.41 69.9895 79.8555 69.9895 79.0236V67.378C70.304 59.6143 63.541 53.0983 54.8906 52.1279ZM41.05 44.6414C40.2636 43.5323 39.0054 42.8391 37.4326 42.8391H33.186C31.6132 42.8391 30.355 43.5323 29.5686 44.6414C23.9065 42.5618 19.9745 37.5709 19.9745 32.164V29.6685C26.2657 28.2821 31.4559 24.9548 34.287 22.8753C33.9724 24.9548 32.3996 27.3117 31.6132 28.1435C31.2987 28.5594 31.1414 29.114 31.4559 29.6685C31.7705 30.0844 32.2423 30.3617 32.8715 30.3617C37.7471 30.2231 42.3082 29.2526 46.2402 27.4503C47.4985 28.4208 48.914 29.114 50.6441 29.5299V32.0254C50.4868 37.7095 46.7121 42.5618 41.05 44.6414ZM38.5335 46.721C38.5335 47.2755 38.0617 47.6915 37.4326 47.6915H33.186C32.5569 47.6915 32.0851 47.2755 32.0851 46.5823C32.0851 46.0278 32.5569 45.6119 33.186 45.6119H37.4326C38.0617 45.6119 38.5335 46.1664 38.5335 46.721ZM47.6557 24.8162C47.3412 24.5389 46.8693 24.4003 46.5548 24.4003C46.2402 24.4003 46.0829 24.4003 45.7684 24.5389C42.9374 26.0639 39.4772 27.0344 35.8598 27.3117C37.118 25.0935 38.3762 21.9048 36.6462 19.4093C36.3316 18.9934 36.017 18.7161 35.5452 18.7161C35.0734 18.7161 34.6015 18.8548 34.287 19.132C34.1297 19.2707 25.6366 26.8958 15.2561 27.4503C14.9416 24.6776 14.4697 17.3297 19.1881 12.3388C22.6483 8.73419 27.9958 6.9319 35.3879 6.9319C42.7801 6.9319 48.1276 8.73419 51.5877 12.3388C56.3061 17.3297 55.9916 24.6776 55.5197 27.4503C51.9023 27.4503 49.3858 26.4798 47.6557 24.8162ZM62.2828 34.6595C62.2828 36.1845 60.8672 37.4322 59.1372 37.4322H52.5314C53.1605 35.7686 53.6324 33.9663 53.6324 32.164V30.2231C54.576 30.3617 55.5197 30.3617 56.6207 30.3617C57.4071 30.3617 58.0362 29.9458 58.1935 29.2526C58.1935 29.114 58.3508 28.4208 58.508 27.3117H59.1372C60.8672 27.3117 62.2828 28.5594 62.2828 30.0844V34.6595ZM15.4134 9.84329C19.66 5.1296 26.423 2.77276 35.2306 2.77276C44.0383 2.77276 50.8013 5.1296 55.0479 9.84329C59.4517 14.557 60.2381 20.5184 60.2381 24.6776C59.9236 24.6776 59.4517 24.5389 59.1372 24.5389H58.6653C58.6653 20.6571 57.8789 15.1115 53.7896 10.6751C49.8577 6.37735 43.5665 4.29778 35.2306 4.29778C26.8948 4.29778 20.6036 6.51598 16.6716 10.8138C12.5824 15.1115 11.796 20.6571 11.796 24.6776H11.3241C10.8523 24.6776 10.5377 24.6776 10.2232 24.8162C10.0659 20.5184 11.0096 14.4183 15.4134 9.84329ZM8.17854 34.6595V30.0844C8.17854 28.5594 9.59406 27.3117 11.3241 27.3117H11.9533C12.1105 28.4208 12.2678 29.2526 12.2678 29.2526C12.4251 29.9458 13.0542 30.3617 13.8406 30.3617C14.7843 30.3617 15.8852 30.2231 16.8289 30.2231V32.164C16.8289 33.9663 17.1435 35.7686 17.9299 37.4322H11.3241C9.59406 37.4322 8.17854 36.1845 8.17854 34.6595ZM14.9416 40.3436V40.205H19.3454C20.6036 42.1459 22.3337 43.9482 24.5356 45.3346H20.6036C17.458 45.3346 14.9416 43.1164 14.9416 40.3436ZM29.0967 48.1074C29.7259 49.4937 31.2987 50.6028 33.0287 50.6028H37.2753C39.3199 50.6028 41.05 49.2165 41.5218 47.4142C41.8364 47.2755 42.151 47.2755 42.4655 47.1369V54.762C40.7354 55.5938 38.0617 56.1484 35.2306 56.1484C32.3996 56.1484 29.7259 55.5938 27.9958 54.762V48.1074H29.0967ZM67.1584 77.6372H54.8906V72.0917C54.8906 71.2599 54.2615 70.7053 53.3178 70.7053C52.3741 70.7053 51.745 71.2599 51.745 72.0917V77.6372H18.7163V72.0917C18.7163 71.2599 18.0872 70.7053 17.1435 70.7053C16.1998 70.7053 15.5707 71.2599 15.5707 72.0917V77.6372H3.30287V67.378C3.30287 61.0007 8.80766 55.5938 15.8852 54.9006L24.6929 54.0688V55.5938C24.6929 56.0097 25.0075 56.4256 25.322 56.7029C27.6812 58.0893 31.1414 58.9211 35.0734 58.9211C38.8481 58.9211 42.4655 58.0893 44.8247 56.7029C45.2965 56.4256 45.4538 56.0097 45.4538 55.5938V54.0688L54.2615 54.9006C61.4964 55.5938 66.8439 61.0007 66.8439 67.378V77.6372H67.1584Z" fill="#1A5832"/>
<path d="M25.1647 30.5004C24.5356 30.9163 24.3783 31.8867 24.8502 32.4413C25.1647 32.7186 25.6366 32.9958 26.1084 32.9958C26.423 32.9958 26.7375 32.8572 27.0521 32.7186C27.0521 32.7186 27.8385 32.164 28.6249 32.7186C29.254 33.1345 30.355 33.1345 30.8268 32.4413C31.2987 31.8867 31.2987 30.9163 30.6695 30.5004C28.4676 28.9753 26.1084 29.9458 25.1647 30.5004Z" fill="#1A5832"/>
<path d="M39.7918 30.5004C39.1626 30.9163 39.0054 31.8867 39.4772 32.4413C39.949 32.9958 41.05 33.1345 41.6791 32.7186C42.3082 32.3027 42.9373 32.5799 43.2519 32.7186C43.5665 32.8572 43.881 32.9958 44.1956 32.9958C44.6674 32.9958 45.1393 32.8572 45.4538 32.4413C45.9257 31.8867 45.9257 30.9163 45.1393 30.5004C44.3529 29.9458 41.9937 28.9753 39.7918 30.5004Z" fill="#1A5832"/>
</svg>
