<svg width="70" height="60" viewBox="0 0 70 60" fill="none" xmlns="http://www.w3.org/2000/svg">
<path d="M69.9931 29.7247C70.0264 29.255 69.9387 28.7842 69.7448 28.3923L62.3892 13.5361C62.2517 13.2432 62.0614 13.0026 61.8362 12.8371C61.6109 12.6715 61.3582 12.5863 61.102 12.5897H54.3624L55.0704 2.24152C55.091 1.95706 55.0673 1.66992 55.0008 1.39867C54.9343 1.12742 54.8265 0.878089 54.6843 0.666814C54.5422 0.45554 54.3689 0.287023 54.1757 0.172164C53.9824 0.0573041 53.7735 -0.00134054 53.5625 2.32514e-05H4.20648C3.80534 2.32514e-05 3.42063 0.215844 3.13698 0.600008C2.85334 0.984172 2.69399 1.50521 2.69399 2.0485C2.69399 2.59179 2.85334 3.11283 3.13698 3.49699C3.42063 3.88115 3.80534 4.09697 4.20648 4.09697H7.81991L7.49811 8.85392H1.51249C1.11136 8.85392 0.726646 9.06974 0.442999 9.4539C0.159351 9.83806 0 10.3591 0 10.9024C0 11.4457 0.159351 11.9667 0.442999 12.3509C0.726646 12.735 1.11136 12.9509 1.51249 12.9509H7.21308L6.93724 17.0354H5.94424C5.5431 17.0354 5.15839 17.2512 4.87474 17.6354C4.5911 18.0195 4.43174 18.5406 4.43174 19.0838C4.43174 19.6271 4.5911 20.1482 4.87474 20.5323C5.15839 20.9165 5.5431 21.1323 5.94424 21.1323H6.65221L5.07076 44.1948C5.05017 44.4792 5.07389 44.7664 5.1404 45.0376C5.2069 45.3089 5.3147 45.5582 5.45683 45.7695C5.59896 45.9808 5.77225 46.1493 5.96549 46.2641C6.15874 46.379 6.36763 46.4376 6.57866 46.4363H67.4646C67.851 46.4541 68.2278 46.2702 68.5169 45.9226C68.8061 45.575 68.9857 45.0902 69.0184 44.5684L69.7356 34.0832L69.9931 29.7247ZM66.9313 30.0236L66.8118 31.7794H53.02L54.059 16.6742H60.2745L66.9313 30.0236ZM9.68639 21.1323H22.3288C22.73 21.1323 23.1147 20.9165 23.3983 20.5323C23.682 20.1482 23.8413 19.6271 23.8413 19.0838C23.8413 18.5406 23.682 18.0195 23.3983 17.6354C23.1147 17.2512 22.73 17.0354 22.3288 17.0354H9.97143L10.2473 12.9509H17.8971C18.2982 12.9509 18.6829 12.735 18.9666 12.3509C19.2502 11.9667 19.4096 11.4457 19.4096 10.9024C19.4096 10.3591 19.2502 9.83806 18.9666 9.4539C18.6829 9.06974 18.2982 8.85392 17.8971 8.85392H10.5415L10.8633 4.12188H51.9075L49.2871 42.3393H8.23367L9.68639 21.1323ZM52.3212 42.302L52.7626 35.8888H66.5543L66.113 42.302H52.3212Z" fill="#1A5832"/>
<path d="M50.2157 47.171C48.9435 47.2732 47.7185 47.8605 46.6821 48.8653C45.6458 49.8701 44.8404 51.2512 44.3588 52.8494C44.095 53.6651 43.983 54.5561 44.0327 55.4441C44.0824 56.3321 44.2923 57.19 44.6439 57.9426C44.9969 58.6021 45.464 59.1343 46.0042 59.4925C46.5444 59.8508 47.1413 60.0241 47.7424 59.9973C49.0147 59.8951 50.2397 59.3077 51.276 58.303C52.3123 57.2982 53.1177 55.917 53.5993 54.3188C53.8631 53.5031 53.9751 52.6122 53.9254 51.7241C53.8757 50.8361 53.6659 49.9782 53.3143 49.2257C52.9612 48.5661 52.4941 48.0339 51.9539 47.6757C51.4137 47.3175 50.8169 47.1442 50.2157 47.171ZM50.7766 52.8494C50.522 53.6822 50.1053 54.4058 49.571 54.943C49.0366 55.4803 48.4046 55.8112 47.7424 55.9003C47.6045 55.9003 47.2643 55.9003 47.1356 55.6139C47.0772 55.4139 47.0511 55.1993 47.059 54.9845C47.0669 54.7698 47.1087 54.5598 47.1815 54.3687C47.4362 53.5359 47.8528 52.8123 48.3872 52.275C48.9215 51.7377 49.5535 51.4069 50.2157 51.3177C50.3536 51.3177 50.6938 51.3177 50.8226 51.6041C50.8824 51.8033 50.91 52.0174 50.9037 52.2322C50.8973 52.4469 50.8571 52.6574 50.7858 52.8494H50.7766Z" fill="#1A5832"/>
<path d="M17.6212 47.171C16.349 47.2732 15.124 47.8606 14.0877 48.8653C13.0513 49.8701 12.2459 51.2513 11.7644 52.8495C11.4951 53.6612 11.3769 54.55 11.4202 55.4379C11.4635 56.3259 11.6669 57.1859 12.0126 57.9426C12.3656 58.6022 12.8327 59.1344 13.3729 59.4926C13.9132 59.8508 14.51 60.0241 15.1111 59.9973C16.3834 59.8951 17.6084 59.3078 18.6447 58.303C19.6811 57.2982 20.4865 55.9171 20.968 54.3189C21.2319 53.5031 21.3438 52.6122 21.2941 51.7242C21.2444 50.8362 21.0346 49.9783 20.683 49.2257C20.3335 48.5732 19.8723 48.0454 19.339 47.6875C18.8057 47.3296 18.2163 47.1524 17.6212 47.171ZM18.1821 52.8495C17.9275 53.6822 17.5108 54.4058 16.9765 54.9431C16.4421 55.4804 15.8102 55.8112 15.1479 55.9004C15.01 55.9004 14.6698 55.9004 14.5411 55.614C14.4827 55.414 14.4566 55.1994 14.4645 54.9846C14.4724 54.7698 14.5142 54.5598 14.5871 54.3687C14.8417 53.5359 15.2584 52.8123 15.7927 52.2751C16.327 51.7378 16.959 51.4069 17.6212 51.3178C17.7592 51.3178 18.0994 51.3178 18.2281 51.6042C18.2865 51.8042 18.3126 52.0188 18.3047 52.2336C18.2967 52.4483 18.2549 52.6584 18.1821 52.8495Z" fill="#1A5832"/>
</svg>
