<svg width="56" height="50" viewBox="0 0 56 50" fill="none" xmlns="http://www.w3.org/2000/svg">
<path d="M12.4892 3.91819H1.95909C0.877674 3.91819 0 3.04051 0 1.95909C0 0.877674 0.877674 0 1.95909 0H12.4892C13.5706 0 14.4483 0.877674 14.4483 1.95909C14.4483 3.04051 13.5706 3.91819 12.4892 3.91819Z" fill="#787878"/>
<path d="M12.4892 38.6921C11.4078 38.6921 10.5302 37.8144 10.5302 36.733V1.95909C10.5302 0.877674 11.4078 0 12.4892 0C13.5707 0 14.4483 0.877674 14.4483 1.95909V36.733C14.4483 37.8144 13.5707 38.6921 12.4892 38.6921Z" fill="#787878"/>
<path d="M53.6302 38.6921H12.4892C11.4078 38.6921 10.5302 37.8144 10.5302 36.733C10.5302 35.6516 11.4078 34.7739 12.4892 34.7739H53.6302C54.7116 34.7739 55.5893 35.6516 55.5893 36.733C55.5893 37.8144 54.7116 38.6921 53.6302 38.6921Z" fill="#787878"/>
<path d="M20.3256 50C17.0333 50 14.3542 47.3993 14.3542 44.2011C14.3542 41.0038 17.0333 38.4031 20.3256 38.4031C23.6178 38.4031 26.2969 41.0038 26.2969 44.2011C26.2969 47.3993 23.6178 50 20.3256 50ZM20.3256 42.3223C19.1932 42.3223 18.2724 43.1647 18.2724 44.2021C18.2724 45.2394 19.1932 46.0828 20.3256 46.0828C21.4579 46.0828 22.3787 45.2394 22.3787 44.2021C22.3787 43.1647 21.4579 42.3223 20.3256 42.3223Z" fill="#787878"/>
<path d="M45.0592 49.5102C41.767 49.5102 39.0879 46.9095 39.0879 43.7113C39.0879 40.5141 41.766 37.9134 45.0592 37.9134C48.3524 37.9134 51.0305 40.5141 51.0305 43.7113C51.0305 46.9095 48.3515 49.5102 45.0592 49.5102ZM45.0592 41.8325C43.9278 41.8325 43.0061 42.6749 43.0061 43.7123C43.0061 44.7496 43.9269 45.593 45.0592 45.593C46.1916 45.593 47.1123 44.7496 47.1123 43.7123C47.1123 42.6749 46.1906 41.8325 45.0592 41.8325Z" fill="#787878"/>
<path d="M47.9978 31.1006C47.9929 31.1006 47.989 31.1006 47.9841 31.1006L12.7204 30.8557C11.6439 30.8479 10.775 29.9741 10.775 28.8966V9.55058C10.775 8.46916 11.6527 7.59149 12.7341 7.59149H52.6507C53.2492 7.59149 53.8153 7.86576 54.1876 8.33594C54.5588 8.80613 54.695 9.4203 54.5569 10.0031L49.904 29.5941C49.6934 30.4776 48.9049 31.1006 47.9978 31.1006ZM14.6932 26.9503L46.4521 27.1717L50.1724 11.5097H14.6932V26.9503Z" fill="#787878"/>
</svg>
