<svg width="30" height="30" viewBox="0 0 30 30" fill="none" xmlns="http://www.w3.org/2000/svg">
<path d="M3.75128 28.3725C2.93472 29.1891 1.76459 29.3418 1.13649 28.7136C0.5091 28.0863 0.661385 26.9158 1.47748 26.0997L26.1001 1.47701C26.9158 0.661384 28.0863 0.5091 28.7136 1.13649C29.3414 1.76423 29.1888 2.93436 28.3731 3.74999L3.75128 28.3725Z" fill="#FCFCFC"/>
<path d="M1.47795 4.02361C0.661385 3.20704 0.569683 1.97598 1.27303 1.27263C1.97557 0.570087 3.20704 0.661385 4.02314 1.47748L28.6458 26.1001C29.4614 26.9158 29.5527 28.1473 28.8502 28.8498C28.1472 29.5527 26.9162 29.461 26.1006 28.6454L1.47795 4.02361Z" fill="#FCFCFC"/>
</svg>
