<svg width="25" height="50" viewBox="0 0 25 50" fill="none" xmlns="http://www.w3.org/2000/svg">
<path d="M22.6558 0H2.34326C1.05031 0 -0.000488281 1.0508 -0.000488281 2.34375V46.0938C-0.000488281 47.3867 1.05031 48.4375 2.34326 48.4375V49.2188C2.34326 49.6504 2.69287 50 3.12451 50C3.55615 50 3.90576 49.6504 3.90576 49.2188V48.4375H21.0933V49.2188C21.0933 49.6504 21.4429 50 21.8745 50C22.3061 50 22.6558 49.6504 22.6558 49.2188V48.4375C23.9487 48.4375 24.9995 47.3867 24.9995 46.0938V2.34375C24.9995 1.0508 23.9487 0 22.6558 0ZM2.34326 1.5625H22.6558C23.0854 1.5625 23.437 1.91406 23.437 2.34375V17.1877H1.56201V2.34375C1.56201 1.91406 1.91357 1.5625 2.34326 1.5625ZM16.9683 18.75L16.5776 20.3125H8.42164L8.03101 18.75H16.9683ZM22.6558 46.875H2.34326C1.91357 46.875 1.56201 46.5234 1.56201 46.0938V18.7498H6.42141L7.05421 21.2829C7.14015 21.6306 7.45265 21.8748 7.81201 21.8748H17.187C17.5464 21.8748 17.8589 21.6306 17.9448 21.2829L18.5776 18.7498H23.437V46.0938C23.437 46.5234 23.0854 46.875 22.6558 46.875Z" fill="black"/>
<path d="M21.0938 12.5C21.5254 12.5 21.875 12.1504 21.875 11.7188V7.03125C21.875 6.59961 21.5254 6.25 21.0938 6.25C20.6621 6.25 20.3125 6.59961 20.3125 7.03125V11.7188C20.3125 12.1504 20.6621 12.5 21.0938 12.5Z" fill="black"/>
</svg>
