<svg width="50" height="50" viewBox="0 0 50 50" fill="none" xmlns="http://www.w3.org/2000/svg">
<path d="M13.9188 4.15506L13.8038 3.54131M13.9188 4.15506C21.2425 2.78201 28.7575 2.78076 36.0813 4.15381L38.0525 4.52506C39.8935 4.87031 41.5873 5.76374 42.9118 7.08824C44.2363 8.41275 45.1298 10.1065 45.475 11.9476L45.845 13.9188C47.2181 21.2425 47.2181 28.7576 45.845 36.0813L45.475 38.0526C45.1298 39.8936 44.2363 41.5874 42.9118 42.9119C41.5873 44.2364 39.8935 45.1298 38.0525 45.4751L36.0813 45.8451C28.7575 47.2181 21.2425 47.2181 13.9188 45.8451L11.9475 45.4751C10.1065 45.1298 8.41269 44.2364 7.08819 42.9119C5.76369 41.5874 4.87026 39.8936 4.525 38.0526L4.155 36.0813C2.7819 28.7576 2.7819 21.2425 4.155 13.9188L4.525 11.9476C4.87017 10.1067 5.76342 8.41304 7.08768 7.08855C8.41194 5.76407 10.1054 4.87054 11.9463 4.52506L13.9188 4.15506Z" stroke="#FCFCFC" stroke-width="2"/>
<path d="M27.5 26.875H30.625L31.875 21.875H27.5V19.375C27.5 18.0875 27.5 16.875 30 16.875H31.875V12.675C31.4675 12.6213 29.9287 12.5 28.3037 12.5C24.91 12.5 22.5 14.5712 22.5 18.375V21.875H18.75V26.875H22.5V37.5H27.5V26.875Z" fill="#FCFCFC"/>
</svg>
