<svg width="50" height="50" viewBox="0 0 50 50" fill="none" xmlns="http://www.w3.org/2000/svg">
<path d="M13.9188 4.15506L13.8038 3.54131M13.9188 4.15506C21.2425 2.78201 28.7575 2.78076 36.0813 4.15381L38.0525 4.52506C39.8935 4.87031 41.5873 5.76374 42.9118 7.08824C44.2363 8.41275 45.1298 10.1065 45.475 11.9476L45.845 13.9188C47.2181 21.2425 47.2181 28.7576 45.845 36.0813L45.475 38.0526C45.1298 39.8936 44.2363 41.5874 42.9118 42.9119C41.5873 44.2364 39.8935 45.1298 38.0525 45.4751L36.0813 45.8451C28.7575 47.2181 21.2425 47.2181 13.9188 45.8451L11.9475 45.4751C10.1065 45.1298 8.41269 44.2364 7.08819 42.9119C5.76369 41.5874 4.87026 39.8936 4.525 38.0526L4.155 36.0813C2.7819 28.7576 2.7819 21.2425 4.155 13.9188L4.525 11.9476C4.87017 10.1067 5.76342 8.41304 7.08768 7.08855C8.41194 5.76407 10.1054 4.87054 11.9463 4.52506L13.9188 4.15506Z" stroke="#FCFCFC" stroke-width="2"/>
<path d="M24.7188 19.0938C23.9801 19.0938 23.2486 19.2392 22.5662 19.5219C21.8837 19.8046 21.2636 20.2189 20.7413 20.7413C20.2189 21.2636 19.8046 21.8837 19.5219 22.5662C19.2392 23.2486 19.0938 23.9801 19.0938 24.7188C19.0938 25.4574 19.2392 26.1889 19.5219 26.8713C19.8046 27.5538 20.2189 28.1739 20.7413 28.6962C21.2636 29.2186 21.8837 29.6329 22.5662 29.9156C23.2486 30.1983 23.9801 30.3438 24.7188 30.3438C26.2106 30.3438 27.6413 29.7511 28.6962 28.6962C29.7511 27.6413 30.3438 26.2106 30.3438 24.7188C30.3438 23.2269 29.7511 21.7962 28.6962 20.7413C27.6413 19.6864 26.2106 19.0938 24.7188 19.0938ZM24.7188 28.4688C23.9771 28.4688 23.252 28.2488 22.6354 27.8368C22.0187 27.4247 21.538 26.839 21.2542 26.1538C20.9704 25.4686 20.8961 24.7146 21.0408 23.9872C21.1855 23.2597 21.5427 22.5915 22.0671 22.0671C22.5915 21.5427 23.2597 21.1855 23.9872 21.0408C24.7146 20.8961 25.4686 20.9704 26.1538 21.2542C26.839 21.538 27.4247 22.0187 27.8368 22.6354C28.2488 23.252 28.4688 23.9771 28.4688 24.7188C28.4655 25.7123 28.0693 26.6642 27.3668 27.3668C26.6642 28.0693 25.7123 28.4655 24.7188 28.4688ZM29.875 13H19.5625C17.822 13 16.1528 13.6914 14.9221 14.9221C13.6914 16.1528 13 17.822 13 19.5625V29.875C13 31.6155 13.6914 33.2847 14.9221 34.5154C16.1528 35.7461 17.822 36.4375 19.5625 36.4375H29.875C31.6155 36.4375 33.2847 35.7461 34.5154 34.5154C35.7461 33.2847 36.4375 31.6155 36.4375 29.875V19.5625C36.4375 17.822 35.7461 16.1528 34.5154 14.9221C33.2847 13.6914 31.6155 13 29.875 13ZM34.5625 29.875C34.5625 31.1182 34.0686 32.3105 33.1896 33.1896C32.3105 34.0686 31.1182 34.5625 29.875 34.5625H19.5625C18.3193 34.5625 17.127 34.0686 16.2479 33.1896C15.3689 32.3105 14.875 31.1182 14.875 29.875V19.5625C14.875 18.3193 15.3689 17.127 16.2479 16.2479C17.127 15.3689 18.3193 14.875 19.5625 14.875H29.875C31.1182 14.875 32.3105 15.3689 33.1896 16.2479C34.0686 17.127 34.5625 18.3193 34.5625 19.5625V29.875ZM32.2188 18.625C32.2188 18.998 32.0706 19.3556 31.8069 19.6194C31.5431 19.8831 31.1855 20.0312 30.8125 20.0312C30.4395 20.0312 30.0819 19.8831 29.8181 19.6194C29.5544 19.3556 29.4062 18.998 29.4062 18.625C29.4062 18.252 29.5544 17.8944 29.8181 17.6306C30.0819 17.3669 30.4395 17.2188 30.8125 17.2188C31.1855 17.2188 31.5431 17.3669 31.8069 17.6306C32.0706 17.8944 32.2188 18.252 32.2188 18.625Z" fill="#FCFCFC"/>
</svg>
