<svg width="50" height="50" viewBox="0 0 50 50" fill="none" xmlns="http://www.w3.org/2000/svg">
<path d="M13.9187 4.15506L13.8037 3.54131M13.9187 4.15506C21.2424 2.78201 28.7575 2.78076 36.0812 4.15381L38.0525 4.52506C39.8935 4.87031 41.5873 5.76374 42.9118 7.08824C44.2363 8.41275 45.1297 10.1065 45.475 11.9476L45.845 13.9188C47.2181 21.2425 47.2181 28.7576 45.845 36.0813L45.475 38.0526C45.1297 39.8936 44.2363 41.5874 42.9118 42.9119C41.5873 44.2364 39.8935 45.1298 38.0525 45.4751L36.0812 45.8451C28.7575 47.2181 21.2424 47.2181 13.9187 45.8451L11.9475 45.4751C10.1065 45.1298 8.41268 44.2364 7.08818 42.9119C5.76368 41.5874 4.87025 39.8936 4.52499 38.0526L4.15499 36.0813C2.78189 28.7576 2.78189 21.2425 4.15499 13.9188L4.52499 11.9476C4.87016 10.1067 5.76341 8.41304 7.08767 7.08855C8.41194 5.76407 10.1054 4.87054 11.9462 4.52506L13.9187 4.15506Z" stroke="#FCFCFC" stroke-width="2"/>
<path fill-rule="evenodd" clip-rule="evenodd" d="M36.098 12.2397C31.06 14.9587 17.07 22.5077 12.051 25.2157C11.375 25.5807 10.968 26.2988 11.002 27.0658C11.037 27.8318 11.507 28.5117 12.212 28.8137L18.99 31.7227L18.957 35.9737C18.95 36.8007 19.454 37.5478 20.225 37.8498C20.995 38.1528 21.873 37.9497 22.432 37.3397L25.295 34.2118L32.592 36.6267C33.14 36.8087 33.741 36.7438 34.238 36.4488C34.736 36.1548 35.082 35.6597 35.187 35.0907L39.014 14.3637C39.154 13.6067 38.847 12.8367 38.225 12.3827C37.602 11.9297 36.775 11.8747 36.098 12.2397ZM36.738 15.6787L33.22 34.7277L25.309 32.1097C24.935 31.9857 24.523 32.0937 24.257 32.3837L20.957 35.9887L20.992 31.4817L36.738 15.6787ZM13 26.9757L19.766 29.8787L33.888 15.7047L13 26.9757Z" fill="#FCFCFC"/>
</svg>
