<svg width="46" height="46" viewBox="0 0 46 46" fill="none" xmlns="http://www.w3.org/2000/svg">
<path d="M11.9188 2.15506L11.8038 1.54131M11.9188 2.15506C19.2425 0.782012 26.7576 0.780763 34.0813 2.15381L36.0525 2.52506C37.8935 2.87031 39.5873 3.76374 40.9118 5.08824C42.2363 6.41275 43.1298 8.10652 43.475 9.94756L43.845 11.9188C45.2181 19.2425 45.2181 26.7576 43.845 34.0813L43.475 36.0526C43.1298 37.8936 42.2363 39.5874 40.9118 40.9119C39.5873 42.2364 37.8935 43.1298 36.0525 43.4751L34.0813 43.8451C26.7576 45.2181 19.2425 45.2181 11.9188 43.8451L9.94751 43.4751C8.10647 43.1298 6.4127 42.2364 5.0882 40.9119C3.76369 39.5874 2.87026 37.8936 2.52501 36.0526L2.15501 34.0813C0.781908 26.7576 0.781908 19.2425 2.15501 11.9188L2.52501 9.94756C2.87018 8.10669 3.76343 6.41304 5.08769 5.08855C6.41195 3.76407 8.10545 2.87054 9.94626 2.52506L11.9188 2.15506Z" stroke="#FCFCFC" stroke-width="2"/>
<path fill-rule="evenodd" clip-rule="evenodd" d="M21.99 30.4975H23.7188C23.7188 30.4975 24.2375 30.41 24.4975 30.1513C24.7563 29.8925 24.7563 29.3738 24.7563 29.3738C24.7563 29.3738 24.7563 27.1262 25.7938 26.7812C26.8313 26.435 28.2125 29.0275 29.5963 29.9788C30.6338 30.7563 31.41 30.5837 31.41 30.5837L35.2125 30.4963C35.2125 30.4963 37.2 30.4112 36.25 28.7687C36.1638 28.6812 35.7313 27.645 33.3988 25.485C30.9788 23.2375 31.3238 23.67 34.1763 19.7812C35.905 17.4475 36.5963 16.065 36.4225 15.3738C36.25 14.7688 34.9538 14.9413 34.9538 14.9413H30.6325C30.6325 14.9413 30.2875 14.855 30.1138 15.0288C29.855 15.2013 29.7688 15.46 29.7688 15.46C29.7688 15.46 29.0775 17.275 28.2125 18.83C26.3125 22.0275 25.5338 22.2013 25.275 22.0275C24.5838 21.5963 24.7563 20.1275 24.7563 19.1762C24.7563 16.0638 25.275 14.7687 23.8063 14.4225C23.3738 14.3362 23.0275 14.25 21.8188 14.25C20.2625 14.25 18.9663 14.25 18.275 14.5963C17.7563 14.855 17.41 15.3738 17.67 15.3738C17.9288 15.3738 18.62 15.5463 18.9663 15.9788C19.3113 16.7563 19.3113 18.0525 19.3113 18.0525C19.3113 18.0525 19.5713 21.7688 18.7063 22.2013C18.1013 22.5463 17.3238 21.855 15.595 18.9162C14.7313 17.4475 14.04 15.7188 14.04 15.7188C14.04 15.7188 13.9525 15.3738 13.6938 15.2C13.435 15.0275 13.0025 14.9413 13.0025 14.9413H8.94001C8.94001 14.9413 8.33626 14.9413 8.07751 15.2C7.90376 15.46 8.07751 15.8925 8.07751 15.8925C8.07751 15.8925 11.275 23.3238 14.9038 27.1263C18.275 30.7563 21.9913 30.4975 21.9913 30.4975H21.99Z" fill="#FCFCFC"/>
</svg>
