<svg width="29" height="29" viewBox="0 0 29 29" fill="none" xmlns="http://www.w3.org/2000/svg">
<path d="M27.7503 26.3303L20.3403 18.9303C22.2501 16.6572 23.2085 13.7345 23.0157 10.7718C22.8229 7.80919 21.4937 5.03538 19.3054 3.02895C17.1171 1.02251 14.2387 -0.0616067 11.2705 0.00270615C8.30225 0.067019 5.47347 1.2748 3.37413 3.37413C1.2748 5.47347 0.067019 8.30225 0.00270615 11.2705C-0.0616067 14.2387 1.02251 17.1171 3.02895 19.3054C5.03538 21.4937 7.80919 22.8229 10.7718 23.0157C13.7345 23.2085 16.6572 22.2501 18.9303 20.3403L26.3303 27.7503C26.4233 27.844 26.5339 27.9184 26.6557 27.9692C26.7776 28.02 26.9083 28.0461 27.0403 28.0461C27.1723 28.0461 27.303 28.02 27.4249 27.9692C27.5467 27.9184 27.6573 27.844 27.7503 27.7503C27.844 27.6573 27.9184 27.5467 27.9692 27.4249C28.02 27.303 28.0461 27.1723 28.0461 27.0403C28.0461 26.9083 28.02 26.7776 27.9692 26.6557C27.9184 26.5339 27.844 26.4233 27.7503 26.3303ZM2.04031 11.5403C2.04031 9.66139 2.59747 7.82466 3.64135 6.26239C4.68522 4.70012 6.16892 3.48249 7.90482 2.76345C9.64071 2.04442 11.5508 1.85629 13.3937 2.22285C15.2365 2.58941 16.9292 3.49419 18.2578 4.82279C19.5864 6.15139 20.4912 7.84413 20.8578 9.68695C21.2243 11.5298 21.0362 13.4399 20.3172 15.1758C19.5981 16.9117 18.3805 18.3954 16.8182 19.4393C15.256 20.4831 13.4192 21.0403 11.5403 21.0403C9.02156 21.0377 6.60674 20.0359 4.82572 18.2549C3.0447 16.4739 2.04296 14.0591 2.04031 11.5403Z" fill="#1A5832"/>
</svg>
