<svg width="300" height="300" viewBox="0 0 300 300" fill="none" xmlns="http://www.w3.org/2000/svg">
<path d="M291.667 0H8.33333C3.75 0 0 3.75 0 8.33333V100H100V266.667H93.75V247.917H97.9167V241.667H54.1667V235.417H97.9167V200H63.5417C60.625 200 58.3333 202.292 58.3333 205.208V231.25H54.1667V218.75C54.1667 217.5 53.3333 216.667 52.0833 216.667C50.8333 216.667 50 217.5 50 218.75V266.667H33.3333V133.333H0V291.667C0 296.25 3.75 300 8.33333 300H293.75C297.292 300 300 297.292 300 293.75V133.333H266.667V266.667H250V233.333H200V227.083H244.792C247.708 227.083 250 224.792 250 221.875V155.208C250 152.292 247.708 150 244.792 150H200V100H300V8.33333C300 3.75 296.25 0 291.667 0ZM81.25 206.25C83.5417 206.25 85.4167 208.125 85.4167 210.417C85.4167 212.708 83.5417 214.583 81.25 214.583C78.9583 214.583 77.0833 212.708 77.0833 210.417C77.0833 208.125 78.9583 206.25 81.25 206.25ZM81.25 220.833C83.5417 220.833 85.4167 222.708 85.4167 225C85.4167 227.292 83.5417 229.167 81.25 229.167C78.9583 229.167 77.0833 227.292 77.0833 225C77.0833 222.708 78.9583 220.833 81.25 220.833ZM68.75 206.25C71.0417 206.25 72.9167 208.125 72.9167 210.417C72.9167 212.708 71.0417 214.583 68.75 214.583C66.4583 214.583 64.5833 212.708 64.5833 210.417C64.5833 208.125 66.4583 206.25 68.75 206.25ZM68.75 220.833C71.0417 220.833 72.9167 222.708 72.9167 225C72.9167 227.292 71.0417 229.167 68.75 229.167C66.4583 229.167 64.5833 227.292 64.5833 225C64.5833 222.708 66.4583 220.833 68.75 220.833ZM58.3333 266.667H54.1667V247.917H58.3333V266.667ZM89.5833 266.667H62.5V247.917H89.5833V266.667ZM216.667 156.25H233.333C234.583 156.25 235.417 157.083 235.417 158.333C235.417 159.583 234.583 160.417 233.333 160.417H216.667C215.417 160.417 214.583 159.583 214.583 158.333C214.583 157.083 215.417 156.25 216.667 156.25ZM266.667 66.6667H166.667V266.667H133.333V66.6667H33.3333V33.3333H266.667V66.6667Z" fill="url(#paint0_linear_2072_5)"/>
<path d="M83.3333 179.167H50L60.4166 161.042H62.5V150H70.8333V161.042H72.9166L83.3333 179.167Z" fill="url(#paint1_linear_2072_5)"/>
<path d="M67.7083 116.667H65.6249V150H67.7083V116.667Z" fill="url(#paint2_linear_2072_5)"/>
<defs>
<linearGradient id="paint0_linear_2072_5" x1="150" y1="300" x2="150" y2="0" gradientUnits="userSpaceOnUse">
<stop stop-color="#1A5832"/>
<stop offset="0.75" stop-color="#387A2B"/>
<stop offset="1" stop-color="#569D24"/>
</linearGradient>
<linearGradient id="paint1_linear_2072_5" x1="66.6666" y1="179.167" x2="66.6666" y2="150" gradientUnits="userSpaceOnUse">
<stop stop-color="#1A5832"/>
<stop offset="0.75" stop-color="#387A2B"/>
<stop offset="1" stop-color="#569D24"/>
</linearGradient>
<linearGradient id="paint2_linear_2072_5" x1="66.6666" y1="150" x2="66.6666" y2="116.667" gradientUnits="userSpaceOnUse">
<stop stop-color="#1A5832"/>
<stop offset="0.75" stop-color="#387A2B"/>
<stop offset="1" stop-color="#569D24"/>
</linearGradient>
</defs>
</svg>
