<?xml version="1.0" encoding="utf-8"?>
<!-- Generator: Adobe Illustrator 24.1.2, SVG Export Plug-In . SVG Version: 6.00 Build 0)  -->
<svg version="1.1" id="Слой_1" xmlns="http://www.w3.org/2000/svg" xmlns:xlink="http://www.w3.org/1999/xlink" x="0px" y="0px"
	 viewBox="0 0 941.9 144" style="enable-background:new 0 0 941.9 144;" xml:space="preserve">
<style type="text/css">
	.st0{fill:none;stroke:#000000;stroke-miterlimit:10;}
	.st1{fill:url(#SVGID_1_);}
	.st2{fill:url(#SVGID_2_);}
	.st3{fill:url(#SVGID_3_);}
	.st4{fill:url(#SVGID_4_);}
	.st5{fill:url(#SVGID_5_);}
	.st6{fill:url(#SVGID_6_);}
	.st7{fill:url(#SVGID_7_);}
	.st8{fill:url(#SVGID_8_);}
	.st9{fill:url(#SVGID_9_);}
	.st10{fill:url(#SVGID_10_);}
</style>
<g>
	<linearGradient id="SVGID_1_" gradientUnits="userSpaceOnUse" x1="72" y1="144" x2="72" y2="-9.094947e-13">
		<stop  offset="0" style="stop-color:#1A5832"/>
		<stop  offset="0.75" style="stop-color:#387A2B"/>
		<stop  offset="1" style="stop-color:#569D24"/>
	</linearGradient>
	<path class="st1" d="M140,0H4C1.79,0,0,1.79,0,4v44h48v80h-3v-9h2v-3H26v-3h21V96H30.5c-1.38,0-2.5,1.12-2.5,2.5V111h-2v-6
		c0-0.55-0.45-1-1-1s-1,0.45-1,1v23h-8V64H0v76c0,2.21,1.79,4,4,4h137c1.66,0,3-1.34,3-3V64h-16v64h-8v-16H96v-3h21.5
		c1.38,0,2.5-1.12,2.5-2.5v-32c0-1.38-1.12-2.5-2.5-2.5H96V48h48V4C144,1.79,142.21,0,140,0z M39,99c1.11,0,2,0.89,2,2s-0.89,2-2,2
		s-2-0.89-2-2S37.89,99,39,99z M39,106c1.11,0,2,0.89,2,2s-0.89,2-2,2s-2-0.89-2-2S37.89,106,39,106z M33,99c1.11,0,2,0.89,2,2
		s-0.89,2-2,2s-2-0.89-2-2S31.89,99,33,99z M33,106c1.11,0,2,0.89,2,2s-0.89,2-2,2s-2-0.89-2-2S31.89,106,33,106z M28,128h-2v-9h2
		V128z M43,128H30v-9h13V128z M104,75h8c0.55,0,1,0.45,1,1s-0.45,1-1,1h-8c-0.55,0-1-0.45-1-1S103.45,75,104,75z M128,32H80v96H64
		V32H16V16h112V32z"/>
	<linearGradient id="SVGID_2_" gradientUnits="userSpaceOnUse" x1="32" y1="86" x2="32" y2="72">
		<stop  offset="0" style="stop-color:#1A5832"/>
		<stop  offset="0.75" style="stop-color:#387A2B"/>
		<stop  offset="1" style="stop-color:#569D24"/>
	</linearGradient>
	<polygon class="st2" points="40,86 24,86 29,77.25 30,77.25 30,72 34,72 34,77.25 35,77.25 	"/>
	<linearGradient id="SVGID_3_" gradientUnits="userSpaceOnUse" x1="32" y1="72" x2="32" y2="56">
		<stop  offset="0" style="stop-color:#1A5832"/>
		<stop  offset="0.75" style="stop-color:#387A2B"/>
		<stop  offset="1" style="stop-color:#569D24"/>
	</linearGradient>
	<rect x="31.5" y="56" class="st3" width="1" height="16"/>
</g>
<linearGradient id="SVGID_4_" gradientUnits="userSpaceOnUse" x1="159.416" y1="71.6521" x2="941.8994" y2="71.6521">
	<stop  offset="0" style="stop-color:#1A5832"/>
	<stop  offset="1" style="stop-color:#387A2B"/>
</linearGradient>
<path class="st4" d="M228.82,38.45h-27.19V117h-15.02V38.45h-27.19V26.3h69.41V38.45z M291.76,76.2h-39.37v28.65h45.67V117h-60.69
	V26.3h60.26v12.15h-45.24v25.6h39.37V76.2z M341.09,59.82l18.97-33.51h17.8l-27.69,44.97L378.92,117h-18.05l-19.53-34.07L321.81,117
	h-17.8l28.31-45.72L304.63,26.3h17.68L341.09,59.82z M457.96,117H443V78.32h-40.3V117h-15.02V26.3h15.02v39.87H443V26.3h14.96V117z
	 M543.9,79.81c0,11.09-3.45,20.28-10.35,27.56c-6.9,7.29-15.85,10.93-26.85,10.93c-10.79,0-19.56-3.64-26.3-10.93
	s-10.1-16.48-10.1-27.56V63.49c0-11.05,3.37-20.22,10.1-27.53C487.13,28.65,495.88,25,506.63,25c11,0,19.96,3.65,26.88,10.96
	c6.92,7.31,10.38,16.49,10.38,27.53V79.81z M528.94,63.37c0-7.56-2.01-13.77-6.03-18.63c-4.02-4.86-9.45-7.29-16.29-7.29
	c-6.59,0-11.8,2.43-15.64,7.29c-3.83,4.86-5.75,11.07-5.75,18.63v16.44c0,7.64,1.92,13.9,5.75,18.78c3.83,4.88,9.06,7.32,15.7,7.32
	c6.88,0,12.31-2.43,16.29-7.29c3.98-4.86,5.96-11.13,5.96-18.81V63.37z M622.2,86.91l0.12,0.37c0.16,9.18-2.79,16.64-8.87,22.39
	c-6.08,5.75-14.31,8.63-24.69,8.63c-10.51,0-19.05-3.56-25.62-10.68c-6.57-7.12-9.86-16.23-9.86-27.31V63.06
	c0-11.05,3.25-20.15,9.73-27.31C569.52,28.58,577.95,25,588.34,25c10.63,0,19,2.81,25.12,8.44c6.12,5.63,9.09,13.2,8.93,22.7
	l-0.12,0.37h-14.52c0-6.1-1.64-10.86-4.91-14.26c-3.28-3.4-8.11-5.11-14.49-5.11c-6.14,0-11.01,2.45-14.62,7.34
	c-3.61,4.9-5.41,11.04-5.41,18.42v17.36c0,7.47,1.84,13.65,5.53,18.55c3.69,4.9,8.66,7.34,14.93,7.34c6.22,0,10.94-1.68,14.15-5.03
	c3.21-3.35,4.82-8.09,4.82-14.22H622.2z M682.36,34.9h0.93c10.75,0,19.65,3.44,26.7,10.31c7.04,6.87,10.57,15.81,10.57,26.82
	c0,10.92-3.52,19.79-10.57,26.6c-7.05,6.81-15.95,10.22-26.7,10.22h-0.93v11.9h-15.02v-11.9h-1.17c-10.79,0-19.69-3.38-26.7-10.15
	c-7-6.77-10.51-15.61-10.51-26.54c0-11,3.5-19.96,10.51-26.88c7-6.91,15.9-10.37,26.7-10.37h1.17V22.57h15.02V34.9z M666.17,47.48
	c-7.09,0-12.59,2.17-16.5,6.51c-3.92,4.34-5.87,10.39-5.87,18.16c0,7.64,1.96,13.57,5.87,17.78c3.91,4.22,9.41,6.32,16.5,6.32h1.17
	V47.48H666.17z M682.36,47.48v48.77h1.05c7,0,12.47-2.14,16.41-6.42c3.93-4.28,5.9-10.22,5.9-17.82c0-7.72-1.97-13.74-5.9-18.06
	c-3.94-4.32-9.4-6.48-16.41-6.48H682.36z M784.63,76.2h-39.37v28.65h45.67V117h-60.69V26.3h60.26v12.15h-45.24v25.6h39.37V76.2z
	 M814.95,82.62V117h-15.02V26.3h35.17c9.93,0,17.71,2.58,23.33,7.75c5.62,5.17,8.44,11.97,8.44,20.4c0,8.51-2.81,15.33-8.44,20.46
	c-5.63,5.13-13.4,7.69-23.33,7.69H814.95z M814.95,70.47h20.15c5.56,0,9.74-1.5,12.55-4.48c2.8-2.99,4.2-6.79,4.2-11.4
	s-1.4-8.45-4.2-11.52c-2.8-3.07-6.98-4.61-12.55-4.61h-20.15V70.47z M919.53,95.82H884.3L877.13,117h-15.2l33.06-90.7h14.21
	L941.9,117h-15.27L919.53,95.82z M888.62,83.18h26.64l-13.04-38.74h-0.37L888.62,83.18z"/>
</svg>
