<svg xmlns="http://www.w3.org/2000/svg" xmlns:xlink="http://www.w3.org/1999/xlink" viewBox="0 0 324 324"><defs><style>.a{fill:url(#a);}.b{fill:url(#b);}.c{fill:url(#c);}</style><linearGradient id="a" x1="162" y1="324" x2="162" gradientUnits="userSpaceOnUse"><stop offset="0" stop-color="#1a5832"/><stop offset="0.75" stop-color="#387a2b"/><stop offset="1" stop-color="#569d24"/></linearGradient><linearGradient id="b" x1="72" y1="193.5" x2="72" y2="162" xlink:href="#a"/><linearGradient id="c" x1="72" y1="162" x2="72" y2="126" xlink:href="#a"/></defs><path class="a" d="M315,0H9A9,9,0,0,0,0,9v99H108V288h-6.75V267.75h4.5V261H58.5v-6.75h47.25V216H68.62A5.62,5.62,0,0,0,63,221.62v28.13H58.5v-13.5a2.25,2.25,0,0,0-4.5,0V288H36V144H0V315a9,9,0,0,0,9,9H317.25a6.75,6.75,0,0,0,6.75-6.75V144H288V288H270V252H216v-6.75h48.38a5.63,5.63,0,0,0,5.62-5.63v-72a5.62,5.62,0,0,0-5.62-5.62H216V108H324V9A9,9,0,0,0,315,0ZM87.75,222.75a4.5,4.5,0,1,1-4.5,4.5A4.49,4.49,0,0,1,87.75,222.75Zm0,15.75a4.5,4.5,0,1,1-4.5,4.5A4.49,4.49,0,0,1,87.75,238.5Zm-13.5-15.75a4.5,4.5,0,1,1-4.5,4.5A4.49,4.49,0,0,1,74.25,222.75Zm0,15.75a4.5,4.5,0,1,1-4.5,4.5A4.49,4.49,0,0,1,74.25,238.5ZM63,288H58.5V267.75H63Zm33.75,0H67.5V267.75H96.75ZM234,168.75h18a2.25,2.25,0,0,1,0,4.5H234a2.25,2.25,0,0,1,0-4.5ZM288,72H180V288H144V72H36V36H288Z"/><polygon class="b" points="90 193.5 54 193.5 65.25 173.81 67.5 173.81 67.5 162 76.5 162 76.5 173.81 78.75 173.81 90 193.5"/><rect class="c" x="70.88" y="126" width="2.25" height="36"/></svg>