<svg width="1160" height="550" viewBox="0 0 1160 550" fill="none" xmlns="http://www.w3.org/2000/svg">
<g clip-path="url(#clip0_1_340)">
<rect width="1160" height="550" fill="#387A2B"/>
<path d="M225.942 67.1377C228.245 66.2994 229.431 63.7551 228.593 61.4521C227.755 59.1491 225.21 57.9627 222.907 58.8009L187.029 71.8597L184.631 65.2735C180.546 54.0503 168.095 48.2441 156.872 52.329L131.601 61.5269L90.624 45.015C88.3537 44.0947 85.7703 45.2002 84.8567 47.4564L70.0661 83.9245L30.842 98.2009C19.6187 102.286 13.8125 114.737 17.8975 125.961L73.3194 278.231C74.1576 280.534 76.7019 281.72 79.0049 280.882C81.3079 280.044 82.4944 277.5 81.6561 275.197L31.6659 137.85L225.942 67.1377ZM79.1524 85.1262C84.4463 86.6689 93.8079 88.2656 103.926 84.5827C110.763 82.0946 117.931 77.1486 124.391 68.1772L158.909 82.0842L66.7883 115.613L79.1524 85.1262ZM159.896 60.6711C166.523 58.2587 173.872 61.6854 176.284 68.3132L178.681 74.8993L171.272 77.596C171.072 77.4682 170.866 77.3546 170.632 77.2627L143.91 66.4894L159.896 60.6711ZM91.4118 54.9021L115.891 64.7682C103.643 80.2721 89.2544 78.8062 82.4762 76.9421L91.4118 54.9021ZM26.2311 122.928C23.8187 116.301 27.2454 108.952 33.8732 106.54L65.5742 95.0016L55.5563 119.713L28.628 129.515L26.2311 122.928Z" fill="#FCFCFC"/>
<path d="M235.337 105.884L231.648 107.227L227.817 96.7019C226.979 94.3989 224.435 93.2125 222.132 94.0507C219.829 94.889 218.642 97.4332 219.481 99.7363L223.312 110.261L184.568 124.363C177.669 126.874 174.103 134.521 176.614 141.42L187.564 171.504C190.075 178.403 197.722 181.968 204.62 179.458L243.375 165.352L253.873 194.196C256.286 200.824 252.859 208.172 246.231 210.584L127.484 253.805C125.181 254.643 123.994 257.187 124.833 259.49C125.671 261.794 128.215 262.98 130.518 262.142L249.266 218.921C260.489 214.836 266.295 202.385 262.21 191.162L251.712 162.318L255.401 160.975C262.299 158.464 265.865 150.817 263.354 143.918L252.405 113.834C249.883 106.939 242.236 103.374 235.337 105.884ZM255.004 146.947C255.842 149.25 254.655 151.795 252.352 152.633L201.582 171.112C199.279 171.95 196.735 170.764 195.897 168.46L184.951 138.387C184.113 136.084 185.299 133.54 187.602 132.701L238.372 114.222C240.675 113.384 243.219 114.571 244.058 116.874L255.004 146.947Z" fill="#FCFCFC"/>
<path d="M205.655 136.008C203.352 136.847 202.165 139.391 203.003 141.694L207.597 154.314C208.435 156.617 210.979 157.803 213.282 156.965C215.585 156.127 216.772 153.582 215.933 151.279L211.34 138.66C210.506 136.367 207.947 135.174 205.655 136.008Z" fill="#FCFCFC"/>
<path fill-rule="evenodd" clip-rule="evenodd" d="M852.437 471.626C814.602 457.855 795.138 416.115 808.909 378.28C822.882 339.889 864.622 320.425 902.457 334.196C940.849 348.169 960.312 389.909 946.339 428.301C932.568 466.136 890.828 485.599 852.437 471.626ZM900.027 340.873C866.087 328.519 828.141 346.214 815.586 380.71C803.233 414.651 820.927 452.596 854.867 464.949C889.364 477.505 927.309 459.811 939.662 425.87C952.218 391.374 934.524 353.428 900.027 340.873Z" fill="#FCFCFC"/>
<path fill-rule="evenodd" clip-rule="evenodd" d="M842.739 422.098C842.182 421.896 841.272 420.935 840.918 420.176C840.21 418.658 841.02 416.432 842.538 415.724L909.525 384.026C911.599 383.521 913.268 384.128 914.532 385.849C915.038 387.923 914.43 389.592 912.71 390.856L845.926 421.998C844.61 422.15 843.852 422.503 842.739 422.098Z" fill="#FCFCFC"/>
<path fill-rule="evenodd" clip-rule="evenodd" d="M858.379 391.245C853.928 389.625 850.084 386.336 848.517 381.985C844.271 372.878 848.119 362.306 857.023 358.616C861.02 356.29 866.079 356.241 870.53 357.861C874.981 359.481 878.268 362.568 880.392 367.122C884.284 375.47 880.437 386.041 871.886 390.49C867.333 392.614 862.83 392.865 858.379 391.245ZM868.1 364.538C865.318 363.525 862.131 363.626 859.854 364.687C854.542 367.165 852.112 373.841 854.589 379.154C855.65 381.43 858.027 383.556 860.809 384.568C863.035 385.378 866.222 385.278 868.499 384.216C873.811 381.739 876.241 375.062 873.764 369.75C872.702 367.473 870.325 365.348 868.1 364.538Z" fill="#FCFCFC"/>
<path fill-rule="evenodd" clip-rule="evenodd" d="M884.921 448.163C880.469 446.543 877.182 443.456 875.059 438.903C870.61 430.352 874.457 419.781 883.564 415.534C887.915 413.967 892.418 413.716 896.869 415.336C901.32 416.956 905.164 420.245 906.933 424.04C911.18 433.147 907.332 443.718 898.428 447.408C894.43 449.734 889.372 449.783 884.921 448.163ZM894.439 422.013C891.657 421 889.229 420.746 886.749 422.364C881.437 424.842 879.209 430.962 881.687 436.274C882.748 438.551 884.569 440.474 887.351 441.486C890.133 442.499 892.763 442.196 895.596 441.337C900.909 438.86 903.136 432.74 900.659 427.427C899.244 424.392 897.221 423.025 894.439 422.013Z" fill="#FCFCFC"/>
<path fill-rule="evenodd" clip-rule="evenodd" d="M1096.83 459.76L946.042 404.879C944.93 404.474 944.019 403.512 943.868 402.197C943.117 374.829 925.621 350.188 900.027 340.873C874.433 331.557 845.191 339.187 827.581 359.872C826.62 360.782 825.304 360.934 823.635 360.326C821.966 359.719 820.702 357.998 821.512 355.773L877.405 202.207C879.025 197.756 884.135 195.835 888.586 197.455L1152.32 293.446C1156.77 295.066 1158.89 299.619 1157.27 304.071L1101.38 457.636C1100.57 459.862 1099.05 460.57 1096.83 459.76ZM950.698 399.012L1095.92 451.868L1150.6 301.64C1150.8 301.084 1150.44 300.325 1149.89 300.123L886.156 204.132C885.043 203.727 884.284 204.081 884.082 204.637L833.251 344.293C840.892 338.882 849.442 334.433 859.054 332.261C873.017 328.521 888.547 329.133 902.457 334.196C916.924 339.461 928.657 348.773 937.506 360.815C945.799 372.655 949.943 385.505 950.698 399.012Z" fill="#FCFCFC"/>
<path fill-rule="evenodd" clip-rule="evenodd" d="M915.173 273.293L884.571 262.155C882.902 261.547 881.84 259.271 882.447 257.601L891.965 231.451C892.776 229.225 894.85 228.72 896.519 229.327L927.121 240.466C928.79 241.073 930.054 242.793 929.244 245.019L919.726 271.17C919.118 272.839 916.842 273.9 915.173 273.293ZM890.339 256.693L914.264 265.401L921.352 245.927L897.427 237.219L890.339 256.693Z" fill="#FCFCFC"/>
<path fill-rule="evenodd" clip-rule="evenodd" d="M1084.44 426.267L993.749 393.258C992.08 392.65 990.816 390.93 991.626 388.704L998.916 368.674C999.524 367.005 1001.8 365.943 1003.47 366.551L1094.16 399.56C1095.83 400.168 1096.89 402.445 1096.29 404.114L1089 424.144C1088.19 426.37 1086.11 426.875 1084.44 426.267ZM999.518 387.796L1083.53 418.375L1088.39 405.022L1004.38 374.443L999.518 387.796Z" fill="#FCFCFC"/>
<path fill-rule="evenodd" clip-rule="evenodd" d="M869.18 304.441C867.511 303.833 866.449 301.557 867.057 299.888L871.309 288.203C871.917 286.534 874.194 285.472 875.863 286.08C877.532 286.687 878.594 288.964 877.986 290.633L873.733 302.318C873.126 303.987 870.849 305.049 869.18 304.441Z" fill="#FCFCFC"/>
<path fill-rule="evenodd" clip-rule="evenodd" d="M886.985 310.921C884.759 310.111 884.254 308.037 884.861 306.368L889.114 294.684C889.722 293.014 891.442 291.75 893.667 292.56C895.337 293.168 896.398 295.445 895.791 297.114L891.538 308.798C890.93 310.467 888.654 311.529 886.985 310.921Z" fill="#FCFCFC"/>
<path fill-rule="evenodd" clip-rule="evenodd" d="M904.233 317.199C902.564 316.592 902.058 314.517 902.666 312.848L906.919 301.164C907.526 299.495 909.247 298.231 910.916 298.838C913.141 299.648 913.647 301.722 913.039 303.392L908.786 315.076C908.179 316.745 906.458 318.009 904.233 317.199Z" fill="#FCFCFC"/>
<path fill-rule="evenodd" clip-rule="evenodd" d="M922.038 323.68C920.368 323.072 919.307 320.795 919.914 319.126L924.167 307.442C924.775 305.773 927.051 304.711 928.72 305.319C930.946 306.129 931.451 308.203 930.844 309.872L926.591 321.556C925.983 323.226 924.263 324.49 922.038 323.68Z" fill="#FCFCFC"/>
<path fill-rule="evenodd" clip-rule="evenodd" d="M939.842 330.16C938.173 329.552 937.111 327.276 937.719 325.607L941.972 313.922C942.579 312.253 944.856 311.191 946.525 311.799C948.194 312.406 949.256 314.683 948.648 316.352L944.396 328.037C943.788 329.706 941.511 330.768 939.842 330.16Z" fill="#FCFCFC"/>
<path fill-rule="evenodd" clip-rule="evenodd" d="M957.647 336.64C955.978 336.033 954.916 333.756 955.524 332.087L959.776 320.403C960.384 318.733 962.661 317.672 964.33 318.279C965.999 318.887 967.061 321.164 966.453 322.833L962.2 334.517C961.593 336.186 959.316 337.248 957.647 336.64Z" fill="#FCFCFC"/>
<path fill-rule="evenodd" clip-rule="evenodd" d="M975.452 343.121C973.226 342.311 972.721 340.236 973.328 338.567L977.581 326.883C978.189 325.214 979.909 323.95 982.135 324.76C983.804 325.367 984.865 327.644 984.258 329.313L980.005 340.997C979.398 342.667 977.121 343.728 975.452 343.121Z" fill="#FCFCFC"/>
<path fill-rule="evenodd" clip-rule="evenodd" d="M992.7 349.399C991.031 348.791 989.969 346.514 990.577 344.845L994.829 333.161C995.437 331.492 997.714 330.43 999.383 331.038C1001.61 331.848 1002.11 333.922 1001.51 335.591L997.253 347.275C996.646 348.945 994.926 350.209 992.7 349.399Z" fill="#FCFCFC"/>
<path fill-rule="evenodd" clip-rule="evenodd" d="M1010.5 355.879C1008.84 355.271 1007.77 352.995 1008.38 351.326L1012.63 339.641C1013.24 337.972 1015.52 336.91 1017.19 337.518C1019.41 338.328 1019.92 340.402 1019.31 342.071L1015.06 353.756C1014.45 355.425 1012.73 356.689 1010.5 355.879Z" fill="#FCFCFC"/>
<path d="M447.971 455.878L386.877 445.105C385.706 444.899 384.498 445.164 383.524 445.846C382.549 446.529 381.887 447.573 381.68 448.744L377.957 469.86C377.751 471.031 378.016 472.239 378.698 473.214C379.38 474.188 380.425 474.85 381.596 475.057L442.69 485.829C443.861 486.036 445.069 485.771 446.043 485.088C447.018 484.406 447.68 483.361 447.887 482.191L451.61 461.075C451.816 459.904 451.551 458.696 450.869 457.721C450.187 456.747 449.142 456.084 447.971 455.878ZM439.83 476.215L387.571 467L389.737 454.719L441.996 463.934L439.83 476.215Z" fill="#FCFCFC"/>
<path d="M276.159 455.819L249.351 471.783L244.511 462.161C243.366 460.001 240.705 459.144 238.528 460.252C236.342 461.347 235.443 463.99 236.49 466.19L243.487 480.109L243.498 480.111C244.065 481.225 245.058 482.049 246.25 482.396C247.441 482.742 248.722 482.581 249.801 481.951L280.746 463.517C282.817 462.231 283.479 459.512 282.232 457.414C280.985 455.315 278.274 454.609 276.159 455.819Z" fill="#FCFCFC"/>
<path d="M451.258 437.238L390.164 426.465C387.748 426.085 385.48 427.712 385.056 430.119C384.631 432.527 386.206 434.832 388.606 435.3L449.7 446.073C452.116 446.453 454.384 444.826 454.808 442.419C455.233 440.011 453.658 437.706 451.258 437.238Z" fill="#FCFCFC"/>
<path d="M471.537 346.138L284.497 313.157C273.594 311.246 263.203 318.513 261.27 329.411C256.687 354.692 248.673 401.366 244.061 427.008C229.649 432.666 219.241 445.452 216.631 460.707C214.466 471.952 216.833 483.586 223.234 493.072C229.635 502.559 239.535 509.122 250.763 511.318C261.306 513.006 272.086 510.705 281.027 504.88C289.966 499.066 296.428 490.127 299.157 479.813L442.321 505.057C454.072 506.935 465.115 498.941 467.027 487.197L480.085 413.137C481.268 406.626 486.533 376.443 487.803 369.371L487.805 369.359C489.716 358.457 482.436 348.075 471.538 346.142L471.537 346.138ZM264.081 365.126L266.817 349.61L475.68 386.438L472.944 401.955C473.642 402.841 263.133 365.722 264.081 365.126ZM282.938 321.99L469.978 354.97C475.997 356.031 480.017 361.773 478.967 367.794L477.238 377.601L268.374 340.773L270.103 330.966C271.176 324.949 276.919 320.928 282.938 321.99ZM252.319 502.479C233.819 498.773 221.802 480.78 225.464 462.261C235.065 416.981 297.792 428.054 291.319 473.873C288.417 492.526 270.981 505.327 252.319 502.479ZM458.19 485.636C457.151 492.502 450.747 497.237 443.878 496.219L300.714 470.976C301.677 460.35 298.66 449.752 292.251 441.22C285.841 432.688 276.496 426.85 266.014 424.819C261.916 424.097 257.73 424.008 253.602 424.555L262.455 374.349C262.418 374.752 472.203 410.559 471.251 411.563L458.19 485.636Z" fill="#FCFCFC"/>
<path d="M534.546 127.858L534.543 127.858C531.805 128.358 529.975 130.965 530.457 133.698L571.204 364.786C571.686 367.518 574.297 369.343 577.041 368.875L577.044 368.875L711.843 345.106C713.152 344.875 714.335 344.124 715.099 343.034C715.872 341.929 716.178 340.575 715.947 339.263L675.2 108.175C674.968 106.863 674.218 105.696 673.113 104.922L672.832 105.324L673.113 104.922C672.023 104.159 670.655 103.858 669.345 104.089L640.47 109.18C637.893 109.635 635.433 107.922 634.979 105.348C634.525 102.775 636.251 100.324 638.828 99.8692L667.704 94.7776C675.6 93.3853 683.121 98.6527 684.511 106.534L725.258 337.622C726.648 345.503 721.381 353.025 713.485 354.418L578.686 378.186C570.805 379.576 563.282 374.309 561.878 366.43L521.132 135.343C519.756 127.458 525.023 119.936 532.905 118.547L561.794 113.453C564.372 112.998 566.832 114.711 567.285 117.285C567.739 119.858 566.013 122.309 563.436 122.764L534.546 127.858Z" fill="#FCFCFC" stroke="#FCFCFC"/>
<path d="M567.48 231.064L567.567 231.556L568.06 231.469L673.294 212.914L673.786 212.827L673.7 212.334L667.029 174.502L666.942 174.009L666.449 174.096L561.215 192.652L560.723 192.738L560.809 193.231L567.48 231.064ZM680.085 221.332L564.554 241.703C561.978 242.158 559.514 240.431 559.063 237.871L550.574 189.727C550.12 187.152 551.845 184.688 554.42 184.233L669.951 163.862C672.525 163.408 674.976 165.134 675.43 167.711L683.92 215.856C684.138 217.093 683.865 218.36 683.149 219.382C682.416 220.413 681.318 221.115 680.085 221.332Z" fill="#FCFCFC" stroke="#FCFCFC"/>
<path d="M579.086 268.725L579.173 269.217L579.665 269.131L588.61 267.553L589.102 267.467L589.015 266.974L587.438 258.03L587.351 257.537L586.859 257.624L577.915 259.201L577.422 259.288L577.509 259.781L579.086 268.725ZM595.417 275.969L576.147 279.367C573.572 279.821 571.125 278.107 570.671 275.532L567.273 256.263C566.821 253.701 568.533 251.24 571.108 250.786L590.377 247.388C592.938 246.937 595.402 248.662 595.854 251.223L599.251 270.493C599.469 271.727 599.184 272.998 598.466 274.023C597.748 275.049 596.651 275.751 595.417 275.969Z" fill="#FCFCFC" stroke="#FCFCFC"/>
<path d="M622.4 261.087L622.487 261.58L622.98 261.493L631.924 259.916L632.416 259.829L632.33 259.338L630.767 250.39L630.681 249.897L630.188 249.984L621.243 251.561L620.752 251.648L620.838 252.14L622.4 261.087ZM638.731 268.332L619.476 271.727C616.901 272.181 614.453 270.467 613.999 267.892L610.602 248.623C610.15 246.061 611.862 243.6 614.436 243.146L633.691 239.751C636.268 239.297 638.731 241.023 639.182 243.583L642.58 262.853C642.798 264.087 642.513 265.358 641.794 266.383C641.077 267.408 639.967 268.114 638.731 268.332Z" fill="#FCFCFC" stroke="#FCFCFC"/>
<path d="M665.741 253.445L665.827 253.938L666.32 253.851L675.265 252.274L675.756 252.187L675.67 251.695L674.108 242.748L674.021 242.255L673.528 242.342L664.584 243.919L664.092 244.006L664.178 244.498L665.741 253.445ZM682.071 260.69L662.816 264.085C660.241 264.539 657.794 262.825 657.34 260.25L653.942 240.981C653.49 238.419 655.202 235.958 657.777 235.504L677.032 232.109C679.608 231.655 682.071 233.381 682.523 235.941L685.92 255.211C686.374 257.784 684.648 260.235 682.071 260.69Z" fill="#FCFCFC" stroke="#FCFCFC"/>
<path d="M585.877 307.235L585.963 307.728L586.456 307.641L595.4 306.064L595.893 305.977L595.806 305.485L594.229 296.54L594.142 296.048L593.649 296.135L584.705 297.712L584.213 297.799L584.299 298.291L585.877 307.235ZM602.207 314.479L582.937 317.877C580.362 318.331 577.915 316.618 577.461 314.043L574.066 294.787C573.611 292.21 575.325 289.75 577.898 289.297L597.167 285.899C599.728 285.447 602.192 287.172 602.646 289.748L606.042 309.003C606.259 310.238 605.974 311.508 605.256 312.534C604.538 313.559 603.442 314.262 602.207 314.479Z" fill="#FCFCFC" stroke="#FCFCFC"/>
<path d="M629.191 299.597L629.277 300.09L629.77 300.003L638.715 298.426L639.206 298.34L639.121 297.848L637.558 288.901L637.472 288.408L636.978 288.494L628.034 290.072L627.542 290.158L627.628 290.65L629.191 299.597ZM645.522 306.842L626.266 310.237C623.691 310.691 621.244 308.978 620.79 306.402L617.395 287.147C616.94 284.57 618.653 282.11 621.227 281.656L640.482 278.261C643.057 277.807 645.521 279.533 645.975 282.108L649.371 301.363C649.588 302.598 649.303 303.868 648.585 304.894C647.868 305.918 646.758 306.624 645.522 306.842Z" fill="#FCFCFC" stroke="#FCFCFC"/>
<path d="M672.531 291.955L672.617 292.448L673.111 292.361L682.055 290.784L682.547 290.698L682.461 290.206L680.898 281.259L680.812 280.765L680.319 280.852L671.374 282.43L670.883 282.516L670.968 283.008L672.531 291.955ZM688.862 299.2L669.607 302.595C667.031 303.049 664.584 301.336 664.13 298.76L660.735 279.505C660.281 276.928 661.994 274.468 664.567 274.014L683.822 270.619C686.398 270.165 688.862 271.891 689.316 274.466L692.711 293.721C692.928 294.955 692.644 296.225 691.926 297.25C691.193 298.281 690.095 298.982 688.862 299.2Z" fill="#FCFCFC" stroke="#FCFCFC"/>
<path d="M612.047 351.044L612.044 351.047C611.331 352.082 610.235 352.772 608.997 352.99L589.728 356.388C587.153 356.842 584.706 355.128 584.251 352.553L580.856 333.298C580.402 330.722 582.116 328.275 584.691 327.821L603.96 324.423C606.522 323.972 608.983 325.684 609.437 328.258L612.832 347.513C613.05 348.748 612.765 350.019 612.047 351.044ZM592.667 345.746L592.754 346.238L593.246 346.151L602.191 344.574L602.683 344.487L602.596 343.995L601.019 335.05L600.932 334.558L600.44 334.645L591.495 336.222L591.003 336.309L591.09 336.801L592.667 345.746Z" fill="#FCFCFC" stroke="#FCFCFC"/>
<path d="M655.375 343.404L655.373 343.407C654.661 344.441 653.551 345.134 652.312 345.352L633.057 348.747C630.481 349.202 628.034 347.488 627.58 344.913L624.185 325.658C623.731 323.082 625.444 320.635 628.02 320.181L647.275 316.786C649.852 316.332 652.312 318.045 652.766 320.618L656.161 339.873C656.379 341.108 656.093 342.379 655.375 343.404ZM635.981 338.107L636.067 338.601L636.561 338.514L645.505 336.937L645.998 336.85L645.911 336.357L644.334 327.413L644.247 326.921L643.754 327.007L634.824 328.582L634.333 328.669L634.418 329.16L635.981 338.107Z" fill="#FCFCFC" stroke="#FCFCFC"/>
<path d="M679.322 330.465L679.408 330.959L679.901 330.872L688.845 329.295L689.338 329.208L689.251 328.715L687.674 319.771L687.587 319.278L687.095 319.365L678.164 320.94L677.673 321.027L677.759 321.518L679.322 330.465ZM695.652 337.71L676.397 341.105C673.822 341.56 671.375 339.846 670.921 337.271L667.525 318.016C667.071 315.44 668.785 312.993 671.36 312.539L690.615 309.144C693.192 308.689 695.652 310.403 696.106 312.976L699.501 332.231C699.955 334.805 698.229 337.256 695.652 337.71Z" fill="#FCFCFC" stroke="#FCFCFC"/>
<path d="M572.304 145.833L572.391 146.326L572.883 146.239L639.607 134.473L640.099 134.387L640.013 133.894L624.853 47.9169L624.766 47.4245L624.273 47.5113L557.564 59.2739L557.072 59.3608L557.158 59.8531L572.304 145.833ZM646.398 142.892L569.377 156.473C566.804 156.926 564.353 155.201 563.898 152.624L546.923 56.3496C546.468 53.7743 548.182 51.3272 550.757 50.8732L627.778 37.2923C630.355 36.8379 632.815 38.551 633.269 41.1245L650.244 137.398C650.462 138.635 650.179 139.919 649.461 140.944C648.744 141.969 647.648 142.671 646.398 142.892Z" fill="#FCFCFC" stroke="#FCFCFC"/>
<path d="M610.166 49.9957L571.656 56.7862C569.08 57.2403 566.633 55.5267 566.179 52.9515C565.725 50.3763 567.439 47.9291 570.014 47.475L608.524 40.6846C611.101 40.2302 613.561 41.9433 614.015 44.5167C614.469 47.0901 612.743 49.5414 610.166 49.9957Z" fill="#FCFCFC" stroke="#FCFCFC"/>
<path d="M614.411 74.0702L575.901 80.8606C573.325 81.3147 570.878 79.6011 570.424 77.0259C569.97 74.4488 571.683 71.9888 574.256 71.5351L612.767 64.7447C615.342 64.2906 617.806 66.016 618.26 68.5912C618.714 71.1647 616.988 73.6158 614.411 74.0702Z" fill="#FCFCFC" stroke="#FCFCFC"/>
<path d="M618.656 98.1423L580.145 104.933C577.57 105.387 575.123 103.673 574.669 101.098C574.214 98.5211 575.928 96.061 578.501 95.6073L617.011 88.8169C619.587 88.3628 622.051 90.0882 622.505 92.6634C622.958 95.2367 621.233 97.688 618.656 98.1423Z" fill="#FCFCFC" stroke="#FCFCFC"/>
<path d="M614.411 74.0702L575.901 80.8606C573.325 81.3147 570.878 79.6011 570.424 77.0259C569.97 74.4488 571.683 71.9888 574.256 71.5351L612.767 64.7447C615.342 64.2906 617.806 66.016 618.26 68.5912C618.714 71.1647 616.988 73.6158 614.411 74.0702Z" fill="#FCFCFC" stroke="#FCFCFC"/>
<path d="M622.9 122.215L584.39 129.005C581.816 129.459 579.365 127.733 578.911 125.156C578.459 122.594 580.171 120.133 582.745 119.679L621.256 112.889C623.832 112.435 626.295 114.161 626.747 116.721C627.201 119.297 625.475 121.76 622.9 122.215Z" fill="#FCFCFC" stroke="#FCFCFC"/>
<path d="M665.67 139.494L550.124 159.868C547.551 160.321 545.099 158.595 544.645 156.019C544.191 153.443 545.905 150.996 548.48 150.542L664.025 130.168C666.601 129.714 669.048 131.428 669.502 134.003C669.956 136.58 668.243 139.04 665.67 139.494Z" fill="#FCFCFC" stroke="#FCFCFC"/>
<path d="M709.676 253.702L709.661 253.704L709.548 253.929C708.885 255.249 707.616 256.185 706.143 256.445C703.568 256.899 701.121 255.185 700.667 252.61L679.444 132.249C678.99 129.674 680.704 127.227 683.279 126.773L706.401 122.696C712.158 121.695 717.65 125.541 718.679 131.293L729.81 194.418C729.81 194.418 729.81 194.419 729.81 194.419C731.438 203.823 730.008 213.503 725.72 222.03C725.72 222.03 725.72 222.03 725.72 222.031L709.676 253.702ZM690.071 135.191L689.579 135.278L689.666 135.77L707.25 235.497L707.511 236.975L708.189 235.636L716.573 219.082L716.577 219.101L717.254 217.757C720.63 211.054 721.757 203.454 720.47 196.069L720.47 196.068L709.339 132.941C709.23 132.324 708.649 131.917 708.032 132.026C708.032 132.026 708.032 132.026 708.032 132.026L690.071 135.191Z" fill="#FCFCFC" stroke="#FCFCFC"/>
<circle cx="6.31809e-06" cy="550" r="150" fill="#FCFCFC"/>
<circle cx="1160" cy="2.00001" r="150" fill="#FCFCFC"/>
<path d="M439.942 74L439.942 229.885L304.942 151.942L439.942 74Z" fill="#FCFCFC"/>
<path d="M633.899 439.123L735.835 541.06L596.587 578.371L633.899 439.123Z" fill="#FCFCFC"/>
<path d="M764.206 13.2063L913.754 53.2775L804.277 162.754L764.206 13.2063Z" fill="#FCFCFC"/>
</g>
<defs>
<clipPath id="clip0_1_340">
<rect width="1160" height="550" fill="white"/>
</clipPath>
</defs>
</svg>
