<svg width="70" height="46" viewBox="0 0 70 46" fill="none" xmlns="http://www.w3.org/2000/svg">
<path d="M65.625 0H4.375C1.96329 0 0 1.96329 0 4.375V41.5625C0 43.9742 1.96329 45.9375 4.375 45.9375H65.625C68.0367 45.9375 70 43.9742 70 41.5625V4.375C70 1.96329 68.0367 0 65.625 0ZM2.1875 8.75H67.8125V15.3125H2.1875V8.75ZM4.375 2.1875H65.625C66.8309 2.1875 67.8125 3.16911 67.8125 4.375V6.5625H2.1875V4.375C2.1875 3.16911 3.16911 2.1875 4.375 2.1875ZM65.625 43.75H4.375C3.16911 43.75 2.1875 42.7684 2.1875 41.5625V17.5H67.8125V41.5625C67.8125 42.7684 66.8309 43.75 65.625 43.75Z" fill="#1A5832"/>
<path d="M10.6176 35.3199C10.191 34.8933 9.49648 34.8933 9.06997 35.3199L8.75005 35.6398L8.43013 35.3199C8.00357 34.8933 7.30901 34.8933 6.8825 35.3199C6.45599 35.7464 6.45593 36.441 6.8825 36.8675L7.20242 37.1874L6.8825 37.5073C6.45593 37.9339 6.45593 38.6285 6.8825 39.055C7.09578 39.2682 7.37468 39.3749 7.65635 39.3749C7.93526 39.3749 8.21417 39.2682 8.4302 39.055L8.75012 38.735L9.07004 39.055C9.28333 39.2682 9.56223 39.3749 9.84389 39.3749C10.1228 39.3749 10.4017 39.2682 10.6177 39.055C11.0443 38.6284 11.0443 37.9338 10.6177 37.5073L10.2978 37.1874L10.6177 36.8675C11.0443 36.4409 11.0442 35.7464 10.6176 35.3199Z" fill="#1A5832"/>
<path d="M17.1801 35.3199C16.7535 34.8933 16.059 34.8933 15.6325 35.3199L15.3126 35.6398L14.9926 35.3199C14.5661 34.8933 13.8715 34.8933 13.445 35.3199C13.0185 35.7464 13.0184 36.441 13.445 36.8675L13.7649 37.1874L13.445 37.5073C13.0184 37.9339 13.0184 38.6285 13.445 39.055C13.6583 39.2682 13.9372 39.3749 14.2189 39.3749C14.4978 39.3749 14.7767 39.2682 14.9927 39.055L15.3126 38.735L15.6325 39.055C15.8458 39.2682 16.1247 39.3749 16.4064 39.3749C16.6853 39.3749 16.9642 39.2682 17.1802 39.055C17.6068 38.6284 17.6068 37.9338 17.1802 37.5073L16.8603 37.1874L17.1802 36.8675C17.6068 36.4409 17.6067 35.7464 17.1801 35.3199Z" fill="#1A5832"/>
<path d="M23.7426 35.3199C23.316 34.8933 22.6215 34.8933 22.195 35.3199L21.8751 35.6398L21.5551 35.3199C21.1286 34.8933 20.434 34.8933 20.0075 35.3199C19.581 35.7464 19.5809 36.441 20.0075 36.8675L20.3274 37.1874L20.0075 37.5073C19.5809 37.9339 19.5809 38.6285 20.0075 39.055C20.2208 39.2682 20.4997 39.3749 20.7814 39.3749C21.0603 39.3749 21.3392 39.2682 21.5552 39.055L21.8751 38.735L22.195 39.055C22.4083 39.2682 22.6872 39.3749 22.9689 39.3749C23.2478 39.3749 23.5267 39.2682 23.7427 39.055C24.1693 38.6284 24.1693 37.9338 23.7427 37.5073L23.4228 37.1874L23.7427 36.8675C24.1693 36.4409 24.1692 35.7464 23.7426 35.3199Z" fill="#1A5832"/>
<path d="M30.3051 35.3199C29.8785 34.8933 29.184 34.8933 28.7575 35.3199L28.4375 35.6398L28.1176 35.3199C27.6911 34.8933 26.9965 34.8933 26.57 35.3199C26.1435 35.7464 26.1434 36.441 26.57 36.8675L26.8899 37.1874L26.57 37.5073C26.1434 37.9339 26.1434 38.6285 26.57 39.055C26.7833 39.2682 27.0622 39.3749 27.3439 39.3749C27.6228 39.3749 27.9017 39.2682 28.1177 39.055L28.4376 38.735L28.7575 39.055C28.9708 39.2682 29.2497 39.3749 29.5314 39.3749C29.8103 39.3749 30.0892 39.2682 30.3052 39.055C30.7318 38.6284 30.7318 37.9338 30.3052 37.5073L29.9853 37.1874L30.3052 36.8675C30.7318 36.4409 30.7317 35.7464 30.3051 35.3199Z" fill="#1A5832"/>
<path d="M36.8676 35.3199C36.441 34.8933 35.7465 34.8933 35.32 35.3199L35 35.6398L34.6801 35.3199C34.2536 34.8933 33.559 34.8933 33.1325 35.3199C32.706 35.7464 32.7059 36.441 33.1325 36.8675L33.4524 37.1874L33.1325 37.5073C32.7059 37.9339 32.7059 38.6285 33.1325 39.055C33.3458 39.2682 33.6247 39.3749 33.9064 39.3749C34.1853 39.3749 34.4642 39.2682 34.6802 39.055L35.0001 38.735L35.32 39.055C35.5333 39.2682 35.8122 39.3749 36.0939 39.3749C36.3756 39.3749 36.6517 39.2682 36.8677 39.055C37.2943 38.6284 37.2943 37.9338 36.8677 37.5073L36.5478 37.1874L36.8677 36.8675C37.2943 36.4409 37.2942 35.7464 36.8676 35.3199Z" fill="#1A5832"/>
<path d="M43.4301 35.3199C43.0035 34.8933 42.309 34.8933 41.8825 35.3199L41.5625 35.6398L41.2426 35.3199C40.8161 34.8933 40.1215 34.8933 39.695 35.3199C39.2685 35.7464 39.2684 36.441 39.695 36.8675L40.0149 37.1874L39.695 37.5073C39.2684 37.9339 39.2684 38.6285 39.695 39.055C39.9083 39.2682 40.1872 39.3749 40.4689 39.3749C40.7505 39.3749 41.0267 39.2682 41.2427 39.055L41.5626 38.735L41.8825 39.055C42.0958 39.2682 42.3747 39.3749 42.6564 39.3749C42.9381 39.3749 43.2142 39.2682 43.4302 39.055C43.8568 38.6284 43.8568 37.9338 43.4302 37.5073L43.1103 37.1874L43.4302 36.8675C43.8568 36.4409 43.8567 35.7464 43.4301 35.3199Z" fill="#1A5832"/>
<path d="M7.6566 31.7184H21.875C22.4793 31.7184 22.9688 31.2289 22.9688 30.6246C22.9688 30.0203 22.4793 29.5309 21.875 29.5309H7.6566C7.0523 29.5309 6.56285 30.0203 6.56285 30.6246C6.56285 31.2289 7.0523 31.7184 7.6566 31.7184Z" fill="#1A5832"/>
<path d="M7.6566 27.3434H21.875C22.4793 27.3434 22.9688 26.8539 22.9688 26.2496C22.9688 25.6453 22.4793 25.1559 21.875 25.1559H7.6566C7.0523 25.1559 6.56285 25.6453 6.56285 26.2496C6.56285 26.8539 7.0523 27.3434 7.6566 27.3434Z" fill="#1A5832"/>
</svg>
