<svg width="70" height="62" viewBox="0 0 70 62" fill="none" xmlns="http://www.w3.org/2000/svg">
<path d="M57.2488 13.2685L60.4824 8.96002C60.946 8.33988 61.826 8.2188 62.4402 8.67948C63.0603 9.14311 63.1844 10.0202 62.7207 10.6373L58.5215 16.2363C58.2793 16.5612 57.9072 16.7649 57.4997 16.7915C57.4672 16.7945 57.4318 16.7945 57.3993 16.7945C57.0272 16.7945 56.6728 16.6498 56.41 16.384L53.6105 13.5845C53.0642 13.0382 53.0642 12.1523 53.6105 11.6059C54.1568 11.0596 55.0427 11.0596 55.5891 11.6059L57.2487 13.2655L57.2488 13.2685ZM70 5.59906V15.8638C70 18.7343 68.3817 21.3832 65.5645 23.1255L64.4187 23.8342C62.3545 25.1129 59.8798 25.7508 57.4022 25.7508C54.9246 25.7508 52.4499 25.1129 50.3827 23.8342L49.2399 23.1255C46.4197 21.3832 44.8014 18.7343 44.8014 15.8638V5.59906C44.8014 5.01434 45.1647 4.49169 45.708 4.28787L56.9087 0.0885922C57.2277 -0.0295307 57.5761 -0.0295307 57.8921 0.0885922L69.0928 4.28787C69.6391 4.49163 70 5.01728 70 5.59906ZM67.2005 6.57065L57.3991 2.89701L47.5978 6.57065V15.864C47.5978 17.7451 48.7317 19.5228 50.7074 20.7454L51.8502 21.4541C55.0631 23.4416 59.7261 23.4416 62.939 21.4541L64.0848 20.7454C66.0604 19.5228 67.1944 17.745 67.1944 15.864V6.57065H67.2005ZM70 25.6298V60.1988C70 60.9725 69.374 61.5986 68.6002 61.5986L1.39979 61.5957C0.626108 61.5957 0 60.9696 0 60.1959V15.3976C0 14.6239 0.626048 13.9978 1.39979 13.9978H40.5992C41.3729 13.9978 41.999 14.6239 41.999 15.3976C41.999 16.1713 41.373 16.7974 40.5992 16.7974H2.79987V29.3982H67.1979V25.6301C67.1979 24.8564 67.8239 24.2303 68.5976 24.2303C69.3713 24.2303 69.9974 24.8563 69.9974 25.6301L70 25.6298ZM2.79957 32.1975V34.997H67.1976V32.1975H2.79957ZM67.1976 58.7961V37.7971H2.79957V58.7961H67.1976ZM25.1987 50.3978C25.1987 53.4867 22.6886 55.9968 19.5997 55.9968C17.9194 55.9968 16.4281 55.2379 15.4004 54.0626C14.3727 55.2379 12.8815 55.9968 11.2012 55.9968C8.11227 55.9968 5.60217 53.4867 5.60217 50.3978C5.60217 47.309 8.11227 44.7989 11.2012 44.7989C12.8815 44.7989 14.3727 45.5578 15.4004 46.7331C16.4281 45.5578 17.9194 44.7989 19.5997 44.7989C22.6886 44.7989 25.1987 47.309 25.1987 50.3978ZM13.998 50.3978C13.998 48.8534 12.7429 47.5984 11.1985 47.5984C9.6541 47.5984 8.39901 48.8534 8.39901 50.3978C8.39901 51.9423 9.6541 53.1973 11.1985 53.1973C12.7429 53.1973 13.998 51.9423 13.998 50.3978ZM22.3963 50.3978C22.3963 48.8534 21.1412 47.5984 19.5968 47.5984C18.0524 47.5984 16.7973 48.8534 16.7973 50.3978C16.7973 51.9423 18.0524 53.1973 19.5968 53.1973C21.1412 53.1973 22.3963 51.9423 22.3963 50.3978Z" fill="#1A5832"/>
</svg>
