<svg width="70" height="68" viewBox="0 0 70 68" fill="none" xmlns="http://www.w3.org/2000/svg">
<path d="M15.0927 15.6947C15.0927 14.8258 15.7957 14.1228 16.6646 14.1228H38.0178C38.8867 14.1228 39.5897 14.8258 39.5897 15.6947C39.5897 16.5636 38.8867 17.2666 38.0178 17.2666H16.6646C15.7957 17.2666 15.0927 16.5636 15.0927 15.6947ZM16.6646 23.5544H38.0178C38.8867 23.5544 39.5897 22.8513 39.5897 21.9825C39.5897 21.1136 38.8867 20.4105 38.0178 20.4105H16.6646C15.7957 20.4105 15.0927 21.1136 15.0927 21.9825C15.0927 22.8513 15.7957 23.5544 16.6646 23.5544ZM61.2346 3.9759V25.8722C61.2315 28.0674 59.4508 29.842 57.2586 29.842H12.7406C10.5484 29.842 8.76772 28.0674 8.76466 25.8722V3.9759C8.76773 1.78069 10.5453 0.00306528 12.7406 0H57.2586C59.4539 0.00307078 61.2315 1.78069 61.2346 3.9759ZM58.0907 9.42244H11.9087V25.8728C11.9118 26.3302 12.2833 26.6987 12.7407 26.6987H57.2588C57.7163 26.6987 58.0878 26.3302 58.0908 25.8728L58.0907 9.42244ZM58.0907 3.9759C58.0907 3.51537 57.7192 3.14388 57.2586 3.14388H12.7406C12.28 3.14388 11.9085 3.51537 11.9085 3.9759V6.27856H58.0905L58.0907 3.9759ZM54.9468 20.3398V17.3463C54.9437 15.5687 53.5038 14.1287 51.7261 14.1226H46.0033C44.2257 14.1288 42.7857 15.5686 42.7796 17.3463V20.3398C42.7857 22.1174 44.2256 23.5542 46.0033 23.5542H51.7323C53.5008 23.542 54.9284 22.1082 54.9315 20.3398H54.9468ZM51.7231 17.2665H51.7261C51.7661 17.2696 51.7998 17.3033 51.8029 17.3463V20.3398C51.7998 20.3797 51.7661 20.4104 51.7261 20.4104H46.0033C45.9634 20.4104 45.9297 20.3797 45.9235 20.3398V17.3463C45.9297 17.3033 45.9604 17.2696 46.0033 17.2665H51.7231ZM70 50.065C69.9939 54.5904 68.1947 58.9284 64.9925 62.1249C61.7903 65.321 57.449 67.1171 52.9263 67.114C48.4009 67.1109 44.0629 65.3118 40.8633 62.1096C37.6672 58.9074 35.8711 54.5691 35.8711 50.0434C35.8742 45.5179 37.6703 41.18 40.8724 37.9803C44.0716 34.7812 48.4097 32.9851 52.9355 32.9851C57.461 32.9912 61.7989 34.7934 64.9986 37.9956C68.1977 41.1978 69.9969 45.5391 69.9999 50.0642L70 50.065ZM66.8561 50.065C66.8561 46.3716 65.3916 42.8316 62.782 40.2192C60.1723 37.6064 56.6324 36.1389 52.9416 36.1389C49.2482 36.1358 45.7083 37.6034 43.0958 40.213C40.4831 42.8227 39.0155 46.3626 39.0155 50.0557C39.0155 53.7461 40.48 57.2891 43.0927 59.8984C45.7024 62.5081 49.2423 63.9756 52.9354 63.9756C56.6227 63.9726 60.1596 62.505 62.7695 59.8984C65.3791 57.2888 66.85 53.7556 66.8561 50.065ZM56.7548 42.6382C56.0948 42.1316 55.3241 41.7847 54.5074 41.625V40.839C54.5074 39.9702 53.8044 39.2671 52.9355 39.2671C52.0666 39.2671 51.3636 39.9702 51.3636 40.839V41.625C50.5561 41.7969 49.7978 42.15 49.1469 42.6597C48.2197 43.4272 47.6149 44.5171 47.4583 45.7114L47.4123 45.9693V46.0553H47.4092C47.4031 46.1996 47.4031 46.3439 47.4092 46.4882V46.568C47.3969 47.1667 47.4982 47.7592 47.7101 48.3211C48.5421 50.6238 50.9706 51.244 52.6838 51.6768C54.3969 52.1096 55.0417 52.383 55.2934 52.9018C55.3671 53.1167 55.404 53.3439 55.404 53.5711C55.4009 53.6141 55.4009 53.6602 55.404 53.7031C55.3241 54.922 53.832 55.4808 52.7636 55.4869C51.7903 55.3702 50.5714 54.836 50.5714 53.6325H50.5684C50.5684 52.7636 49.8653 52.0605 48.9964 52.0605C48.1306 52.0605 47.4245 52.7636 47.4245 53.6325C47.3754 55.1062 48.0109 56.5215 49.1468 57.461C49.8069 57.9676 50.5775 58.3145 51.3942 58.4742V59.2602C51.3942 60.1291 52.0973 60.8321 52.9662 60.8321C53.835 60.8321 54.5381 60.129 54.5381 59.2602V58.4742C55.3518 58.3053 56.1162 57.9492 56.7701 57.4365C57.7004 56.6659 58.3052 55.5759 58.468 54.3786C58.468 54.2926 58.468 54.2067 58.5079 54.1207C58.5048 54.0931 58.5048 54.0624 58.5079 54.0347V53.6111V53.522C58.5171 52.9264 58.4158 52.3308 58.2101 51.772C57.3689 49.4693 54.9403 48.8491 53.2272 48.4163C51.514 47.9834 50.8693 47.7101 50.6267 47.1913L50.6237 47.1882C50.5469 46.9733 50.5101 46.7492 50.5131 46.5189V46.3838C50.593 45.1649 52.0851 44.6062 53.1535 44.6062C54.222 44.6062 55.3549 45.2571 55.3549 46.4545V46.4575C55.3549 47.3264 56.061 48.0295 56.9268 48.0295C57.7957 48.0295 58.4987 47.3264 58.4987 46.4575C58.5417 44.9838 57.897 43.5715 56.7548 42.6382ZM32.7278 50.065C32.7278 59.4966 25.387 67.1355 16.3639 67.1355C7.34095 67.1355 0 59.4968 0 50.065C0 40.6332 7.3408 33.0008 16.3639 33.0008C25.3868 33.0008 32.7278 40.6333 32.7278 50.065ZM17.9358 48.4931H22.4244C22.363 47.3694 22.2371 46.2487 22.0468 45.1374C20.7512 45.2786 19.3757 45.3738 17.9665 45.4137L17.9358 48.4931ZM21.267 42.0487C20.4258 39.4391 19.2069 37.5601 17.9358 36.6882V42.2698C19.084 42.2054 20.2016 42.1501 21.2701 42.0396L21.267 42.0487ZM11.4581 42.0487C12.5204 42.1593 13.644 42.2299 14.7893 42.2698L14.7923 36.7036C13.5213 37.5509 12.3024 39.4299 11.4612 42.0396L11.4581 42.0487ZM10.712 45.1374H10.7151C10.5217 46.2488 10.3958 47.3694 10.3375 48.4931H14.7954L14.7923 45.4044C13.377 45.3492 12.0107 45.2693 10.7151 45.1281L10.712 45.1374ZM7.56816 44.6738H7.57123C6.52739 44.4773 5.49887 44.2163 4.48874 43.8878C3.81329 45.34 3.38964 46.8996 3.22993 48.4931H7.15978C7.23039 47.2098 7.38083 45.9295 7.60802 44.6646L7.56816 44.6738ZM3.23 51.637C3.40501 53.2334 3.84712 54.79 4.53487 56.2423C5.54185 55.9138 6.57037 55.6528 7.60817 55.4563C7.39325 54.1944 7.25202 52.9172 7.19369 51.637H3.23ZM10.7212 55.0081C12.0107 54.8668 13.3769 54.7717 14.7923 54.7318V51.637H10.3374C10.3958 52.7638 10.5247 53.8875 10.7212 55.0019L10.7212 55.0081ZM11.4673 58.0906C12.3085 60.691 13.5182 62.5638 14.7923 63.4358V57.8696C13.6441 57.9248 12.5296 57.9801 11.4673 58.0814V58.0906ZM21.2613 58.0906C20.2143 57.9862 19.106 57.9156 17.9362 57.8787V63.4266C19.2103 62.5546 20.42 60.6849 21.2613 58.0813V58.0906ZM22.0073 55.0081C22.2161 53.8936 22.3542 52.7699 22.4249 51.637H17.9363V54.7348C19.3424 54.7808 20.7117 54.8607 22.0074 55.0019L22.0073 55.0081ZM25.1512 55.4717C26.195 55.6682 27.2236 55.9291 28.2337 56.2576C28.9061 54.7993 29.3328 53.2365 29.4986 51.637H25.5688C25.4951 52.9203 25.3446 54.2006 25.1144 55.4655L25.1512 55.4717ZM29.4985 48.4931C29.3235 46.9028 28.8845 45.3493 28.203 43.9032C27.1928 44.2317 26.1643 44.4927 25.1205 44.6892C25.3477 45.948 25.4981 47.2159 25.5687 48.4931H29.4985ZM22.9344 37.9934C23.5423 39.1478 24.0305 40.3574 24.3989 41.607C25.1849 41.4658 25.8604 41.3092 26.499 41.1281H26.4959C25.5042 39.8816 24.3006 38.8193 22.9344 37.9934ZM6.2326 41.1372C6.86812 41.3092 7.56811 41.475 8.33263 41.6162C8.69798 40.3667 9.18917 39.1539 9.79406 37.9995C8.43087 38.8223 7.22433 39.8815 6.23267 41.128L6.2326 41.1372ZM9.79398 62.1218C9.18915 60.9767 8.69794 59.7731 8.33255 58.5297C7.54658 58.671 6.88652 58.8275 6.25099 59.0087C7.23958 60.2459 8.44007 61.296 9.79398 62.1126V62.1218ZM26.4801 58.978C25.8446 58.7968 25.1446 58.6402 24.3893 58.499C24.0208 59.7393 23.5358 60.9429 22.934 62.0911C24.288 61.2744 25.4884 60.2306 26.48 59.0025L26.4801 58.978Z" fill="#1A5832"/>
</svg>
