<svg width="70" height="40" viewBox="0 0 70 40" fill="none" xmlns="http://www.w3.org/2000/svg">
<path d="M41.7641 14.2571C42.9575 14.2571 43.9261 15.2194 43.9293 16.4096C43.9293 17.0838 44.4737 17.6251 45.1448 17.6251C45.8159 17.6251 46.3603 17.0838 46.3603 16.4096C46.354 14.3457 44.9739 12.5352 42.9797 11.9875V11.345C42.9797 10.6739 42.4384 10.1295 41.7641 10.1295C41.0931 10.1295 40.5486 10.6739 40.5486 11.345V11.9875C38.5608 12.5383 37.1839 14.3458 37.1807 16.4096C37.1807 19.8693 40.4221 20.6955 41.4667 20.9646C43.7426 21.547 43.8977 22.3732 43.8977 23.1677V23.1709C43.8977 24.3611 42.9323 25.3233 41.742 25.3233C40.5518 25.3233 39.5864 24.361 39.5864 23.1709C39.5864 22.4967 39.0419 21.9554 38.3708 21.9554C37.6998 21.9554 37.1553 22.4967 37.1553 23.1709C37.1585 25.2347 38.5386 27.0421 40.5265 27.5929V28.2355C40.5265 28.9066 41.071 29.451 41.742 29.451C42.4131 29.451 42.9575 28.9066 42.9575 28.2355V27.5929C44.9581 27.0548 46.3508 25.2411 46.3603 23.1709C46.3603 19.7111 43.119 18.8849 42.0743 18.6159C39.7984 18.0335 39.6433 17.2073 39.6433 16.4127V16.4096C39.6433 15.2321 40.5866 14.2729 41.7641 14.2571Z" fill="#1A5832"/>
<path d="M58.6549 5.06463H22.6895C22.3477 2.49431 18.4827 0 11.3448 0C3.8966 0 0 2.73806 0 5.43811V32.4549C0 35.1612 3.8966 37.893 11.3448 37.893C11.9114 37.893 12.4463 37.893 12.9654 37.8455C14.871 38.8837 17.723 39.5706 21.474 39.5706C27.0578 39.5706 30.6471 38.0386 32.0911 36.1362C32.5343 35.9399 32.8191 35.4999 32.8191 35.0156V34.5123L68.7845 34.5155C69.4555 34.5155 70 33.971 70 33.3V6.28C69.9937 5.6121 69.4524 5.07081 68.7845 5.06448L58.6549 5.06463ZM67.5686 7.49565V15.1052C63.6119 14.5608 60.5034 11.4524 59.959 7.49565H67.5686ZM41.7577 32.0846C38.3833 32.0751 35.1578 30.6823 32.8439 28.226V20.6006C32.8439 19.2236 31.8215 17.8371 29.8463 16.8084C30.5965 13.8171 32.4419 11.2184 35.0217 9.52798C37.5983 7.83453 40.7194 7.17613 43.7612 7.67619C46.8032 8.17949 49.5444 9.8065 51.4437 12.2375C53.3397 14.6685 54.2546 17.7231 54.0045 20.7963C53.7544 23.8668 52.3585 26.7346 50.0921 28.827C47.8257 30.9161 44.8566 32.0778 41.7731 32.0841L41.7577 32.0846ZM15.608 36.2883C14.8894 36.0699 14.2025 35.7565 13.5663 35.3577C13.4112 35.2532 13.2656 35.1393 13.1263 35.0158C12.8383 34.8101 12.6452 34.4935 12.5914 34.1422V30.8502L12.9965 31.0844C13.1675 31.1825 13.3542 31.2617 13.541 31.3503V31.3535C14.7027 31.8789 15.9277 32.2524 17.1875 32.455C18.1815 32.6323 19.1849 32.7431 20.1946 32.7874H20.3402H21.4576H22.6256C22.958 32.7874 23.265 32.7874 23.5753 32.7304H23.5721C24.3888 32.6735 25.1991 32.569 26.0031 32.4139C26.5128 32.3158 27.0066 32.2018 27.4624 32.0815V32.0847C28.4816 31.803 29.4597 31.3883 30.3713 30.8502V34.1422C30.365 34.272 30.327 34.4018 30.2574 34.5157C30.1466 34.7057 30.0042 34.8734 29.8364 35.0159C28.6526 36.0605 25.5979 37.1399 21.4575 37.1399C20.3527 37.143 19.2512 37.0607 18.1592 36.8961C17.295 36.7632 16.4404 36.5605 15.608 36.2883ZM2.46181 5.4386C2.46181 5.06508 2.81001 4.62826 3.43358 4.22309C4.84219 3.29882 7.67838 2.43151 11.3756 2.43151C15.0696 2.43151 17.9153 3.29882 19.3175 4.22309C19.6657 4.42251 19.9601 4.6979 20.1785 5.03343C20.245 5.14739 20.283 5.274 20.2893 5.40695C20.2893 5.78047 19.9475 6.21729 19.3176 6.62246C18.7605 6.96749 18.1622 7.23971 17.5355 7.4328C17.0258 7.61639 16.5036 7.76833 15.9717 7.88545C15.1709 8.06588 14.3574 8.19566 13.5407 8.27479C12.8602 8.3381 12.1384 8.37925 11.3756 8.37925C7.68156 8.37925 4.84537 7.52143 3.43359 6.58767C2.81001 6.17301 2.46183 5.77733 2.46183 5.37216L2.46181 5.4386ZM29.4972 19.4486C30.0955 19.8537 30.4215 20.2589 30.4215 20.6324C30.4215 20.9553 30.1461 21.3383 29.6111 21.7023L29.418 21.8479H29.4149C28.7628 22.2562 28.0601 22.5759 27.3257 22.7975C25.8222 23.266 24.2617 23.5382 22.6884 23.6079H21.4729H20.6151H20.2574C19.5198 23.5667 18.8235 23.4939 18.1682 23.3958C17.4149 23.2787 16.671 23.1141 15.9398 22.902L15.5663 22.7817C15.0472 22.6139 14.5439 22.4019 14.0595 22.1486C13.8665 22.0505 13.686 21.946 13.5341 21.8479C12.9168 21.4428 12.5844 21.0376 12.5844 20.6577C12.5844 20.2937 12.9168 19.8474 13.5341 19.458H13.5309C13.7905 19.2839 14.0627 19.1256 14.3413 18.9895C14.8446 18.7553 15.3668 18.5653 15.8987 18.4134C17.3041 18.0051 18.7538 17.7677 20.2162 17.7012H21.4317H22.6472C24.135 17.7708 25.61 18.0146 27.0408 18.4292C27.8638 18.6603 28.6489 19.0085 29.3737 19.458L29.4972 19.4486ZM30.4215 24.5037V27.3811L30.4183 27.3842C30.3582 27.7736 30.1334 28.1218 29.8042 28.3402C28.5476 29.2012 27.1137 29.7709 25.6069 30.0021C24.8029 30.1572 23.9925 30.2648 23.1759 30.3249H22.7454H21.5299H20.3144C19.618 30.2964 18.9216 30.2236 18.2316 30.1128C17.475 30.0052 16.728 29.8406 15.9968 29.619L15.6075 29.5146C14.8889 29.2962 14.202 28.9828 13.5658 28.584C12.9485 28.1693 12.6162 27.7736 12.6162 27.3843V24.0923L13.0213 24.336L13.5658 24.6019V24.6051C14.3476 24.9501 15.1612 25.2191 15.9968 25.4154C16.3767 25.5135 16.8071 25.5927 17.2028 25.675C18.0955 25.8269 18.9976 25.9314 19.9029 25.982H20.3144H21.4887H22.6726L23.3784 25.9409C24.9516 25.8586 26.5122 25.5863 28.0221 25.1305C28.7976 24.8804 29.5446 24.5512 30.2505 24.1429L30.3708 24.0701L30.4215 24.5037ZM11.3752 10.877C12.1381 10.877 12.8503 10.877 13.5404 10.7884C14.357 10.7219 15.1674 10.6143 15.9714 10.4624C17.4908 10.2028 18.9532 9.67735 20.289 8.90814V12.1495C20.289 12.9598 18.6683 14.0455 15.9714 14.6629C15.1706 14.8464 14.357 14.9762 13.5404 15.049C12.8598 15.1123 12.1381 15.1535 11.3752 15.1535C6.01937 15.1535 2.46149 13.346 2.46149 12.1464V8.90503C4.36077 10.0667 7.34249 10.877 11.3752 10.877ZM11.3752 17.6256H11.9355C11.448 18.0023 11.0302 18.4581 10.7042 18.9804C10.3782 19.4616 10.1914 20.0219 10.1597 20.6011V21.8799C5.49081 21.6362 2.46151 20.0155 2.46151 18.9139V15.6568C4.36079 16.8248 7.34249 17.6256 11.3752 17.6256ZM10.1597 24.3521V28.7045C5.49079 28.4608 2.46149 26.8401 2.46149 25.7385V22.4148C4.82922 23.6873 7.47547 24.3521 10.1597 24.3521ZM2.46149 29.1667C4.82922 30.4423 7.47231 31.1102 10.1597 31.1102V35.0163C10.1629 35.1587 10.1914 35.298 10.242 35.4309C5.5256 35.203 2.46146 33.5665 2.46146 32.4555L2.46149 29.1667ZM27.582 15.9573C25.9994 15.5173 24.366 15.2704 22.72 15.2198V14.3461C24.5813 12.5134 25.7525 10.095 26.0374 7.49625H33.6881H33.685C30.6873 9.48094 28.5127 12.4881 27.5662 15.957L27.582 15.9573ZM22.72 10.2849V7.49622H23.5715C23.4449 8.4585 23.1568 9.39225 22.72 10.2596V10.2849ZM32.8493 32.1074V31.4996C33.1246 31.7117 33.3937 31.9143 33.6596 32.1074H32.8493ZM56.4885 19.791C56.4853 14.8372 53.991 10.2193 49.8507 7.49654H57.5014C58.0712 12.8018 62.2622 16.9929 67.5675 17.5626V22.0195C62.2623 22.5892 58.0711 26.7802 57.5014 32.0855H49.8507C53.991 29.3633 56.4853 24.745 56.4885 19.791ZM67.5675 32.0855H59.9579C60.5024 28.1288 63.6108 25.0203 67.5675 24.4759V32.0855Z" fill="#1A5832"/>
<path d="M48.2817 18.5997C48.2026 18.6155 48.1266 18.6409 48.0538 18.6725C47.981 18.6978 47.9082 18.7327 47.8417 18.777C47.7784 18.8213 47.7183 18.8719 47.6645 18.9321C47.4302 19.1568 47.3004 19.467 47.3004 19.7899C47.3004 20.1128 47.4302 20.423 47.6645 20.6477C47.7183 20.7079 47.7784 20.7585 47.8417 20.8029C47.9082 20.8472 47.981 20.882 48.0538 20.9073C48.2026 20.9738 48.3609 21.0054 48.5255 21.0054H48.7597C48.8357 20.9896 48.9116 20.9643 48.9844 20.9326C49.0604 20.9041 49.13 20.8693 49.1965 20.8282C49.263 20.7807 49.3231 20.73 49.3833 20.6731C49.7631 20.2932 49.8486 19.7108 49.5922 19.2392C49.339 18.7675 48.8072 18.5175 48.2817 18.6219L48.2817 18.5997Z" fill="#1A5832"/>
<path d="M36.1331 19.3282C36.1078 19.2523 36.0698 19.1795 36.0191 19.1193C35.9812 19.0497 35.9337 18.9864 35.8735 18.9326C35.5887 18.6445 35.1771 18.5211 34.7814 18.6002L34.5472 18.6635C34.4744 18.6983 34.4079 18.7363 34.3446 18.7775C34.2085 18.8692 34.0946 18.9832 34.0028 19.1193C33.9584 19.1858 33.9205 19.2554 33.8888 19.3282C33.8635 19.4042 33.8413 19.477 33.8255 19.5561C33.7907 19.7113 33.7907 19.8695 33.8255 20.0246C33.8413 20.1038 33.8635 20.1766 33.8888 20.2525C33.9236 20.3253 33.9616 20.395 34.0028 20.4614C34.0502 20.5279 34.1009 20.5912 34.1579 20.6482C34.3858 20.8761 34.6928 21.0059 35.0157 21.0059C35.3386 21.0027 35.6456 20.8761 35.8735 20.6482C35.9305 20.5944 35.978 20.5311 36.0191 20.4614C36.0698 20.3981 36.1078 20.3285 36.1331 20.2525C36.1679 20.1797 36.19 20.1038 36.2059 20.0246C36.2407 19.8695 36.2407 19.7112 36.2059 19.5561C36.19 19.477 36.1679 19.401 36.1331 19.3282Z" fill="#1A5832"/>
</svg>
