<svg width="1160" height="550" viewBox="0 0 1160 550" fill="none" xmlns="http://www.w3.org/2000/svg">
<g clip-path="url(#clip0_2056_587)">
<rect width="1160" height="550" fill="#387A2B"/>
<circle cx="580" cy="275" r="540" fill="#75C01D"/>
<circle cx="580" cy="275" r="360" fill="#569D24"/>
<circle cx="580" cy="275" r="180" fill="#E3E3E3"/>
<path d="M599.371 -19.9745L815.04 38.2522L656.78 195.913L599.371 -19.9745Z" fill="#FCFCFC"/>
<path d="M89.5413 332.211L284.256 483.503L40.8309 573.934L89.5413 332.211Z" fill="#FCFCFC"/>
<path d="M1030.09 393.92L967.012 632.3L788.568 443.644L1030.09 393.92Z" fill="#FCFCFC"/>
<circle cx="196" cy="37" r="83" fill="#FCFCFC"/>
<circle cx="1072" cy="197" r="102" fill="#FCFCFC"/>
<circle cx="493" cy="440" r="74" fill="#FCFCFC"/>
<rect x="231.5" y="216.5" width="697" height="117" rx="18.5" fill="#FCFCFC" stroke="#1A5832" stroke-width="3"/>
<path d="M348.825 225H253.795C252.258 225 251 226.25 251 227.778V258.333H284.54V313.889H282.444V307.639H283.841V305.556H269.167V303.472H283.841V291.667H272.312C271.334 291.667 270.565 292.431 270.565 293.403V302.083H269.167V297.917C269.167 297.5 268.888 297.222 268.469 297.222C268.049 297.222 267.77 297.5 267.77 297.917V313.889H262.18V269.444H251V322.222C251 323.75 252.258 325 253.795 325H349.524C350.711 325 351.62 324.097 351.62 322.917V269.444H340.44V313.889H334.85V302.778H318.08V300.694H333.103C334.081 300.694 334.85 299.931 334.85 298.958V276.736C334.85 275.764 334.081 275 333.103 275H318.08V258.333H351.62V227.778C351.62 226.25 350.362 225 348.825 225ZM278.251 293.75C279.02 293.75 279.649 294.375 279.649 295.139C279.649 295.903 279.02 296.528 278.251 296.528C277.483 296.528 276.854 295.903 276.854 295.139C276.854 294.375 277.483 293.75 278.251 293.75ZM278.251 298.611C279.02 298.611 279.649 299.236 279.649 300C279.649 300.764 279.02 301.389 278.251 301.389C277.483 301.389 276.854 300.764 276.854 300C276.854 299.236 277.483 298.611 278.251 298.611ZM274.059 293.75C274.827 293.75 275.456 294.375 275.456 295.139C275.456 295.903 274.827 296.528 274.059 296.528C273.29 296.528 272.661 295.903 272.661 295.139C272.661 294.375 273.29 293.75 274.059 293.75ZM274.059 298.611C274.827 298.611 275.456 299.236 275.456 300C275.456 300.764 274.827 301.389 274.059 301.389C273.29 301.389 272.661 300.764 272.661 300C272.661 299.236 273.29 298.611 274.059 298.611ZM270.565 313.889H269.167V307.639H270.565V313.889ZM281.046 313.889H271.962V307.639H281.046V313.889ZM323.67 277.083H329.26C329.679 277.083 329.959 277.361 329.959 277.778C329.959 278.194 329.679 278.472 329.26 278.472H323.67C323.251 278.472 322.971 278.194 322.971 277.778C322.971 277.361 323.251 277.083 323.67 277.083ZM340.44 247.222H306.9V313.889H295.72V247.222H262.18V236.111H340.44V247.222Z" fill="url(#paint0_linear_2056_587)"/>
<path d="M278.95 284.722H267.77L271.264 278.681H271.962V275H274.757V278.681H275.456L278.95 284.722Z" fill="url(#paint1_linear_2056_587)"/>
<path d="M273.709 263.889H273.011V275H273.709V263.889Z" fill="url(#paint2_linear_2056_587)"/>
<path d="M410.874 251.736H391.868V306.25H381.387V251.736H362.381V243.264H410.874V251.736ZM454.895 277.917H427.364V297.847H459.297V306.25H416.883V243.264H459.018V251.667H427.434V269.444H454.965V277.917H454.895ZM489.343 266.528L502.619 243.264H515.057L495.702 274.514L515.756 306.25H503.109L489.483 282.569L475.857 306.25H463.42L483.194 274.514L463.839 243.264H476.207L489.343 266.528ZM571.027 306.25H560.546V279.375H532.386V306.25H521.905V243.264H532.386V270.972H560.546V243.264H571.027V306.25ZM631.049 280.417C631.049 288.125 628.604 294.514 623.782 299.583C618.961 304.653 612.672 307.153 605.056 307.153C597.509 307.153 591.36 304.653 586.679 299.583C581.997 294.514 579.622 288.125 579.622 280.417V269.097C579.622 261.458 581.997 255.069 586.679 250C591.36 244.931 597.509 242.361 604.986 242.361C612.672 242.361 618.961 244.931 623.782 250C628.604 255.069 631.049 261.458 631.049 269.097V280.417ZM620.568 269.028C620.568 263.75 619.171 259.444 616.376 256.111C613.581 252.778 609.807 251.042 604.986 251.042C600.374 251.042 596.741 252.708 594.086 256.111C591.43 259.514 590.103 263.819 590.103 269.028V280.417C590.103 285.694 591.43 290.069 594.086 293.472C596.741 296.875 600.444 298.542 605.056 298.542C609.877 298.542 613.651 296.875 616.446 293.472C619.241 290.069 620.638 285.764 620.638 280.417L620.568 269.028ZM685.761 285.347L685.831 285.625C685.971 292.014 683.875 297.153 679.612 301.181C675.35 305.139 669.62 307.153 662.353 307.153C655.017 307.153 649.077 304.653 644.465 299.722C639.854 294.792 637.548 288.472 637.548 280.764V268.819C637.548 261.181 639.784 254.792 644.326 249.861C648.868 244.931 654.877 242.361 662.074 242.361C669.481 242.361 675.35 244.306 679.612 248.194C683.875 252.083 685.971 257.361 685.831 263.958L685.761 264.236H675.63C675.63 260 674.512 256.667 672.206 254.306C669.9 251.944 666.546 250.764 662.074 250.764C658.021 250.625 654.178 252.569 651.872 255.903C649.357 259.306 648.099 263.542 648.099 268.681V280.764C648.099 285.972 649.357 290.278 651.942 293.611C654.318 296.944 658.231 298.819 662.353 298.681C666.686 298.681 669.97 297.5 672.276 295.208C674.512 292.917 675.63 289.583 675.63 285.347H685.761ZM727.826 249.236H728.455C736.001 249.236 742.22 251.597 747.112 256.389C752.003 261.181 754.518 267.361 754.518 275C754.518 282.569 752.073 288.75 747.112 293.472C742.22 298.194 736.001 300.556 728.455 300.556H727.826V308.819H717.345V300.556H716.506C708.96 300.556 702.741 298.194 697.85 293.472C692.959 288.75 690.513 282.639 690.513 275.069C690.513 267.431 692.959 261.181 697.85 256.389C702.741 251.597 708.96 249.167 716.506 249.167H717.345V240.694H727.826V249.236ZM716.506 257.986C711.545 257.986 707.702 259.514 704.977 262.5C702.252 265.486 700.854 269.722 700.854 275.139C700.854 280.417 702.252 284.583 704.977 287.5C707.702 290.417 711.545 291.875 716.506 291.875H717.345V257.986H716.506ZM727.826 257.986V291.875H728.595C733.486 291.875 737.329 290.417 740.054 287.431C742.779 284.444 744.177 280.347 744.177 275.069C744.177 269.722 742.779 265.486 740.054 262.5C737.329 259.514 733.486 257.986 728.595 257.986H727.826ZM799.238 277.917H771.708V297.847H803.64V306.25H761.226V243.264H803.361V251.667H771.777V269.444H799.308V277.917H799.238ZM820.48 282.361V306.25H809.999V243.264H834.525C841.443 243.264 846.893 245.069 850.806 248.681C854.719 252.292 856.675 257.014 856.675 262.847C856.675 268.75 854.719 273.472 850.806 277.083C846.893 280.625 841.443 282.431 834.525 282.431H820.48V282.361ZM820.48 273.958H834.525C838.438 273.958 841.303 272.917 843.259 270.833C845.216 268.681 846.334 265.833 846.194 262.917C846.264 260 845.216 257.083 843.259 254.931C841.303 252.778 838.368 251.736 834.525 251.736H820.48V273.958ZM893.569 291.528H868.903L863.872 306.25H853.251L876.38 243.264H886.302L909.151 306.25H898.461L893.569 291.528ZM871.978 282.778H890.565L881.481 255.833H881.201L871.978 282.778Z" fill="url(#paint3_linear_2056_587)"/>
</g>
<defs>
<linearGradient id="paint0_linear_2056_587" x1="301.31" y1="325" x2="301.31" y2="225" gradientUnits="userSpaceOnUse">
<stop stop-color="#1A5832"/>
<stop offset="0.75" stop-color="#387A2B"/>
<stop offset="1" stop-color="#569D24"/>
</linearGradient>
<linearGradient id="paint1_linear_2056_587" x1="273.36" y1="284.722" x2="273.36" y2="275" gradientUnits="userSpaceOnUse">
<stop stop-color="#1A5832"/>
<stop offset="0.75" stop-color="#387A2B"/>
<stop offset="1" stop-color="#569D24"/>
</linearGradient>
<linearGradient id="paint2_linear_2056_587" x1="273.36" y1="275" x2="273.36" y2="263.889" gradientUnits="userSpaceOnUse">
<stop stop-color="#1A5832"/>
<stop offset="0.75" stop-color="#387A2B"/>
<stop offset="1" stop-color="#569D24"/>
</linearGradient>
<linearGradient id="paint3_linear_2056_587" x1="635.766" y1="308.819" x2="635.766" y2="240.694" gradientUnits="userSpaceOnUse">
<stop stop-color="#1A5832"/>
<stop offset="0.75" stop-color="#387A2B"/>
<stop offset="1" stop-color="#569D24"/>
</linearGradient>
<clipPath id="clip0_2056_587">
<rect width="1160" height="550" fill="white"/>
</clipPath>
</defs>
</svg>
