<svg width="1160" height="550" viewBox="0 0 1160 550" fill="none" xmlns="http://www.w3.org/2000/svg">
<g clip-path="url(#clip0_2004_110)">
<rect width="1160" height="550" fill="#387A2B"/>
<circle cx="565" cy="401" r="69" fill="#FCFCFC"/>
<circle cx="990" cy="142" r="106" fill="#FCFCFC"/>
<path d="M783.873 337.244L1022.54 275.197L956.941 512.911L783.873 337.244Z" fill="#FCFCFC"/>
<path d="M269.707 225.428L320.072 495.102L61.3452 403.883L269.707 225.428Z" fill="#FCFCFC"/>
<path d="M593.163 25.5269L771.592 188.468L541.267 261.522L593.163 25.5269Z" fill="#FCFCFC"/>
<circle cx="189.5" cy="96.5" r="96.5" fill="#FCFCFC"/>
<circle cx="157" cy="275" r="423" fill="#569D24"/>
</g>
<rect x="0.5" y="0.5" width="1159" height="549" stroke="black"/>
<path d="M15.7793 156.031H22.2285L31.7246 183.174L41.2207 156.031H47.6699L34.3145 193H29.1348L15.7793 156.031ZM12.3008 156.031H18.7246L19.8926 182.488V193H12.3008V156.031ZM44.7246 156.031H51.1738V193H43.5566V182.488L44.7246 156.031ZM72.2227 186.805V174.566C72.2227 173.686 72.0788 172.933 71.791 172.307C71.5033 171.663 71.0547 171.164 70.4453 170.809C69.8529 170.453 69.0827 170.275 68.1348 170.275C67.3223 170.275 66.6198 170.419 66.0273 170.707C65.4349 170.978 64.9779 171.376 64.6562 171.9C64.3346 172.408 64.1738 173.009 64.1738 173.703H56.8613C56.8613 172.535 57.1322 171.426 57.6738 170.377C58.2155 169.327 59.0026 168.405 60.0352 167.609C61.0677 166.797 62.2949 166.162 63.7168 165.705C65.1556 165.248 66.7637 165.02 68.541 165.02C70.6738 165.02 72.5697 165.375 74.2285 166.086C75.8874 166.797 77.1908 167.863 78.1387 169.285C79.1035 170.707 79.5859 172.484 79.5859 174.617V186.373C79.5859 187.88 79.679 189.115 79.8652 190.08C80.0514 191.028 80.3223 191.857 80.6777 192.568V193H73.2891C72.9336 192.255 72.6628 191.324 72.4766 190.207C72.3073 189.073 72.2227 187.939 72.2227 186.805ZM73.1875 176.268L73.2383 180.406H69.1504C68.1855 180.406 67.3477 180.516 66.6367 180.736C65.9258 180.956 65.3418 181.27 64.8848 181.676C64.4277 182.065 64.0892 182.522 63.8691 183.047C63.666 183.572 63.5645 184.147 63.5645 184.773C63.5645 185.4 63.7083 185.967 63.9961 186.475C64.2839 186.965 64.6986 187.355 65.2402 187.643C65.7819 187.913 66.4167 188.049 67.1445 188.049C68.2448 188.049 69.2012 187.829 70.0137 187.389C70.8262 186.949 71.4525 186.407 71.8926 185.764C72.3496 185.12 72.5866 184.511 72.6035 183.936L74.5332 187.033C74.2624 187.727 73.89 188.447 73.416 189.191C72.959 189.936 72.375 190.639 71.6641 191.299C70.9531 191.942 70.0983 192.475 69.0996 192.898C68.1009 193.305 66.916 193.508 65.5449 193.508C63.8014 193.508 62.2188 193.161 60.7969 192.467C59.3919 191.756 58.2747 190.783 57.4453 189.547C56.6328 188.294 56.2266 186.872 56.2266 185.281C56.2266 183.842 56.4974 182.564 57.0391 181.447C57.5807 180.33 58.3763 179.391 59.4258 178.629C60.4922 177.85 61.821 177.266 63.4121 176.877C65.0033 176.471 66.8483 176.268 68.9473 176.268H73.1875ZM92.5098 182.793L101.727 165.527H109.039V193H101.727V175.709L92.5098 193H85.1973V165.527H92.5098V182.793ZM100.889 154.482H106.094C106.094 155.938 105.73 157.233 105.002 158.367C104.291 159.484 103.275 160.365 101.955 161.008C100.635 161.634 99.0775 161.947 97.2832 161.947C94.5579 161.947 92.3997 161.253 90.8086 159.865C89.2344 158.477 88.4473 156.683 88.4473 154.482H93.627C93.627 155.363 93.8978 156.15 94.4395 156.844C94.998 157.538 95.946 157.885 97.2832 157.885C98.6035 157.885 99.5345 157.538 100.076 156.844C100.618 156.15 100.889 155.363 100.889 154.482ZM126.025 187.795C126.923 187.795 127.718 187.626 128.412 187.287C129.106 186.932 129.648 186.441 130.037 185.814C130.443 185.171 130.655 184.418 130.672 183.555H137.553C137.536 185.484 137.02 187.202 136.004 188.709C134.988 190.199 133.626 191.375 131.916 192.238C130.206 193.085 128.294 193.508 126.178 193.508C124.045 193.508 122.183 193.152 120.592 192.441C119.018 191.73 117.706 190.749 116.656 189.496C115.607 188.227 114.82 186.754 114.295 185.078C113.77 183.385 113.508 181.574 113.508 179.645V178.908C113.508 176.962 113.77 175.15 114.295 173.475C114.82 171.782 115.607 170.309 116.656 169.057C117.706 167.787 119.018 166.797 120.592 166.086C122.166 165.375 124.011 165.02 126.127 165.02C128.378 165.02 130.35 165.451 132.043 166.314C133.753 167.178 135.09 168.413 136.055 170.021C137.036 171.613 137.536 173.5 137.553 175.684H130.672C130.655 174.77 130.46 173.94 130.088 173.195C129.732 172.451 129.208 171.858 128.514 171.418C127.837 170.961 126.999 170.732 126 170.732C124.934 170.732 124.062 170.961 123.385 171.418C122.708 171.858 122.183 172.467 121.811 173.246C121.438 174.008 121.176 174.88 121.023 175.861C120.888 176.826 120.82 177.842 120.82 178.908V179.645C120.82 180.711 120.888 181.735 121.023 182.717C121.159 183.699 121.413 184.57 121.785 185.332C122.174 186.094 122.708 186.695 123.385 187.135C124.062 187.575 124.942 187.795 126.025 187.795ZM149.588 165.527V193H142.275V165.527H149.588ZM167.438 165.527L155.605 182.717H148.293L147.404 175.963H152.254L158.17 165.527H167.438ZM158.5 193L151.746 181.396L158.119 177.867L168.301 193H158.5ZM185.871 186.805V174.566C185.871 173.686 185.727 172.933 185.439 172.307C185.152 171.663 184.703 171.164 184.094 170.809C183.501 170.453 182.731 170.275 181.783 170.275C180.971 170.275 180.268 170.419 179.676 170.707C179.083 170.978 178.626 171.376 178.305 171.9C177.983 172.408 177.822 173.009 177.822 173.703H170.51C170.51 172.535 170.781 171.426 171.322 170.377C171.864 169.327 172.651 168.405 173.684 167.609C174.716 166.797 175.943 166.162 177.365 165.705C178.804 165.248 180.412 165.02 182.189 165.02C184.322 165.02 186.218 165.375 187.877 166.086C189.536 166.797 190.839 167.863 191.787 169.285C192.752 170.707 193.234 172.484 193.234 174.617V186.373C193.234 187.88 193.327 189.115 193.514 190.08C193.7 191.028 193.971 191.857 194.326 192.568V193H186.938C186.582 192.255 186.311 191.324 186.125 190.207C185.956 189.073 185.871 187.939 185.871 186.805ZM186.836 176.268L186.887 180.406H182.799C181.834 180.406 180.996 180.516 180.285 180.736C179.574 180.956 178.99 181.27 178.533 181.676C178.076 182.065 177.738 182.522 177.518 183.047C177.314 183.572 177.213 184.147 177.213 184.773C177.213 185.4 177.357 185.967 177.645 186.475C177.932 186.965 178.347 187.355 178.889 187.643C179.43 187.913 180.065 188.049 180.793 188.049C181.893 188.049 182.85 187.829 183.662 187.389C184.475 186.949 185.101 186.407 185.541 185.764C185.998 185.12 186.235 184.511 186.252 183.936L188.182 187.033C187.911 187.727 187.538 188.447 187.064 189.191C186.607 189.936 186.023 190.639 185.312 191.299C184.602 191.942 183.747 192.475 182.748 192.898C181.749 193.305 180.564 193.508 179.193 193.508C177.45 193.508 175.867 193.161 174.445 192.467C173.04 191.756 171.923 190.783 171.094 189.547C170.281 188.294 169.875 186.872 169.875 185.281C169.875 183.842 170.146 182.564 170.688 181.447C171.229 180.33 172.025 179.391 173.074 178.629C174.141 177.85 175.469 177.266 177.061 176.877C178.652 176.471 180.497 176.268 182.596 176.268H186.836ZM204.787 179.289H212.201L204.559 193H197.17L204.787 179.289ZM209.713 165.527H221.773V193H214.461V171.189H209.713C208.714 171.189 207.885 171.376 207.225 171.748C206.564 172.104 206.074 172.569 205.752 173.145C205.447 173.703 205.295 174.279 205.295 174.871C205.295 175.447 205.447 176.005 205.752 176.547C206.057 177.089 206.531 177.537 207.174 177.893C207.817 178.248 208.621 178.426 209.586 178.426H217.178V183.402H209.586C207.775 183.402 206.15 183.182 204.711 182.742C203.289 182.302 202.07 181.693 201.055 180.914C200.056 180.118 199.286 179.196 198.744 178.146C198.219 177.08 197.957 175.912 197.957 174.643C197.957 173.322 198.228 172.112 198.77 171.012C199.311 169.911 200.09 168.947 201.105 168.117C202.121 167.288 203.348 166.653 204.787 166.213C206.243 165.756 207.885 165.527 209.713 165.527ZM248.23 170.809V203.562H240.918V165.527H247.697L248.23 170.809ZM265.623 178.959V179.492C265.623 181.49 265.386 183.343 264.912 185.053C264.455 186.762 263.778 188.252 262.881 189.521C261.984 190.774 260.867 191.756 259.529 192.467C258.209 193.161 256.686 193.508 254.959 193.508C253.283 193.508 251.827 193.169 250.592 192.492C249.356 191.815 248.315 190.867 247.469 189.648C246.639 188.413 245.971 186.982 245.463 185.357C244.955 183.732 244.566 181.989 244.295 180.127V178.73C244.566 176.733 244.955 174.905 245.463 173.246C245.971 171.57 246.639 170.123 247.469 168.904C248.315 167.669 249.348 166.712 250.566 166.035C251.802 165.358 253.249 165.02 254.908 165.02C256.652 165.02 258.184 165.35 259.504 166.01C260.841 166.67 261.958 167.618 262.855 168.854C263.77 170.089 264.455 171.562 264.912 173.271C265.386 174.981 265.623 176.877 265.623 178.959ZM258.285 179.492V178.959C258.285 177.791 258.184 176.716 257.98 175.734C257.794 174.736 257.49 173.864 257.066 173.119C256.66 172.374 256.118 171.799 255.441 171.393C254.781 170.969 253.977 170.758 253.029 170.758C252.031 170.758 251.176 170.919 250.465 171.24C249.771 171.562 249.204 172.027 248.764 172.637C248.324 173.246 247.993 173.974 247.773 174.82C247.553 175.667 247.418 176.623 247.367 177.689V181.219C247.452 182.471 247.689 183.597 248.078 184.596C248.467 185.577 249.068 186.356 249.881 186.932C250.693 187.507 251.76 187.795 253.08 187.795C254.045 187.795 254.857 187.583 255.518 187.16C256.178 186.72 256.711 186.119 257.117 185.357C257.54 184.596 257.837 183.715 258.006 182.717C258.192 181.718 258.285 180.643 258.285 179.492ZM284.996 186.805V174.566C284.996 173.686 284.852 172.933 284.564 172.307C284.277 171.663 283.828 171.164 283.219 170.809C282.626 170.453 281.856 170.275 280.908 170.275C280.096 170.275 279.393 170.419 278.801 170.707C278.208 170.978 277.751 171.376 277.43 171.9C277.108 172.408 276.947 173.009 276.947 173.703H269.635C269.635 172.535 269.906 171.426 270.447 170.377C270.989 169.327 271.776 168.405 272.809 167.609C273.841 166.797 275.068 166.162 276.49 165.705C277.929 165.248 279.537 165.02 281.314 165.02C283.447 165.02 285.343 165.375 287.002 166.086C288.661 166.797 289.964 167.863 290.912 169.285C291.877 170.707 292.359 172.484 292.359 174.617V186.373C292.359 187.88 292.452 189.115 292.639 190.08C292.825 191.028 293.096 191.857 293.451 192.568V193H286.062C285.707 192.255 285.436 191.324 285.25 190.207C285.081 189.073 284.996 187.939 284.996 186.805ZM285.961 176.268L286.012 180.406H281.924C280.959 180.406 280.121 180.516 279.41 180.736C278.699 180.956 278.115 181.27 277.658 181.676C277.201 182.065 276.863 182.522 276.643 183.047C276.439 183.572 276.338 184.147 276.338 184.773C276.338 185.4 276.482 185.967 276.77 186.475C277.057 186.965 277.472 187.355 278.014 187.643C278.555 187.913 279.19 188.049 279.918 188.049C281.018 188.049 281.975 187.829 282.787 187.389C283.6 186.949 284.226 186.407 284.666 185.764C285.123 185.12 285.36 184.511 285.377 183.936L287.307 187.033C287.036 187.727 286.663 188.447 286.189 189.191C285.732 189.936 285.148 190.639 284.438 191.299C283.727 191.942 282.872 192.475 281.873 192.898C280.874 193.305 279.689 193.508 278.318 193.508C276.575 193.508 274.992 193.161 273.57 192.467C272.165 191.756 271.048 190.783 270.219 189.547C269.406 188.294 269 186.872 269 185.281C269 183.842 269.271 182.564 269.812 181.447C270.354 180.33 271.15 179.391 272.199 178.629C273.266 177.85 274.594 177.266 276.186 176.877C277.777 176.471 279.622 176.268 281.721 176.268H285.961ZM309.346 187.795C310.243 187.795 311.038 187.626 311.732 187.287C312.426 186.932 312.968 186.441 313.357 185.814C313.764 185.171 313.975 184.418 313.992 183.555H320.873C320.856 185.484 320.34 187.202 319.324 188.709C318.309 190.199 316.946 191.375 315.236 192.238C313.527 193.085 311.614 193.508 309.498 193.508C307.365 193.508 305.503 193.152 303.912 192.441C302.338 191.73 301.026 190.749 299.977 189.496C298.927 188.227 298.14 186.754 297.615 185.078C297.09 183.385 296.828 181.574 296.828 179.645V178.908C296.828 176.962 297.09 175.15 297.615 173.475C298.14 171.782 298.927 170.309 299.977 169.057C301.026 167.787 302.338 166.797 303.912 166.086C305.486 165.375 307.331 165.02 309.447 165.02C311.699 165.02 313.671 165.451 315.363 166.314C317.073 167.178 318.41 168.413 319.375 170.021C320.357 171.613 320.856 173.5 320.873 175.684H313.992C313.975 174.77 313.781 173.94 313.408 173.195C313.053 172.451 312.528 171.858 311.834 171.418C311.157 170.961 310.319 170.732 309.32 170.732C308.254 170.732 307.382 170.961 306.705 171.418C306.028 171.858 305.503 172.467 305.131 173.246C304.758 174.008 304.496 174.88 304.344 175.861C304.208 176.826 304.141 177.842 304.141 178.908V179.645C304.141 180.711 304.208 181.735 304.344 182.717C304.479 183.699 304.733 184.57 305.105 185.332C305.495 186.094 306.028 186.695 306.705 187.135C307.382 187.575 308.262 187.795 309.346 187.795ZM343.598 165.527V171.266H330.293V165.527H343.598ZM332.4 165.527V193H325.088V165.527H332.4ZM348.93 165.527V193H341.592V165.527H348.93ZM361.879 170.809V203.562H354.566V165.527H361.346L361.879 170.809ZM379.271 178.959V179.492C379.271 181.49 379.035 183.343 378.561 185.053C378.104 186.762 377.426 188.252 376.529 189.521C375.632 190.774 374.515 191.756 373.178 192.467C371.857 193.161 370.334 193.508 368.607 193.508C366.932 193.508 365.476 193.169 364.24 192.492C363.005 191.815 361.964 190.867 361.117 189.648C360.288 188.413 359.619 186.982 359.111 185.357C358.604 183.732 358.214 181.989 357.943 180.127V178.73C358.214 176.733 358.604 174.905 359.111 173.246C359.619 171.57 360.288 170.123 361.117 168.904C361.964 167.669 362.996 166.712 364.215 166.035C365.451 165.358 366.898 165.02 368.557 165.02C370.3 165.02 371.832 165.35 373.152 166.01C374.49 166.67 375.607 167.618 376.504 168.854C377.418 170.089 378.104 171.562 378.561 173.271C379.035 174.981 379.271 176.877 379.271 178.959ZM371.934 179.492V178.959C371.934 177.791 371.832 176.716 371.629 175.734C371.443 174.736 371.138 173.864 370.715 173.119C370.309 172.374 369.767 171.799 369.09 171.393C368.43 170.969 367.626 170.758 366.678 170.758C365.679 170.758 364.824 170.919 364.113 171.24C363.419 171.562 362.852 172.027 362.412 172.637C361.972 173.246 361.642 173.974 361.422 174.82C361.202 175.667 361.066 176.623 361.016 177.689V181.219C361.1 182.471 361.337 183.597 361.727 184.596C362.116 185.577 362.717 186.356 363.529 186.932C364.342 187.507 365.408 187.795 366.729 187.795C367.693 187.795 368.506 187.583 369.166 187.16C369.826 186.72 370.359 186.119 370.766 185.357C371.189 184.596 371.485 183.715 371.654 182.717C371.84 181.718 371.934 180.643 371.934 179.492ZM382.648 179.543V179.01C382.648 176.995 382.936 175.142 383.512 173.449C384.087 171.74 384.925 170.258 386.025 169.006C387.126 167.753 388.48 166.78 390.088 166.086C391.696 165.375 393.541 165.02 395.623 165.02C397.705 165.02 399.559 165.375 401.184 166.086C402.809 166.78 404.171 167.753 405.271 169.006C406.389 170.258 407.235 171.74 407.811 173.449C408.386 175.142 408.674 176.995 408.674 179.01V179.543C408.674 181.54 408.386 183.394 407.811 185.104C407.235 186.796 406.389 188.277 405.271 189.547C404.171 190.799 402.817 191.773 401.209 192.467C399.601 193.161 397.756 193.508 395.674 193.508C393.592 193.508 391.738 193.161 390.113 192.467C388.505 191.773 387.143 190.799 386.025 189.547C384.925 188.277 384.087 186.796 383.512 185.104C382.936 183.394 382.648 181.54 382.648 179.543ZM389.961 179.01V179.543C389.961 180.694 390.062 181.769 390.266 182.768C390.469 183.766 390.79 184.646 391.23 185.408C391.688 186.153 392.28 186.737 393.008 187.16C393.736 187.583 394.624 187.795 395.674 187.795C396.689 187.795 397.561 187.583 398.289 187.16C399.017 186.737 399.601 186.153 400.041 185.408C400.481 184.646 400.803 183.766 401.006 182.768C401.226 181.769 401.336 180.694 401.336 179.543V179.01C401.336 177.893 401.226 176.843 401.006 175.861C400.803 174.863 400.473 173.982 400.016 173.221C399.576 172.442 398.992 171.833 398.264 171.393C397.536 170.952 396.656 170.732 395.623 170.732C394.59 170.732 393.71 170.952 392.982 171.393C392.271 171.833 391.688 172.442 391.23 173.221C390.79 173.982 390.469 174.863 390.266 175.861C390.062 176.843 389.961 177.893 389.961 179.01ZM416.291 165.527H423.604L423.375 174.719C423.307 177.664 422.969 180.195 422.359 182.311C421.75 184.426 420.938 186.204 419.922 187.643C418.906 189.081 417.747 190.232 416.443 191.096C415.157 191.942 413.803 192.577 412.381 193H411.01L410.934 187.363L411.695 187.287C412.559 186.39 413.27 185.518 413.828 184.672C414.387 183.809 414.818 182.903 415.123 181.955C415.428 181.007 415.648 179.949 415.783 178.781C415.936 177.613 416.029 176.259 416.062 174.719L416.291 165.527ZM418.271 165.527H436.477V193H429.189V171.393H418.271V165.527ZM409.334 187.287H440.412V201.252H433.1V193H416.824V201.252H409.334V187.287ZM458.973 186.805V174.566C458.973 173.686 458.829 172.933 458.541 172.307C458.253 171.663 457.805 171.164 457.195 170.809C456.603 170.453 455.833 170.275 454.885 170.275C454.072 170.275 453.37 170.419 452.777 170.707C452.185 170.978 451.728 171.376 451.406 171.9C451.085 172.408 450.924 173.009 450.924 173.703H443.611C443.611 172.535 443.882 171.426 444.424 170.377C444.965 169.327 445.753 168.405 446.785 167.609C447.818 166.797 449.045 166.162 450.467 165.705C451.906 165.248 453.514 165.02 455.291 165.02C457.424 165.02 459.32 165.375 460.979 166.086C462.637 166.797 463.941 167.863 464.889 169.285C465.854 170.707 466.336 172.484 466.336 174.617V186.373C466.336 187.88 466.429 189.115 466.615 190.08C466.801 191.028 467.072 191.857 467.428 192.568V193H460.039C459.684 192.255 459.413 191.324 459.227 190.207C459.057 189.073 458.973 187.939 458.973 186.805ZM459.938 176.268L459.988 180.406H455.9C454.936 180.406 454.098 180.516 453.387 180.736C452.676 180.956 452.092 181.27 451.635 181.676C451.178 182.065 450.839 182.522 450.619 183.047C450.416 183.572 450.314 184.147 450.314 184.773C450.314 185.4 450.458 185.967 450.746 186.475C451.034 186.965 451.449 187.355 451.99 187.643C452.532 187.913 453.167 188.049 453.895 188.049C454.995 188.049 455.951 187.829 456.764 187.389C457.576 186.949 458.202 186.407 458.643 185.764C459.1 185.12 459.337 184.511 459.354 183.936L461.283 187.033C461.012 187.727 460.64 188.447 460.166 189.191C459.709 189.936 459.125 190.639 458.414 191.299C457.703 191.942 456.848 192.475 455.85 192.898C454.851 193.305 453.666 193.508 452.295 193.508C450.551 193.508 448.969 193.161 447.547 192.467C446.142 191.756 445.025 190.783 444.195 189.547C443.383 188.294 442.977 186.872 442.977 185.281C442.977 183.842 443.247 182.564 443.789 181.447C444.331 180.33 445.126 179.391 446.176 178.629C447.242 177.85 448.571 177.266 450.162 176.877C451.753 176.471 453.598 176.268 455.697 176.268H459.938ZM481.672 182.641L470.246 165.527H479.311L485.15 175.887H490.406L489.518 182.641H481.672ZM485.252 181.396L478.98 193H470.17L479.285 177.867L485.252 181.396ZM495.154 165.527V193H487.842V165.527H495.154ZM512.826 165.527L501.4 182.641H493.555L492.666 175.887H497.922L503.736 165.527H512.826ZM504.066 193L497.795 181.396L503.99 177.867L513.055 193H504.066ZM531.438 186.805V174.566C531.438 173.686 531.294 172.933 531.006 172.307C530.718 171.663 530.27 171.164 529.66 170.809C529.068 170.453 528.298 170.275 527.35 170.275C526.537 170.275 525.835 170.419 525.242 170.707C524.65 170.978 524.193 171.376 523.871 171.9C523.549 172.408 523.389 173.009 523.389 173.703H516.076C516.076 172.535 516.347 171.426 516.889 170.377C517.43 169.327 518.217 168.405 519.25 167.609C520.283 166.797 521.51 166.162 522.932 165.705C524.37 165.248 525.979 165.02 527.756 165.02C529.889 165.02 531.785 165.375 533.443 166.086C535.102 166.797 536.406 167.863 537.354 169.285C538.318 170.707 538.801 172.484 538.801 174.617V186.373C538.801 187.88 538.894 189.115 539.08 190.08C539.266 191.028 539.537 191.857 539.893 192.568V193H532.504C532.148 192.255 531.878 191.324 531.691 190.207C531.522 189.073 531.438 187.939 531.438 186.805ZM532.402 176.268L532.453 180.406H528.365C527.4 180.406 526.562 180.516 525.852 180.736C525.141 180.956 524.557 181.27 524.1 181.676C523.643 182.065 523.304 182.522 523.084 183.047C522.881 183.572 522.779 184.147 522.779 184.773C522.779 185.4 522.923 185.967 523.211 186.475C523.499 186.965 523.913 187.355 524.455 187.643C524.997 187.913 525.632 188.049 526.359 188.049C527.46 188.049 528.416 187.829 529.229 187.389C530.041 186.949 530.667 186.407 531.107 185.764C531.564 185.12 531.801 184.511 531.818 183.936L533.748 187.033C533.477 187.727 533.105 188.447 532.631 189.191C532.174 189.936 531.59 190.639 530.879 191.299C530.168 191.942 529.313 192.475 528.314 192.898C527.316 193.305 526.131 193.508 524.76 193.508C523.016 193.508 521.434 193.161 520.012 192.467C518.607 191.756 517.49 190.783 516.66 189.547C515.848 188.294 515.441 186.872 515.441 185.281C515.441 183.842 515.712 182.564 516.254 181.447C516.796 180.33 517.591 179.391 518.641 178.629C519.707 177.85 521.036 177.266 522.627 176.877C524.218 176.471 526.063 176.268 528.162 176.268H532.402ZM552.689 156.031L551.852 181.701H545.758L544.895 156.031H552.689ZM544.691 189.648C544.691 188.565 545.064 187.668 545.809 186.957C546.57 186.229 547.569 185.865 548.805 185.865C550.057 185.865 551.056 186.229 551.801 186.957C552.546 187.668 552.918 188.565 552.918 189.648C552.918 190.698 552.546 191.587 551.801 192.314C551.056 193.042 550.057 193.406 548.805 193.406C547.569 193.406 546.57 193.042 545.809 192.314C545.064 191.587 544.691 190.698 544.691 189.648Z" fill="#1A5832"/>
<path d="M133.99 315.168H148.053L147.613 332.844C147.483 338.508 146.832 343.374 145.66 347.443C144.488 351.512 142.926 354.93 140.973 357.697C139.02 360.464 136.79 362.678 134.283 364.338C131.809 365.965 129.205 367.186 126.471 368H123.834L123.688 357.16L125.152 357.014C126.812 355.288 128.18 353.612 129.254 351.984C130.328 350.324 131.158 348.583 131.744 346.76C132.33 344.937 132.753 342.902 133.014 340.656C133.307 338.41 133.486 335.806 133.551 332.844L133.99 315.168ZM137.799 315.168H172.809V368H158.795V326.447H137.799V315.168ZM120.611 357.014H180.377V383.869H166.314V368H135.016V383.869H120.611V357.014ZM185.309 342.121V341.096C185.309 337.222 185.862 333.658 186.969 330.402C188.076 327.115 189.687 324.266 191.803 321.857C193.919 319.449 196.523 317.577 199.615 316.242C202.708 314.875 206.256 314.191 210.26 314.191C214.264 314.191 217.828 314.875 220.953 316.242C224.078 317.577 226.699 319.449 228.814 321.857C230.963 324.266 232.59 327.115 233.697 330.402C234.804 333.658 235.357 337.222 235.357 341.096V342.121C235.357 345.962 234.804 349.527 233.697 352.814C232.59 356.07 230.963 358.918 228.814 361.359C226.699 363.768 224.094 365.64 221.002 366.975C217.91 368.309 214.361 368.977 210.357 368.977C206.354 368.977 202.789 368.309 199.664 366.975C196.572 365.64 193.951 363.768 191.803 361.359C189.687 358.918 188.076 356.07 186.969 352.814C185.862 349.527 185.309 345.962 185.309 342.121ZM199.371 341.096V342.121C199.371 344.335 199.566 346.402 199.957 348.322C200.348 350.243 200.966 351.936 201.812 353.4C202.691 354.833 203.831 355.956 205.23 356.77C206.63 357.583 208.339 357.99 210.357 357.99C212.311 357.99 213.987 357.583 215.387 356.77C216.786 355.956 217.91 354.833 218.756 353.4C219.602 351.936 220.221 350.243 220.611 348.322C221.035 346.402 221.246 344.335 221.246 342.121V341.096C221.246 338.947 221.035 336.929 220.611 335.041C220.221 333.12 219.586 331.428 218.707 329.963C217.861 328.465 216.738 327.294 215.338 326.447C213.938 325.601 212.245 325.178 210.26 325.178C208.274 325.178 206.581 325.601 205.182 326.447C203.814 327.294 202.691 328.465 201.812 329.963C200.966 331.428 200.348 333.12 199.957 335.041C199.566 336.929 199.371 338.947 199.371 341.096ZM304.889 295.881H307.525V308.82H306.646C303.489 308.82 300.527 309.26 297.76 310.139C295.025 311.018 292.617 312.352 290.533 314.143C288.482 315.9 286.871 318.13 285.699 320.832C284.56 323.534 283.99 326.708 283.99 330.354V342.805C283.99 345.083 284.186 347.069 284.576 348.762C284.967 350.454 285.553 351.854 286.334 352.961C287.115 354.068 288.076 354.898 289.215 355.451C290.387 356.005 291.738 356.281 293.268 356.281C294.537 356.281 295.709 355.988 296.783 355.402C297.857 354.816 298.785 353.986 299.566 352.912C300.38 351.838 300.999 350.585 301.422 349.152C301.845 347.72 302.057 346.158 302.057 344.465C302.057 342.642 301.829 340.998 301.373 339.533C300.917 338.068 300.266 336.831 299.42 335.822C298.606 334.781 297.613 333.999 296.441 333.479C295.302 332.925 294.049 332.648 292.682 332.648C290.598 332.648 288.824 333.12 287.359 334.064C285.927 334.976 284.837 336.148 284.088 337.58C283.372 339.012 283.014 340.461 283.014 341.926L279.059 337.922C278.993 335.969 279.368 333.951 280.182 331.867C280.995 329.784 282.216 327.847 283.844 326.057C285.471 324.266 287.506 322.818 289.947 321.711C292.389 320.604 295.221 320.051 298.443 320.051C301.699 320.051 304.563 320.669 307.037 321.906C309.544 323.143 311.643 324.868 313.336 327.082C315.061 329.296 316.363 331.883 317.242 334.846C318.121 337.808 318.561 341.014 318.561 344.465C318.561 347.948 317.942 351.187 316.705 354.182C315.501 357.144 313.792 359.732 311.578 361.945C309.365 364.159 306.744 365.884 303.717 367.121C300.689 368.358 297.353 368.977 293.707 368.977C289.964 368.977 286.497 368.342 283.307 367.072C280.149 365.77 277.382 363.898 275.006 361.457C272.662 358.983 270.823 355.972 269.488 352.424C268.186 348.876 267.535 344.855 267.535 340.363V334.357C267.535 328.27 268.528 322.85 270.514 318.098C272.532 313.345 275.266 309.325 278.717 306.037C282.2 302.717 286.188 300.194 290.68 298.469C295.172 296.743 299.908 295.881 304.889 295.881ZM375.201 325.959V338.947C375.201 344.058 374.599 348.501 373.395 352.277C372.223 356.053 370.53 359.178 368.316 361.652C366.135 364.126 363.531 365.965 360.504 367.17C357.477 368.374 354.14 368.977 350.494 368.977C347.564 368.977 344.83 368.602 342.291 367.854C339.752 367.072 337.457 365.9 335.406 364.338C333.388 362.743 331.646 360.757 330.182 358.381C328.717 356.005 327.594 353.205 326.812 349.982C326.031 346.727 325.641 343.049 325.641 338.947V325.959C325.641 320.816 326.227 316.372 327.398 312.629C328.603 308.853 330.312 305.728 332.525 303.254C334.739 300.78 337.359 298.941 340.387 297.736C343.414 296.532 346.751 295.93 350.396 295.93C353.326 295.93 356.044 296.32 358.551 297.102C361.09 297.85 363.385 299.022 365.436 300.617C367.486 302.18 369.228 304.149 370.66 306.525C372.125 308.902 373.248 311.717 374.029 314.973C374.811 318.195 375.201 321.857 375.201 325.959ZM358.746 340.949V323.859C358.746 321.581 358.616 319.595 358.355 317.902C358.128 316.21 357.77 314.777 357.281 313.605C356.826 312.434 356.256 311.49 355.572 310.773C354.889 310.025 354.107 309.488 353.229 309.162C352.382 308.804 351.438 308.625 350.396 308.625C349.094 308.625 347.923 308.902 346.881 309.455C345.872 309.976 345.009 310.822 344.293 311.994C343.577 313.166 343.023 314.729 342.633 316.682C342.275 318.635 342.096 321.027 342.096 323.859V340.949C342.096 343.26 342.21 345.279 342.438 347.004C342.698 348.697 343.056 350.145 343.512 351.35C344 352.521 344.586 353.482 345.27 354.23C345.953 354.947 346.734 355.467 347.613 355.793C348.492 356.118 349.452 356.281 350.494 356.281C351.764 356.281 352.903 356.021 353.912 355.5C354.921 354.979 355.784 354.133 356.5 352.961C357.249 351.757 357.802 350.178 358.16 348.225C358.551 346.239 358.746 343.814 358.746 340.949ZM383.893 314.338V310.578C383.893 307.876 384.479 305.419 385.65 303.205C386.822 300.992 388.58 299.217 390.924 297.883C393.268 296.548 396.181 295.881 399.664 295.881C403.245 295.881 406.207 296.548 408.551 297.883C410.895 299.217 412.636 300.992 413.775 303.205C414.947 305.419 415.533 307.876 415.533 310.578V314.338C415.533 316.975 414.947 319.4 413.775 321.613C412.636 323.827 410.895 325.601 408.551 326.936C406.24 328.27 403.326 328.938 399.811 328.938C396.262 328.938 393.316 328.27 390.973 326.936C388.629 325.601 386.855 323.827 385.65 321.613C384.479 319.4 383.893 316.975 383.893 314.338ZM394.439 310.578V314.338C394.439 315.314 394.635 316.242 395.025 317.121C395.416 318 396.002 318.716 396.783 319.27C397.597 319.79 398.59 320.051 399.762 320.051C400.966 320.051 401.943 319.79 402.691 319.27C403.44 318.716 403.993 318 404.352 317.121C404.742 316.242 404.938 315.314 404.938 314.338V310.578C404.938 309.536 404.742 308.576 404.352 307.697C403.993 306.818 403.424 306.118 402.643 305.598C401.861 305.044 400.868 304.768 399.664 304.768C398.525 304.768 397.564 305.044 396.783 305.598C396.002 306.118 395.416 306.818 395.025 307.697C394.635 308.576 394.439 309.536 394.439 310.578ZM417.633 354.328V350.568C417.633 347.899 418.219 345.458 419.391 343.244C420.595 341.031 422.369 339.257 424.713 337.922C427.089 336.587 430.019 335.92 433.502 335.92C437.083 335.92 440.029 336.587 442.34 337.922C444.684 339.257 446.425 341.031 447.564 343.244C448.736 345.458 449.322 347.899 449.322 350.568V354.328C449.322 356.997 448.736 359.439 447.564 361.652C446.425 363.866 444.7 365.64 442.389 366.975C440.077 368.309 437.164 368.977 433.648 368.977C430.1 368.977 427.138 368.309 424.762 366.975C422.385 365.64 420.595 363.866 419.391 361.652C418.219 359.439 417.633 356.997 417.633 354.328ZM428.229 350.568V354.328C428.229 355.337 428.473 356.281 428.961 357.16C429.449 358.039 430.1 358.755 430.914 359.309C431.728 359.829 432.623 360.09 433.6 360.09C435.097 360.09 436.204 359.829 436.92 359.309C437.669 358.755 438.157 358.039 438.385 357.16C438.645 356.281 438.775 355.337 438.775 354.328V350.568C438.775 349.559 438.58 348.615 438.189 347.736C437.799 346.857 437.213 346.158 436.432 345.637C435.65 345.083 434.674 344.807 433.502 344.807C432.33 344.807 431.354 345.083 430.572 345.637C429.791 346.158 429.205 346.857 428.814 347.736C428.424 348.615 428.229 349.559 428.229 350.568ZM437.604 307.111L402.887 362.678L395.221 358.82L429.938 303.254L437.604 307.111Z" fill="#1A5832"/>
<path d="M38.6475 247.995C39.5101 247.995 40.2751 247.832 40.9424 247.507C41.6097 247.165 42.1305 246.693 42.5049 246.091C42.8955 245.472 43.099 244.748 43.1152 243.918H49.7314C49.7152 245.773 49.2188 247.425 48.2422 248.874C47.2656 250.306 45.9554 251.438 44.3115 252.268C42.6676 253.081 40.8285 253.488 38.7939 253.488C36.7432 253.488 34.9528 253.146 33.4229 252.463C31.9092 251.779 30.6478 250.835 29.6387 249.631C28.6296 248.41 27.8727 246.994 27.3682 245.383C26.8636 243.755 26.6113 242.014 26.6113 240.158V239.45C26.6113 237.578 26.8636 235.837 27.3682 234.226C27.8727 232.598 28.6296 231.182 29.6387 229.978C30.6478 228.757 31.9092 227.805 33.4229 227.121C34.9365 226.438 36.7106 226.096 38.7451 226.096C40.9098 226.096 42.806 226.511 44.4336 227.341C46.0775 228.171 47.3633 229.359 48.291 230.905C49.235 232.435 49.7152 234.25 49.7314 236.35H43.1152C43.099 235.471 42.9118 234.673 42.5537 233.957C42.2119 233.241 41.7074 232.671 41.04 232.248C40.389 231.809 39.5833 231.589 38.623 231.589C37.5977 231.589 36.7594 231.809 36.1084 232.248C35.4574 232.671 34.9528 233.257 34.5947 234.006C34.2367 234.738 33.9844 235.576 33.8379 236.521C33.7077 237.448 33.6426 238.425 33.6426 239.45V240.158C33.6426 241.184 33.7077 242.168 33.8379 243.112C33.9681 244.056 34.2122 244.895 34.5703 245.627C34.9447 246.359 35.4574 246.937 36.1084 247.36C36.7594 247.784 37.6058 247.995 38.6475 247.995ZM61.3037 226.584V253H54.2725V226.584H61.3037ZM78.4668 226.584L67.0898 243.112H60.0586L59.2041 236.618H63.8672L69.5557 226.584H78.4668ZM69.873 253L63.3789 241.843L69.5068 238.449L79.2969 253H69.873ZM88.9404 243.186L97.8027 226.584H104.834V253H97.8027V236.374L88.9404 253H81.9092V226.584H88.9404V243.186ZM115.015 226.584H122.046L121.826 235.422C121.761 238.254 121.436 240.687 120.85 242.722C120.264 244.756 119.482 246.465 118.506 247.849C117.529 249.232 116.414 250.339 115.161 251.169C113.924 251.983 112.622 252.593 111.255 253H109.937L109.863 247.58L110.596 247.507C111.426 246.644 112.109 245.806 112.646 244.992C113.184 244.162 113.599 243.291 113.892 242.38C114.185 241.468 114.396 240.451 114.526 239.328C114.673 238.205 114.762 236.903 114.795 235.422L115.015 226.584ZM116.919 226.584H134.424V253H127.417V232.224H116.919V226.584ZM108.325 247.507H138.208V260.935H131.177V253H115.527V260.935H108.325V247.507ZM148.999 226.584V253H141.968V226.584H148.999ZM166.162 226.584L154.785 243.112H147.754L146.899 236.618H151.562L157.251 226.584H166.162ZM157.568 253L151.074 241.843L157.202 238.449L166.992 253H157.568ZM176.636 243.186L185.498 226.584H192.529V253H185.498V236.374L176.636 253H169.604V226.584H176.636V243.186ZM228.491 237.253V242.722H215.063V237.253H228.491ZM217.407 226.584V253H210.376V226.584H217.407ZM233.252 226.584V253H226.196V226.584H233.252ZM252.979 247.043V235.275C252.979 234.429 252.84 233.705 252.563 233.103C252.287 232.484 251.855 232.004 251.27 231.662C250.7 231.32 249.959 231.149 249.048 231.149C248.267 231.149 247.591 231.288 247.021 231.564C246.452 231.825 246.012 232.207 245.703 232.712C245.394 233.2 245.239 233.778 245.239 234.445H238.208C238.208 233.322 238.468 232.256 238.989 231.247C239.51 230.238 240.267 229.351 241.26 228.586C242.253 227.805 243.433 227.194 244.8 226.755C246.183 226.315 247.729 226.096 249.438 226.096C251.489 226.096 253.312 226.438 254.907 227.121C256.502 227.805 257.756 228.83 258.667 230.197C259.595 231.564 260.059 233.273 260.059 235.324V246.628C260.059 248.076 260.148 249.265 260.327 250.192C260.506 251.104 260.767 251.901 261.108 252.585V253H254.004C253.662 252.284 253.402 251.389 253.223 250.314C253.06 249.224 252.979 248.133 252.979 247.043ZM253.906 236.911L253.955 240.891H250.024C249.097 240.891 248.291 240.996 247.607 241.208C246.924 241.42 246.362 241.721 245.923 242.111C245.483 242.486 245.158 242.925 244.946 243.43C244.751 243.934 244.653 244.488 244.653 245.09C244.653 245.692 244.792 246.237 245.068 246.726C245.345 247.198 245.744 247.572 246.265 247.849C246.785 248.109 247.396 248.239 248.096 248.239C249.154 248.239 250.073 248.028 250.854 247.604C251.636 247.181 252.238 246.66 252.661 246.042C253.101 245.424 253.328 244.838 253.345 244.284L255.2 247.263C254.94 247.93 254.582 248.622 254.126 249.338C253.687 250.054 253.125 250.729 252.441 251.364C251.758 251.983 250.936 252.495 249.976 252.902C249.015 253.293 247.876 253.488 246.558 253.488C244.881 253.488 243.359 253.155 241.992 252.487C240.641 251.804 239.567 250.868 238.77 249.68C237.988 248.475 237.598 247.108 237.598 245.578C237.598 244.195 237.858 242.966 238.379 241.892C238.9 240.817 239.665 239.914 240.674 239.182C241.699 238.433 242.977 237.871 244.507 237.497C246.037 237.106 247.811 236.911 249.829 236.911H253.906ZM291.089 241.965H282.812L282.764 237.351H289.6C290.511 237.351 291.252 237.261 291.821 237.082C292.391 236.887 292.806 236.602 293.066 236.228C293.343 235.837 293.481 235.365 293.481 234.812C293.481 234.323 293.392 233.908 293.213 233.566C293.05 233.208 292.798 232.915 292.456 232.688C292.114 232.46 291.683 232.297 291.162 232.199C290.658 232.085 290.063 232.028 289.38 232.028H285.425V253H278.394V226.584H289.38C291.105 226.584 292.651 226.739 294.019 227.048C295.386 227.341 296.549 227.788 297.51 228.391C298.486 228.993 299.227 229.758 299.731 230.686C300.252 231.597 300.513 232.679 300.513 233.933C300.513 234.746 300.326 235.511 299.951 236.228C299.593 236.944 299.056 237.578 298.34 238.132C297.624 238.685 296.737 239.141 295.679 239.499C294.637 239.841 293.433 240.052 292.065 240.134L291.089 241.965ZM291.089 253H281.079L283.496 247.556H291.089C291.951 247.556 292.66 247.45 293.213 247.238C293.766 247.027 294.173 246.717 294.434 246.311C294.71 245.887 294.849 245.383 294.849 244.797C294.849 244.227 294.727 243.731 294.482 243.308C294.238 242.884 293.84 242.559 293.286 242.331C292.749 242.087 292.017 241.965 291.089 241.965H284.521L284.57 237.351H292.041L293.75 239.206C295.605 239.32 297.135 239.67 298.34 240.256C299.544 240.842 300.431 241.59 301.001 242.502C301.587 243.397 301.88 244.382 301.88 245.456C301.88 246.709 301.644 247.808 301.172 248.752C300.7 249.696 300 250.485 299.072 251.12C298.161 251.739 297.038 252.211 295.703 252.536C294.368 252.845 292.83 253 291.089 253ZM317.114 247.995C317.977 247.995 318.742 247.832 319.409 247.507C320.076 247.165 320.597 246.693 320.972 246.091C321.362 245.472 321.566 244.748 321.582 243.918H328.198C328.182 245.773 327.686 247.425 326.709 248.874C325.732 250.306 324.422 251.438 322.778 252.268C321.134 253.081 319.295 253.488 317.261 253.488C315.21 253.488 313.42 253.146 311.89 252.463C310.376 251.779 309.115 250.835 308.105 249.631C307.096 248.41 306.34 246.994 305.835 245.383C305.33 243.755 305.078 242.014 305.078 240.158V239.45C305.078 237.578 305.33 235.837 305.835 234.226C306.34 232.598 307.096 231.182 308.105 229.978C309.115 228.757 310.376 227.805 311.89 227.121C313.403 226.438 315.177 226.096 317.212 226.096C319.377 226.096 321.273 226.511 322.9 227.341C324.544 228.171 325.83 229.359 326.758 230.905C327.702 232.435 328.182 234.25 328.198 236.35H321.582C321.566 235.471 321.379 234.673 321.021 233.957C320.679 233.241 320.174 232.671 319.507 232.248C318.856 231.809 318.05 231.589 317.09 231.589C316.064 231.589 315.226 231.809 314.575 232.248C313.924 232.671 313.42 233.257 313.062 234.006C312.703 234.738 312.451 235.576 312.305 236.521C312.174 237.448 312.109 238.425 312.109 239.45V240.158C312.109 241.184 312.174 242.168 312.305 243.112C312.435 244.056 312.679 244.895 313.037 245.627C313.411 246.359 313.924 246.937 314.575 247.36C315.226 247.784 316.073 247.995 317.114 247.995ZM344.434 253.488C342.383 253.488 340.544 253.163 338.916 252.512C337.288 251.844 335.905 250.925 334.766 249.753C333.643 248.581 332.78 247.222 332.178 245.676C331.576 244.113 331.274 242.453 331.274 240.695V239.719C331.274 237.717 331.559 235.886 332.129 234.226C332.699 232.565 333.512 231.125 334.57 229.904C335.645 228.684 336.947 227.748 338.477 227.097C340.007 226.429 341.732 226.096 343.652 226.096C345.524 226.096 347.184 226.405 348.633 227.023C350.081 227.642 351.294 228.521 352.271 229.66C353.263 230.799 354.012 232.167 354.517 233.762C355.021 235.34 355.273 237.098 355.273 239.035V241.965H334.277V237.277H348.364V236.74C348.364 235.764 348.185 234.893 347.827 234.128C347.485 233.347 346.965 232.728 346.265 232.272C345.565 231.817 344.67 231.589 343.579 231.589C342.651 231.589 341.854 231.792 341.187 232.199C340.519 232.606 339.974 233.176 339.551 233.908C339.144 234.641 338.835 235.503 338.623 236.496C338.428 237.473 338.33 238.547 338.33 239.719V240.695C338.33 241.753 338.477 242.73 338.77 243.625C339.079 244.52 339.51 245.293 340.063 245.944C340.633 246.595 341.317 247.1 342.114 247.458C342.928 247.816 343.848 247.995 344.873 247.995C346.143 247.995 347.323 247.751 348.413 247.263C349.52 246.758 350.472 246.001 351.27 244.992L354.688 248.703C354.134 249.501 353.377 250.266 352.417 250.998C351.473 251.73 350.334 252.333 348.999 252.805C347.664 253.26 346.143 253.488 344.434 253.488ZM385.181 226.584V253H378.125V226.584H385.181ZM393.677 226.584V232.028H369.751V226.584H393.677ZM395.312 240.061V239.548C395.312 237.611 395.589 235.829 396.143 234.201C396.696 232.557 397.502 231.133 398.56 229.929C399.618 228.724 400.92 227.788 402.466 227.121C404.012 226.438 405.786 226.096 407.788 226.096C409.79 226.096 411.572 226.438 413.135 227.121C414.697 227.788 416.007 228.724 417.065 229.929C418.14 231.133 418.953 232.557 419.507 234.201C420.06 235.829 420.337 237.611 420.337 239.548V240.061C420.337 241.981 420.06 243.763 419.507 245.407C418.953 247.035 418.14 248.459 417.065 249.68C416.007 250.884 414.705 251.82 413.159 252.487C411.613 253.155 409.839 253.488 407.837 253.488C405.835 253.488 404.053 253.155 402.49 252.487C400.944 251.82 399.634 250.884 398.56 249.68C397.502 248.459 396.696 247.035 396.143 245.407C395.589 243.763 395.312 241.981 395.312 240.061ZM402.344 239.548V240.061C402.344 241.167 402.441 242.201 402.637 243.161C402.832 244.121 403.141 244.968 403.564 245.7C404.004 246.416 404.574 246.978 405.273 247.385C405.973 247.792 406.828 247.995 407.837 247.995C408.813 247.995 409.652 247.792 410.352 247.385C411.051 246.978 411.613 246.416 412.036 245.7C412.459 244.968 412.769 244.121 412.964 243.161C413.175 242.201 413.281 241.167 413.281 240.061V239.548C413.281 238.474 413.175 237.465 412.964 236.521C412.769 235.56 412.451 234.714 412.012 233.981C411.589 233.233 411.027 232.647 410.327 232.224C409.627 231.8 408.781 231.589 407.788 231.589C406.795 231.589 405.949 231.8 405.249 232.224C404.565 232.647 404.004 233.233 403.564 233.981C403.141 234.714 402.832 235.56 402.637 236.521C402.441 237.465 402.344 238.474 402.344 239.548ZM437.817 241.965H429.541L429.492 237.351H436.328C437.24 237.351 437.98 237.261 438.55 237.082C439.119 236.887 439.535 236.602 439.795 236.228C440.072 235.837 440.21 235.365 440.21 234.812C440.21 234.323 440.12 233.908 439.941 233.566C439.779 233.208 439.526 232.915 439.185 232.688C438.843 232.46 438.411 232.297 437.891 232.199C437.386 232.085 436.792 232.028 436.108 232.028H432.153V253H425.122V226.584H436.108C437.834 226.584 439.38 226.739 440.747 227.048C442.114 227.341 443.278 227.788 444.238 228.391C445.215 228.993 445.955 229.758 446.46 230.686C446.981 231.597 447.241 232.679 447.241 233.933C447.241 234.746 447.054 235.511 446.68 236.228C446.322 236.944 445.785 237.578 445.068 238.132C444.352 238.685 443.465 239.141 442.407 239.499C441.366 239.841 440.161 240.052 438.794 240.134L437.817 241.965ZM437.817 253H427.808L430.225 247.556H437.817C438.68 247.556 439.388 247.45 439.941 247.238C440.495 247.027 440.902 246.717 441.162 246.311C441.439 245.887 441.577 245.383 441.577 244.797C441.577 244.227 441.455 243.731 441.211 243.308C440.967 242.884 440.568 242.559 440.015 242.331C439.478 242.087 438.745 241.965 437.817 241.965H431.25L431.299 237.351H438.77L440.479 239.206C442.334 239.32 443.864 239.67 445.068 240.256C446.273 240.842 447.16 241.59 447.729 242.502C448.315 243.397 448.608 244.382 448.608 245.456C448.608 246.709 448.372 247.808 447.9 248.752C447.428 249.696 446.729 250.485 445.801 251.12C444.889 251.739 443.766 252.211 442.432 252.536C441.097 252.845 439.559 253 437.817 253ZM467.188 247.043V235.275C467.188 234.429 467.049 233.705 466.772 233.103C466.496 232.484 466.064 232.004 465.479 231.662C464.909 231.32 464.168 231.149 463.257 231.149C462.476 231.149 461.8 231.288 461.23 231.564C460.661 231.825 460.221 232.207 459.912 232.712C459.603 233.2 459.448 233.778 459.448 234.445H452.417C452.417 233.322 452.677 232.256 453.198 231.247C453.719 230.238 454.476 229.351 455.469 228.586C456.462 227.805 457.642 227.194 459.009 226.755C460.392 226.315 461.938 226.096 463.647 226.096C465.698 226.096 467.521 226.438 469.116 227.121C470.711 227.805 471.965 228.83 472.876 230.197C473.804 231.564 474.268 233.273 474.268 235.324V246.628C474.268 248.076 474.357 249.265 474.536 250.192C474.715 251.104 474.976 251.901 475.317 252.585V253H468.213C467.871 252.284 467.611 251.389 467.432 250.314C467.269 249.224 467.188 248.133 467.188 247.043ZM468.115 236.911L468.164 240.891H464.233C463.306 240.891 462.5 240.996 461.816 241.208C461.133 241.42 460.571 241.721 460.132 242.111C459.692 242.486 459.367 242.925 459.155 243.43C458.96 243.934 458.862 244.488 458.862 245.09C458.862 245.692 459.001 246.237 459.277 246.726C459.554 247.198 459.953 247.572 460.474 247.849C460.994 248.109 461.605 248.239 462.305 248.239C463.363 248.239 464.282 248.028 465.063 247.604C465.845 247.181 466.447 246.66 466.87 246.042C467.31 245.424 467.537 244.838 467.554 244.284L469.409 247.263C469.149 247.93 468.791 248.622 468.335 249.338C467.896 250.054 467.334 250.729 466.65 251.364C465.967 251.983 465.145 252.495 464.185 252.902C463.224 253.293 462.085 253.488 460.767 253.488C459.09 253.488 457.568 253.155 456.201 252.487C454.85 251.804 453.776 250.868 452.979 249.68C452.197 248.475 451.807 247.108 451.807 245.578C451.807 244.195 452.067 242.966 452.588 241.892C453.109 240.817 453.874 239.914 454.883 239.182C455.908 238.433 457.186 237.871 458.716 237.497C460.246 237.106 462.02 236.911 464.038 236.911H468.115ZM486.719 231.662V263.156H479.688V226.584H486.206L486.719 231.662ZM503.442 239.499V240.012C503.442 241.932 503.215 243.715 502.759 245.358C502.319 247.002 501.668 248.435 500.806 249.655C499.943 250.86 498.869 251.804 497.583 252.487C496.313 253.155 494.849 253.488 493.188 253.488C491.577 253.488 490.177 253.163 488.989 252.512C487.801 251.861 486.8 250.949 485.986 249.777C485.189 248.589 484.546 247.214 484.058 245.651C483.569 244.089 483.195 242.412 482.935 240.622V239.279C483.195 237.359 483.569 235.601 484.058 234.006C484.546 232.395 485.189 231.003 485.986 229.831C486.8 228.643 487.793 227.723 488.965 227.072C490.153 226.421 491.545 226.096 493.14 226.096C494.816 226.096 496.289 226.413 497.559 227.048C498.844 227.683 499.919 228.594 500.781 229.782C501.66 230.97 502.319 232.386 502.759 234.03C503.215 235.674 503.442 237.497 503.442 239.499ZM496.387 240.012V239.499C496.387 238.376 496.289 237.342 496.094 236.398C495.915 235.438 495.622 234.6 495.215 233.884C494.824 233.168 494.303 232.614 493.652 232.224C493.018 231.817 492.244 231.613 491.333 231.613C490.373 231.613 489.551 231.768 488.867 232.077C488.2 232.386 487.655 232.834 487.231 233.42C486.808 234.006 486.491 234.706 486.279 235.52C486.068 236.333 485.938 237.253 485.889 238.278V241.672C485.97 242.876 486.198 243.959 486.572 244.919C486.947 245.863 487.524 246.612 488.306 247.165C489.087 247.718 490.112 247.995 491.382 247.995C492.31 247.995 493.091 247.792 493.726 247.385C494.36 246.962 494.873 246.384 495.264 245.651C495.671 244.919 495.955 244.073 496.118 243.112C496.297 242.152 496.387 241.118 496.387 240.012ZM512.671 234.421H520.337C522.746 234.421 524.797 234.82 526.489 235.617C528.198 236.398 529.5 237.489 530.396 238.889C531.307 240.288 531.763 241.908 531.763 243.747C531.763 245.082 531.502 246.319 530.981 247.458C530.477 248.581 529.736 249.558 528.76 250.388C527.783 251.218 526.587 251.861 525.171 252.316C523.755 252.772 522.144 253 520.337 253H508.276V226.584H515.332V247.531H520.337C521.395 247.531 522.241 247.36 522.876 247.019C523.527 246.66 523.999 246.197 524.292 245.627C524.601 245.057 524.756 244.439 524.756 243.771C524.756 243.072 524.601 242.437 524.292 241.867C523.999 241.281 523.527 240.809 522.876 240.451C522.241 240.093 521.395 239.914 520.337 239.914H512.671V234.421ZM543.042 226.584V253H536.011V226.584H543.042Z" fill="#FCFCFC"/>
<defs>
<clipPath id="clip0_2004_110">
<rect width="1160" height="550" fill="white"/>
</clipPath>
</defs>
</svg>
