<svg width="1160" height="550" viewBox="0 0 1160 550" fill="none" xmlns="http://www.w3.org/2000/svg">
<g clip-path="url(#clip0_2086_211)">
<rect width="1160" height="550" fill="#387A2B"/>
<circle cx="6.31809e-06" cy="550" r="150" fill="#FCFCFC"/>
<circle cx="1160" cy="2.00001" r="150" fill="#FCFCFC"/>
<circle cx="353.5" cy="75.5" r="64.5" fill="#FCFCFC"/>
<path d="M1128.77 361.954L1101.47 515.429L982.202 415.051L1128.77 361.954Z" fill="#FCFCFC"/>
<path d="M511.787 403.163L597.736 489.113L480.327 520.573L511.787 403.163Z" fill="#FCFCFC"/>
<path d="M43.9168 36.3776L210.049 132.294L43.9168 228.211L43.9168 36.3776Z" fill="#FCFCFC"/>
<path fill-rule="evenodd" clip-rule="evenodd" d="M319.574 369.077H294.801C293.09 369.077 291.705 370.465 291.705 372.179C291.705 373.893 293.09 375.281 294.801 375.281H319.574C321.285 375.281 322.67 373.893 322.67 372.179C322.67 370.465 321.285 369.077 319.574 369.077Z" fill="#FCFCFC" stroke="#FCFCFC"/>
<path fill-rule="evenodd" clip-rule="evenodd" d="M319.574 381.484H294.801C293.09 381.484 291.705 382.873 291.705 384.586C291.705 386.3 293.09 387.688 294.801 387.688H319.574C321.285 387.688 322.67 386.3 322.67 384.586C322.67 382.873 321.285 381.484 319.574 381.484Z" fill="#FCFCFC" stroke="#FCFCFC"/>
<path fill-rule="evenodd" clip-rule="evenodd" d="M372.215 375.9C372.215 374.093 371.495 372.356 370.218 371.077C368.94 369.797 367.206 369.076 365.402 369.076H360.448C358.644 369.076 356.91 369.797 355.633 371.077C354.355 372.356 353.635 374.093 353.635 375.9V380.863C353.635 382.67 354.355 384.407 355.633 385.686C356.91 386.966 358.644 387.687 360.448 387.687H365.402C367.206 387.687 368.94 386.966 370.218 385.686C371.495 384.407 372.215 382.67 372.215 380.863V375.9ZM366.022 375.9V380.863C366.022 381.026 365.96 381.189 365.836 381.297C365.728 381.421 365.565 381.483 365.402 381.483H360.448C360.285 381.483 360.123 381.421 360.014 381.297C359.89 381.189 359.829 381.026 359.829 380.863V375.9C359.829 375.737 359.89 375.574 360.014 375.466C360.123 375.342 360.285 375.28 360.448 375.28H365.402C365.565 375.28 365.728 375.342 365.836 375.466C365.96 375.574 366.022 375.737 366.022 375.9Z" fill="#FCFCFC" stroke="#FCFCFC"/>
<path fill-rule="evenodd" clip-rule="evenodd" d="M226.676 369.077C221.551 369.077 217.386 373.249 217.386 378.383C217.386 383.516 221.551 387.688 226.676 387.688C231.801 387.688 235.966 383.516 235.966 378.383C235.966 373.249 231.801 369.077 226.676 369.077ZM226.676 375.281C228.387 375.281 229.773 376.669 229.773 378.383C229.773 380.096 228.387 381.484 226.676 381.484C224.965 381.484 223.58 380.096 223.58 378.383C223.58 376.669 224.965 375.281 226.676 375.281Z" fill="#FCFCFC" stroke="#FCFCFC"/>
<path fill-rule="evenodd" clip-rule="evenodd" d="M251.449 369.077C246.324 369.077 242.159 373.249 242.159 378.383C242.159 383.516 246.324 387.688 251.449 387.688C256.574 387.688 260.739 383.516 260.739 378.383C260.739 373.249 256.574 369.077 251.449 369.077ZM251.449 375.281C253.16 375.281 254.545 376.669 254.545 378.383C254.545 380.096 253.16 381.484 251.449 381.484C249.738 381.484 248.352 380.096 248.352 378.383C248.352 376.669 249.738 375.281 251.449 375.281Z" fill="#FCFCFC" stroke="#FCFCFC"/>
<path fill-rule="evenodd" clip-rule="evenodd" d="M220.483 362.871H257.642C259.353 362.871 260.739 361.483 260.739 359.77C260.739 358.056 259.353 356.668 257.642 356.668H220.483C218.772 356.668 217.386 358.056 217.386 359.77C217.386 361.483 218.772 362.871 220.483 362.871Z" fill="#FCFCFC" stroke="#FCFCFC"/>
<path fill-rule="evenodd" clip-rule="evenodd" d="M220.483 350.464H257.642C259.353 350.464 260.739 349.076 260.739 347.362C260.739 345.648 259.353 344.26 257.642 344.26H220.483C218.772 344.26 217.386 345.648 217.386 347.362C217.386 349.076 218.772 350.464 220.483 350.464Z" fill="#FCFCFC" stroke="#FCFCFC"/>
<path fill-rule="evenodd" clip-rule="evenodd" d="M220.483 400.094H369.119C377.666 400.094 384.602 393.145 384.602 384.584V310.14C384.602 301.579 377.666 294.631 369.119 294.631H359.83V260.509C359.83 251.948 352.893 245 344.347 245H220.483C211.936 245 205 251.948 205 260.509V384.583C205 393.144 211.936 400.094 220.483 400.094ZM347.442 300.834V316.344C347.442 321.485 343.285 325.649 338.152 325.649H325.766C320.634 325.649 316.476 321.485 316.476 316.344V300.834H294.799C289.667 300.834 285.509 304.999 285.509 310.14V384.584C285.509 389.726 289.667 393.89 294.799 393.89H369.117C374.25 393.89 378.407 389.726 378.407 384.584V310.14C378.407 304.999 374.25 300.834 369.117 300.834H347.442ZM353.635 294.631V260.509C353.635 255.368 349.478 251.204 344.346 251.204H310.282V279.119C310.282 284.261 306.125 288.425 300.992 288.425H263.833C258.701 288.425 254.543 284.261 254.543 279.119V251.204H220.48C215.347 251.204 211.19 255.368 211.19 260.509V384.583C211.19 389.725 215.347 393.889 220.48 393.889H282.412C280.469 391.299 279.315 388.073 279.315 384.583V310.139C279.315 301.578 286.252 294.63 294.798 294.63L353.635 294.631ZM341.249 300.834V316.344C341.249 318.057 339.863 319.445 338.152 319.445H325.766C324.055 319.445 322.669 318.057 322.669 316.344V300.834H341.249ZM304.09 251.205V279.12C304.09 280.834 302.704 282.222 300.993 282.222H263.834C262.123 282.222 260.738 280.834 260.738 279.12V251.205H304.09Z" fill="#FCFCFC" stroke="#FCFCFC"/>
<mask id="path-15-inside-1_2086_211" fill="white">
<path d="M806.682 62C810.953 62 814.41 65.3087 814.41 69.3973V145.836H954.034C957.249 145.836 960.133 147.754 961.278 150.641L1009.52 274.141C1009.82 274.963 1010 275.848 1010 276.733V353.404C1010 357.492 1006.54 360.822 1002.27 360.822H952.538C948.817 382.951 928.672 400 904.477 400C880.325 400 860.136 382.993 856.415 360.822H628.811C625.09 382.951 604.945 400 580.749 400C556.597 400 536.431 382.993 532.688 360.822H471.728C467.457 360.822 464 357.492 464 353.404V69.3978C464 65.3093 467.457 62.0005 471.728 62.0005L806.682 62ZM798.955 76.8156H479.497L479.475 282.02H798.933V153.232L798.955 76.8156ZM948.685 160.651H814.431V346.001H856.438C859.917 325.263 877.816 308.994 899.876 306.992C900.008 306.97 900.14 306.97 900.25 306.97C901.659 306.844 903.068 306.781 904.5 306.781C905.975 306.781 907.45 306.844 908.903 306.97C931.051 308.888 949.038 325.179 952.539 346.001H994.524V284.124H859.234C848.467 284.124 839.551 275.61 839.551 265.283L839.573 202.797C839.573 192.491 848.468 183.977 859.256 183.977L957.776 183.956L948.685 160.651ZM963.545 198.775H859.277C856.877 198.775 855.072 200.503 855.072 202.8V265.309C855.072 267.606 856.877 269.334 859.277 269.334L991.112 269.313L963.545 198.775ZM798.976 296.837H479.518V346.005H532.754C536.474 323.834 556.663 306.785 580.815 306.785C582.268 306.785 583.699 306.848 585.13 306.975H585.284C607.41 308.913 625.398 325.183 628.876 346.005H798.93L798.976 296.837ZM904.524 321.6H904.414C903.335 321.6 902.278 321.663 901.221 321.747C901.067 321.769 900.913 321.79 900.781 321.79C899.878 321.874 898.976 322.021 898.095 322.169C897.809 322.211 897.545 322.274 897.258 322.338C896.576 322.485 895.871 322.654 895.211 322.843C894.748 322.97 894.286 323.117 893.824 323.265C893.361 323.412 892.899 323.581 892.437 323.75C891.732 324.002 891.028 324.297 890.345 324.593C890.191 324.656 890.015 324.74 889.861 324.824C880.284 329.313 873.349 338.059 871.675 348.554V348.576C871.499 349.629 871.389 350.683 871.345 351.779V351.8C871.323 352.348 871.301 352.875 871.301 353.423C871.301 371.083 886.096 385.203 904.501 385.203C922.907 385.203 937.614 371.125 937.702 353.57L937.68 353.549C937.658 353.507 937.636 353.465 937.636 353.401C937.636 335.741 922.907 321.6 904.479 321.579L904.524 321.6ZM580.817 321.6C579.672 321.6 578.527 321.663 577.404 321.769H577.36C575.181 321.979 573.045 322.401 570.998 322.991C570.976 322.991 570.932 323.012 570.91 323.012C570.866 323.012 570.844 323.033 570.8 323.054C569.897 323.328 569.016 323.644 568.136 323.981C567.937 324.066 567.717 324.15 567.519 324.234C566.793 324.529 566.11 324.867 565.406 325.204C565.097 325.372 564.767 325.52 564.459 325.688C563.909 325.984 563.38 326.3 562.852 326.616C562.433 326.869 562.037 327.122 561.619 327.396C561.112 327.733 560.606 328.112 560.122 328.47C559.813 328.702 559.527 328.934 559.241 329.166C558.757 329.566 558.272 329.967 557.81 330.388C557.48 330.704 557.15 331.02 556.819 331.337C556.423 331.737 556.027 332.158 555.63 332.58C555.3 332.938 554.992 333.318 554.662 333.697C554.353 334.076 554.045 334.456 553.759 334.856C553.429 335.299 553.099 335.762 552.79 336.226C552.504 336.647 552.24 337.069 551.976 337.511C551.733 337.933 551.491 338.354 551.249 338.776C550.941 339.366 550.633 339.935 550.368 340.546C550.258 340.778 550.148 341.031 550.038 341.263C549.708 342.064 549.4 342.864 549.114 343.686C549.07 343.813 549.026 343.939 548.981 344.066C548.695 344.951 548.475 345.857 548.255 346.784C548.233 346.869 548.211 346.953 548.189 347.058C547.991 348.049 547.815 349.06 547.704 350.093V350.135V350.156C547.594 351.231 547.528 352.306 547.528 353.402C547.528 371.062 562.323 385.182 580.729 385.182C599.178 385.182 613.929 371.02 613.929 353.402C613.929 348.976 613.004 344.761 611.331 340.947V340.926C609.658 337.132 607.236 333.697 604.242 330.852C603.493 330.135 602.701 329.461 601.886 328.807C601.842 328.786 601.82 328.744 601.776 328.723C600.984 328.112 600.191 327.522 599.332 326.995C599.31 326.974 599.288 326.974 599.288 326.953C596.668 325.267 593.74 323.918 590.636 323.012C587.509 322.085 584.185 321.6 580.728 321.6L580.817 321.6Z"/>
</mask>
<path d="M806.682 62C810.953 62 814.41 65.3087 814.41 69.3973V145.836H954.034C957.249 145.836 960.133 147.754 961.278 150.641L1009.52 274.141C1009.82 274.963 1010 275.848 1010 276.733V353.404C1010 357.492 1006.54 360.822 1002.27 360.822H952.538C948.817 382.951 928.672 400 904.477 400C880.325 400 860.136 382.993 856.415 360.822H628.811C625.09 382.951 604.945 400 580.749 400C556.597 400 536.431 382.993 532.688 360.822H471.728C467.457 360.822 464 357.492 464 353.404V69.3978C464 65.3093 467.457 62.0005 471.728 62.0005L806.682 62ZM798.955 76.8156H479.497L479.475 282.02H798.933V153.232L798.955 76.8156ZM948.685 160.651H814.431V346.001H856.438C859.917 325.263 877.816 308.994 899.876 306.992C900.008 306.97 900.14 306.97 900.25 306.97C901.659 306.844 903.068 306.781 904.5 306.781C905.975 306.781 907.45 306.844 908.903 306.97C931.051 308.888 949.038 325.179 952.539 346.001H994.524V284.124H859.234C848.467 284.124 839.551 275.61 839.551 265.283L839.573 202.797C839.573 192.491 848.468 183.977 859.256 183.977L957.776 183.956L948.685 160.651ZM963.545 198.775H859.277C856.877 198.775 855.072 200.503 855.072 202.8V265.309C855.072 267.606 856.877 269.334 859.277 269.334L991.112 269.313L963.545 198.775ZM798.976 296.837H479.518V346.005H532.754C536.474 323.834 556.663 306.785 580.815 306.785C582.268 306.785 583.699 306.848 585.13 306.975H585.284C607.41 308.913 625.398 325.183 628.876 346.005H798.93L798.976 296.837ZM904.524 321.6H904.414C903.335 321.6 902.278 321.663 901.221 321.747C901.067 321.769 900.913 321.79 900.781 321.79C899.878 321.874 898.976 322.021 898.095 322.169C897.809 322.211 897.545 322.274 897.258 322.338C896.576 322.485 895.871 322.654 895.211 322.843C894.748 322.97 894.286 323.117 893.824 323.265C893.361 323.412 892.899 323.581 892.437 323.75C891.732 324.002 891.028 324.297 890.345 324.593C890.191 324.656 890.015 324.74 889.861 324.824C880.284 329.313 873.349 338.059 871.675 348.554V348.576C871.499 349.629 871.389 350.683 871.345 351.779V351.8C871.323 352.348 871.301 352.875 871.301 353.423C871.301 371.083 886.096 385.203 904.501 385.203C922.907 385.203 937.614 371.125 937.702 353.57L937.68 353.549C937.658 353.507 937.636 353.465 937.636 353.401C937.636 335.741 922.907 321.6 904.479 321.579L904.524 321.6ZM580.817 321.6C579.672 321.6 578.527 321.663 577.404 321.769H577.36C575.181 321.979 573.045 322.401 570.998 322.991C570.976 322.991 570.932 323.012 570.91 323.012C570.866 323.012 570.844 323.033 570.8 323.054C569.897 323.328 569.016 323.644 568.136 323.981C567.937 324.066 567.717 324.15 567.519 324.234C566.793 324.529 566.11 324.867 565.406 325.204C565.097 325.372 564.767 325.52 564.459 325.688C563.909 325.984 563.38 326.3 562.852 326.616C562.433 326.869 562.037 327.122 561.619 327.396C561.112 327.733 560.606 328.112 560.122 328.47C559.813 328.702 559.527 328.934 559.241 329.166C558.757 329.566 558.272 329.967 557.81 330.388C557.48 330.704 557.15 331.02 556.819 331.337C556.423 331.737 556.027 332.158 555.63 332.58C555.3 332.938 554.992 333.318 554.662 333.697C554.353 334.076 554.045 334.456 553.759 334.856C553.429 335.299 553.099 335.762 552.79 336.226C552.504 336.647 552.24 337.069 551.976 337.511C551.733 337.933 551.491 338.354 551.249 338.776C550.941 339.366 550.633 339.935 550.368 340.546C550.258 340.778 550.148 341.031 550.038 341.263C549.708 342.064 549.4 342.864 549.114 343.686C549.07 343.813 549.026 343.939 548.981 344.066C548.695 344.951 548.475 345.857 548.255 346.784C548.233 346.869 548.211 346.953 548.189 347.058C547.991 348.049 547.815 349.06 547.704 350.093V350.135V350.156C547.594 351.231 547.528 352.306 547.528 353.402C547.528 371.062 562.323 385.182 580.729 385.182C599.178 385.182 613.929 371.02 613.929 353.402C613.929 348.976 613.004 344.761 611.331 340.947V340.926C609.658 337.132 607.236 333.697 604.242 330.852C603.493 330.135 602.701 329.461 601.886 328.807C601.842 328.786 601.82 328.744 601.776 328.723C600.984 328.112 600.191 327.522 599.332 326.995C599.31 326.974 599.288 326.974 599.288 326.953C596.668 325.267 593.74 323.918 590.636 323.012C587.509 322.085 584.185 321.6 580.728 321.6L580.817 321.6Z" fill="#FCFCFC" stroke="#387A2B" stroke-width="6" mask="url(#path-15-inside-1_2086_211)"/>
<path d="M528.247 219.521H518.744V246.778H513.503V219.521H504V215.285H528.247V219.521ZM550.257 232.611H536.492V242.576H552.458V246.778H531.251V215.285H552.318V219.486H536.527V228.375H550.292V232.611H550.257ZM567.481 226.917L574.119 215.285H580.338L570.661 230.91L580.688 246.778H574.364L567.551 234.938L560.738 246.778H554.52L564.407 230.91L554.729 215.285H560.913L567.481 226.917ZM608.323 246.778H603.083V233.34H589.003V246.778H583.762V215.285H589.003V229.139H603.083V215.285H608.323V246.778ZM638.334 233.861C638.334 237.715 637.112 240.91 634.701 243.444C632.29 245.979 629.146 247.229 625.338 247.229C621.564 247.229 618.49 245.979 616.149 243.444C613.808 240.91 612.62 237.715 612.62 233.861V228.201C612.62 224.382 613.808 221.188 616.149 218.653C618.49 216.118 621.564 214.833 625.303 214.833C629.146 214.833 632.29 216.118 634.701 218.653C637.112 221.188 638.334 224.382 638.334 228.201V233.861ZM633.094 228.167C633.094 225.528 632.395 223.375 630.998 221.708C629.6 220.042 627.713 219.174 625.303 219.174C622.997 219.174 621.18 220.007 619.853 221.708C618.525 223.41 617.861 225.563 617.861 228.167V233.861C617.861 236.5 618.525 238.688 619.853 240.389C621.18 242.09 623.032 242.924 625.338 242.924C627.748 242.924 629.635 242.09 631.033 240.389C632.43 238.688 633.129 236.535 633.129 233.861L633.094 228.167ZM665.69 236.326L665.725 236.465C665.795 239.66 664.747 242.229 662.616 244.243C660.485 246.222 657.62 247.229 653.986 247.229C650.318 247.229 647.348 245.979 645.042 243.514C642.737 241.049 641.584 237.889 641.584 234.035V228.063C641.584 224.243 642.702 221.049 644.973 218.583C647.243 216.118 650.248 214.833 653.847 214.833C657.55 214.833 660.485 215.806 662.616 217.75C664.747 219.694 665.795 222.333 665.725 225.632L665.69 225.771H660.625C660.625 223.653 660.066 221.986 658.913 220.806C657.76 219.625 656.083 219.035 653.847 219.035C651.82 218.965 649.899 219.938 648.746 221.604C647.488 223.306 646.859 225.424 646.859 227.993V234.035C646.859 236.639 647.488 238.792 648.781 240.458C649.969 242.125 651.925 243.063 653.986 242.993C656.153 242.993 657.795 242.403 658.948 241.257C660.066 240.111 660.625 238.444 660.625 236.326H665.69ZM686.723 218.271H687.037C690.81 218.271 693.92 219.451 696.365 221.847C698.811 224.243 700.069 227.333 700.069 231.153C700.069 234.938 698.846 238.028 696.365 240.389C693.92 242.75 690.81 243.931 687.037 243.931H686.723V248.062H681.482V243.931H681.063C677.29 243.931 674.18 242.75 671.735 240.389C669.289 238.028 668.066 234.972 668.066 231.188C668.066 227.368 669.289 224.243 671.735 221.847C674.18 219.451 677.29 218.236 681.063 218.236H681.482V214H686.723V218.271ZM681.063 222.646C678.582 222.646 676.661 223.41 675.298 224.903C673.936 226.396 673.237 228.514 673.237 231.222C673.237 233.861 673.936 235.944 675.298 237.403C676.661 238.861 678.582 239.59 681.063 239.59H681.482V222.646H681.063ZM686.723 222.646V239.59H687.107C689.553 239.59 691.474 238.861 692.837 237.368C694.199 235.875 694.898 233.826 694.898 231.188C694.898 228.514 694.199 226.396 692.837 224.903C691.474 223.41 689.553 222.646 687.107 222.646H686.723ZM722.429 232.611H708.663V242.576H724.63V246.778H703.423V215.285H724.49V219.486H708.698V228.375H722.464V232.611H722.429ZM733.05 234.833V246.778H727.809V215.285H740.072C743.531 215.285 746.256 216.187 748.213 217.993C750.169 219.799 751.147 222.16 751.147 225.076C751.147 228.028 750.169 230.389 748.213 232.194C746.256 233.965 743.531 234.868 740.072 234.868H733.05V234.833ZM733.05 230.632H740.072C742.029 230.632 743.461 230.111 744.439 229.069C745.418 227.993 745.977 226.569 745.907 225.111C745.942 223.653 745.418 222.194 744.439 221.118C743.461 220.042 741.994 219.521 740.072 219.521H733.05V230.632ZM769.594 239.417H757.261L754.746 246.778H749.435L761 215.285H765.961L777.385 246.778H772.04L769.594 239.417ZM758.799 235.042H768.092L763.55 221.569H763.41L758.799 235.042Z" fill="#FCFCFC"/>
</g>
<defs>
<clipPath id="clip0_2086_211">
<rect width="1160" height="550" fill="white"/>
</clipPath>
</defs>
</svg>
